<svg width="883" height="1406" viewBox="0 0 883 1406" fill="none" xmlns="http://www.w3.org/2000/svg">
<path d="M701.503 1402.63C689.873 1399.01 678.323 1395.12 666.883 1390.94C665.063 1390.28 664.283 1393.18 666.083 1393.83C677.533 1398 689.073 1401.9 700.703 1405.52C702.553 1406.09 703.343 1403.2 701.503 1402.63Z" fill="#0A0B22"/>
<path d="M646.495 1385.21C633.025 1381.93 619.545 1378.66 606.075 1375.38C604.195 1374.92 603.395 1377.82 605.275 1378.27C618.745 1381.55 632.225 1384.82 645.695 1388.1C647.575 1388.56 648.375 1385.66 646.495 1385.21Z" fill="#0A0B22"/>
<path d="M577.763 1366.6C564.603 1362.37 551.433 1358.14 538.273 1353.91C536.433 1353.32 535.643 1356.21 537.473 1356.8C550.633 1361.03 563.803 1365.26 576.963 1369.49C578.803 1370.08 579.593 1367.19 577.763 1366.6Z" fill="#0A0B22"/>
<path d="M514.435 1347.43C506.025 1343.97 497.495 1340.83 488.855 1337.99C487.015 1337.39 486.225 1340.28 488.055 1340.88C496.695 1343.71 505.225 1346.86 513.635 1350.32C515.415 1351.05 516.195 1348.15 514.435 1347.43Z" fill="#0A0B22"/>
<path d="M465.224 1329.2C453.434 1324.52 441.404 1320.48 429.174 1317.09C427.314 1316.57 426.514 1319.47 428.374 1319.98C440.604 1323.37 452.634 1327.41 464.424 1332.09C466.214 1332.8 466.994 1329.9 465.224 1329.2Z" fill="#0A0B22"/>
<path d="M396.093 1303.48C386.343 1299.73 376.593 1295.98 366.833 1292.23C365.033 1291.54 364.253 1294.44 366.033 1295.12C375.783 1298.87 385.533 1302.62 395.293 1306.37C397.093 1307.06 397.873 1304.16 396.093 1303.48Z" fill="#0A0B22"/>
<path d="M344.552 1279.14C333.992 1274.85 323.542 1270.31 313.192 1265.53C311.452 1264.73 309.922 1267.31 311.682 1268.12C322.262 1273.01 332.962 1277.64 343.752 1282.03C345.542 1282.76 346.322 1279.86 344.552 1279.14Z" fill="#0A0B22"/>
<path d="M285.413 1254.1C274.913 1247.65 263.783 1242.29 252.203 1238.07C250.383 1237.41 249.603 1240.31 251.403 1240.96C262.733 1245.1 273.613 1250.38 283.893 1256.69C285.543 1257.7 287.053 1255.11 285.403 1254.1H285.413Z" fill="#0A0B22"/>
<path d="M226.133 1224.15C217.493 1219.41 208.843 1214.67 200.203 1209.93C198.513 1209 196.993 1211.59 198.693 1212.52C207.333 1217.26 215.983 1222 224.623 1226.74C226.313 1227.67 227.833 1225.08 226.133 1224.15Z" fill="#0A0B22"/>
<path d="M169.295 1191.19C158.925 1184.11 148.485 1177.13 138.075 1170.11C136.475 1169.03 134.965 1171.62 136.565 1172.7C146.975 1179.73 157.415 1186.7 167.785 1193.78C169.385 1194.87 170.885 1192.27 169.295 1191.19Z" fill="#0A0B22"/>
<path d="M121.495 1159.19C111.645 1153.33 102.485 1146.41 94.1651 1138.53C92.7651 1137.2 90.6351 1139.32 92.0451 1140.65C100.545 1148.7 109.925 1155.8 119.985 1161.78C121.645 1162.77 123.155 1160.18 121.495 1159.19Z" fill="#0A0B22"/>
<path d="M79.6657 1126.02C75.5657 1118.99 70.1157 1112.89 63.6457 1107.96C63.0057 1107.47 61.9657 1107.86 61.5957 1108.5C61.1457 1109.27 61.4857 1110.06 62.1357 1110.55C68.1757 1115.16 73.2557 1120.98 77.0757 1127.54C78.0457 1129.21 80.6457 1127.7 79.6657 1126.03V1126.02Z" fill="#0A0B22"/>
<path d="M48.2423 1094.07C43.2923 1085.97 37.4923 1078.39 30.9523 1071.5C29.6223 1070.1 27.5023 1072.22 28.8323 1073.62C35.1923 1080.33 40.8223 1087.69 45.6523 1095.58C46.6623 1097.22 49.2523 1095.72 48.2423 1094.07Z" fill="#0A0B22"/>
<path d="M20.5749 1054.18C16.7749 1047.53 12.9749 1040.88 9.17489 1034.23C8.21489 1032.55 5.62489 1034.06 6.58489 1035.74C10.3849 1042.39 14.1849 1049.04 17.9849 1055.69C18.9449 1057.37 21.5349 1055.86 20.5749 1054.18Z" fill="#0A0B22"/>
<path d="M5.71295 1020.84C4.34295 1013.4 3.43295 1005.88 3.00295 998.326C2.89295 996.406 -0.107048 996.396 0.00295207 998.326C0.452952 1006.15 1.40295 1013.94 2.82295 1021.64C3.17295 1023.54 6.06295 1022.73 5.71295 1020.84Z" fill="#0A0B22"/>
<path d="M4.58231 981.686C8.20231 973.716 11.8123 965.736 15.4323 957.766C16.2223 956.026 13.6423 954.496 12.8423 956.256C9.22231 964.226 5.61231 972.206 1.99231 980.176C1.20231 981.916 3.78231 983.446 4.58231 981.686Z" fill="#0A0B22"/>
<path d="M25.6649 939.146C34.2749 930.946 42.7149 922.556 50.9749 913.996C52.3149 912.606 50.1949 910.486 48.8549 911.876C40.5949 920.436 32.1549 928.816 23.5449 937.026C22.1449 938.356 24.2649 940.476 25.6649 939.146Z" fill="#0A0B22"/>
<path d="M60.624 907.006C60.504 904.766 61.044 904.516 62.234 906.246C62.404 906.066 62.594 905.896 62.794 905.756C63.2341 905.386 63.714 905.056 64.174 904.706C65.094 904.006 66.004 903.306 66.924 902.606C68.754 901.206 70.594 899.806 72.424 898.406C76.094 895.606 79.754 892.806 83.424 890.006C84.074 889.506 84.394 888.716 83.964 887.956C83.604 887.316 82.5541 886.926 81.9141 887.416C76.4141 891.616 70.9141 895.816 65.4141 900.016C64.0341 901.066 62.664 902.116 61.284 903.166C60.174 904.016 58.844 905.176 59.374 906.756C60.424 909.906 65.054 906.736 62.754 904.886C61.264 903.686 59.1241 905.796 60.6341 907.006H60.624Z" fill="#0A0B22"/>
<path d="M99.2956 883.016C107.506 877.966 116.356 874.066 125.626 871.426C127.476 870.896 126.696 868.006 124.826 868.536C115.316 871.236 106.196 875.246 97.7755 880.426C96.1355 881.436 97.6355 884.036 99.2855 883.016H99.2956Z" fill="#0A0B22"/>
<path d="M152.405 863.636C158.445 861.376 164.325 858.686 169.965 855.576C171.655 854.646 170.145 852.056 168.455 852.986C163.035 855.976 157.405 858.576 151.605 860.746C150.845 861.026 150.325 861.756 150.555 862.596C150.755 863.326 151.635 863.926 152.405 863.646V863.636Z" fill="#0A0B22"/>
<path d="M189.043 850.646C197.633 847.346 206.473 844.756 215.493 842.926C217.383 842.536 216.583 839.646 214.693 840.036C205.673 841.876 196.833 844.456 188.243 847.756C186.463 848.446 187.233 851.346 189.043 850.646Z" fill="#0A0B22"/>
<path d="M231.604 838.405C238.334 838.545 245.064 837.295 251.274 834.695C252.024 834.385 252.554 833.705 252.324 832.845C252.134 832.145 251.234 831.485 250.474 831.795C244.484 834.295 238.094 835.535 231.604 835.405C229.674 835.365 229.674 838.365 231.604 838.405Z" fill="#0A0B22"/>
<path d="M271.382 831.746C279.972 828.776 288.562 825.816 297.162 822.846C298.972 822.216 298.192 819.316 296.362 819.956C287.772 822.926 279.182 825.886 270.582 828.856C268.772 829.486 269.552 832.386 271.382 831.746Z" fill="#0A0B22"/>
<path d="M318.293 821.246C329.643 818.696 341.113 816.756 352.673 815.466C354.573 815.256 354.593 812.256 352.673 812.466C340.843 813.786 329.103 815.746 317.493 818.356C315.613 818.776 316.403 821.676 318.293 821.246Z" fill="#0A0B22"/>
<path d="M375.444 809.196C375.624 807.496 373.604 806.976 372.414 807.736C370.834 808.746 371.404 810.896 373.044 811.456C374.904 812.096 377.504 810.836 379.294 810.336C381.694 809.666 384.104 809.006 386.504 808.336C396.114 805.666 405.724 803.006 415.334 800.336C417.194 799.816 416.404 796.926 414.534 797.446C407.564 799.376 400.594 801.306 393.634 803.246C390.194 804.206 386.744 805.156 383.304 806.116C381.544 806.606 379.784 807.096 378.014 807.586C377.214 807.806 376.414 808.026 375.614 808.256C375.214 808.366 374.714 808.446 374.334 808.596L374.064 808.616C374.354 810.706 373.814 810.896 372.454 809.196C372.254 811.116 375.254 811.096 375.454 809.196H375.444Z" fill="#0A0B22"/>
<path d="M436.104 797.646C444.904 798.346 453.804 797.016 462.014 793.786C463.794 793.086 463.014 790.186 461.214 790.896C453.214 794.046 444.674 795.326 436.104 794.656C434.184 794.506 434.194 797.506 436.104 797.656V797.646Z" fill="#0A0B22"/>
<path d="M483.424 790.986C495.984 787.096 508.814 784.166 521.814 782.216C523.714 781.936 522.904 779.036 521.014 779.326C508.014 781.266 495.174 784.196 482.624 788.096C480.784 788.666 481.574 791.566 483.424 790.986Z" fill="#0A0B22"/>
<path d="M539.796 781.636C551.886 780.376 563.946 778.776 575.946 776.846C577.846 776.536 577.036 773.646 575.146 773.956C563.406 775.846 551.616 777.406 539.796 778.646C537.896 778.846 537.876 781.846 539.796 781.646V781.636Z" fill="#0A0B22"/>
<path d="M606.146 771.116C618.076 767.776 630.006 764.436 641.936 761.086C643.796 760.566 643.006 757.666 641.136 758.196C629.206 761.536 617.276 764.876 605.346 768.226C603.486 768.746 604.276 771.646 606.146 771.116Z" fill="#0A0B22"/>
<path d="M666.365 755.266C677.535 755.176 688.395 750.876 696.625 743.326C698.055 742.016 695.925 739.906 694.505 741.206C686.865 748.216 676.735 752.176 666.365 752.266C664.435 752.286 664.435 755.286 666.365 755.266Z" fill="#0A0B22"/>
<path d="M713.662 739.936C722.912 738.006 731.782 734.416 739.772 729.366C741.402 728.336 739.892 725.736 738.262 726.776C730.472 731.706 721.892 735.166 712.872 737.046C710.982 737.436 711.782 740.336 713.672 739.936H713.662Z" fill="#0A0B22"/>
<path d="M750.525 723.726C753.025 725.316 755.755 723.746 757.825 722.186C760.585 720.096 763.345 717.996 766.105 715.906C771.625 711.716 777.135 707.526 782.655 703.346C784.175 702.196 782.685 699.586 781.145 700.756C776.155 704.546 771.165 708.336 766.175 712.126C763.745 713.966 761.315 715.816 758.885 717.656C757.705 718.556 756.545 719.516 755.305 720.346C754.395 720.966 753.115 721.816 752.055 721.136C750.425 720.096 748.915 722.686 750.545 723.726H750.525Z" fill="#0A0B22"/>
<path d="M804.383 687.876C812.503 680.476 819.793 672.226 826.183 663.286C827.313 661.716 824.703 660.216 823.593 661.776C817.353 670.496 810.183 678.526 802.263 685.756C800.833 687.056 802.963 689.176 804.383 687.876Z" fill="#0A0B22"/>
<path d="M840.894 647.736C845.764 639.466 850.644 631.206 855.514 622.936C856.494 621.266 853.904 619.756 852.924 621.426C848.054 629.696 843.174 637.956 838.304 646.226C837.324 647.896 839.914 649.406 840.894 647.736Z" fill="#0A0B22"/>
<path d="M866.996 602.596C871.656 591.586 874.746 580.046 876.226 568.186C876.466 566.276 873.466 566.296 873.226 568.186C871.826 579.476 868.846 590.606 864.406 601.086C864.086 601.836 864.186 602.686 864.946 603.136C865.576 603.506 866.686 603.346 866.996 602.596Z" fill="#0A0B22"/>
<path d="M877.672 551.426C879.752 550.996 880.802 549.006 881.262 547.106C881.942 544.316 882.232 541.366 882.392 538.506C882.732 532.616 882.162 526.696 880.772 520.966C880.322 519.086 877.422 519.886 877.882 521.766C879.062 526.636 879.602 531.606 879.472 536.616C879.412 539.086 879.202 541.546 878.802 543.986C878.602 545.246 878.482 548.196 876.872 548.536C874.982 548.926 875.782 551.826 877.672 551.426Z" fill="#0A0B22"/>
<path d="M872.146 496.286C869.186 487.306 865.586 478.546 861.376 470.086C860.516 468.356 857.926 469.876 858.786 471.596C862.886 479.836 866.376 488.346 869.256 497.076C869.856 498.906 872.756 498.116 872.146 496.276V496.286Z" fill="#0A0B22"/>
<path d="M839.015 445.976C839.245 445.536 838.845 446.216 838.745 445.986C838.745 445.986 839.235 446.056 839.295 446.086C839.655 446.226 840.175 446.586 840.515 446.926C841.795 448.196 842.845 449.786 843.975 451.186C846.405 454.216 848.835 457.246 851.265 460.276C851.775 460.906 852.855 460.806 853.385 460.276C854.005 459.656 853.895 458.786 853.385 458.156C850.535 454.596 847.675 451.036 844.825 447.476C843.685 446.056 842.635 444.406 840.955 443.556C839.395 442.756 837.365 442.706 836.435 444.456C835.505 446.206 838.125 447.676 839.025 445.966L839.015 445.976Z" fill="#0A0B22"/>
<path d="M800.643 423.906C805.683 422.676 810.743 425.316 814.303 428.746C818.223 432.526 821.023 437.276 824.443 441.476C825.663 442.976 827.773 440.836 826.563 439.356C822.813 434.746 819.803 429.396 815.213 425.526C810.963 421.956 805.433 419.646 799.853 421.006C797.983 421.466 798.773 424.356 800.653 423.896L800.643 423.906Z" fill="#0A0B22"/>
<path d="M785.026 411.026C777.086 409.106 769.526 405.966 762.556 401.706C760.906 400.696 759.396 403.286 761.046 404.296C768.216 408.686 776.056 411.946 784.236 413.926C786.116 414.376 786.916 411.486 785.036 411.036L785.026 411.026Z" fill="#0A0B22"/>
<path d="M738.396 394.856C730.726 392.806 723.056 390.756 715.396 388.706C713.526 388.206 712.736 391.096 714.596 391.596C722.266 393.646 729.936 395.696 737.596 397.746C739.466 398.246 740.256 395.356 738.396 394.856Z" fill="#0A0B22"/>
<path d="M689.466 385.986L691.976 387.826L693.136 385.086C682.766 383.236 672.396 381.356 662.036 379.446C660.146 379.096 659.336 381.986 661.236 382.336C671.596 384.246 681.966 386.126 692.336 387.976C694.046 388.286 694.876 386.256 693.496 385.236L690.986 383.396C689.426 382.246 687.936 384.856 689.476 385.986H689.466Z" fill="#0A0B22"/>
<path d="M638.814 374.316C629.764 373.196 620.754 371.806 611.774 370.176C609.884 369.836 609.074 372.726 610.974 373.066C620.214 374.746 629.494 376.156 638.804 377.316C640.714 377.556 640.694 374.556 638.804 374.316H638.814Z" fill="#0A0B22"/>
<path d="M590.213 367.106C579.913 366.586 569.653 365.516 559.473 363.866C557.583 363.556 556.773 366.446 558.673 366.756C569.113 368.446 579.643 369.576 590.213 370.106C592.143 370.206 592.133 367.206 590.213 367.106Z" fill="#0A0B22"/>
<path d="M532.794 355.096C523.624 352.956 514.444 350.826 505.274 348.686C503.394 348.246 502.594 351.136 504.474 351.576C513.644 353.716 522.824 355.846 531.994 357.986C533.874 358.426 534.674 355.536 532.794 355.096Z" fill="#0A0B22"/>
<path d="M486.223 336.896C478.343 334.516 470.573 331.816 462.923 328.786C461.123 328.076 460.353 330.976 462.123 331.676C469.773 334.706 477.543 337.406 485.423 339.786C487.273 340.346 488.063 337.446 486.223 336.896Z" fill="#0A0B22"/>
<path d="M436.984 312.666C428.364 307.636 420.104 302.016 412.274 295.816C410.774 294.626 408.644 296.736 410.154 297.936C418.184 304.286 426.624 310.086 435.464 315.246C437.134 316.226 438.644 313.626 436.974 312.656L436.984 312.666Z" fill="#0A0B22"/>
<path d="M399.924 289.326C391.724 282.996 384.354 275.536 378.124 267.246C376.974 265.726 374.374 267.216 375.534 268.756C382.104 277.486 389.764 285.236 398.414 291.906C399.064 292.406 400.084 291.996 400.464 291.366C400.924 290.596 400.564 289.806 399.924 289.316V289.326Z" fill="#0A0B22"/>
<path d="M364.103 257.365C358.323 247.875 352.533 238.375 346.753 228.885C345.753 227.235 343.153 228.745 344.163 230.395C349.943 239.885 355.733 249.385 361.513 258.875C362.513 260.525 365.113 259.015 364.103 257.365Z" fill="#0A0B22"/>
<path d="M339.864 217.286C336.944 206.456 334.554 195.496 332.704 184.436C332.384 182.536 329.494 183.346 329.814 185.236C331.654 196.296 334.044 207.266 336.974 218.086C337.474 219.946 340.374 219.156 339.864 217.286Z" fill="#0A0B22"/>
<path d="M330.122 171.026C329.632 159.406 329.132 147.776 328.642 136.156C328.562 134.236 325.562 134.226 325.642 136.156C326.132 147.776 326.632 159.406 327.122 171.026C327.202 172.946 330.202 172.956 330.122 171.026Z" fill="#0A0B22"/>
<path d="M328.466 119.646C329.376 110.206 330.866 100.846 332.896 91.5863C333.306 89.7063 330.416 88.8963 330.006 90.7863C327.916 100.306 326.406 109.946 325.466 119.646C325.276 121.566 328.286 121.556 328.466 119.646Z" fill="#0A0B22"/>
<path d="M341.494 71.6457C348.934 62.0857 356.044 52.2657 362.774 42.1957C363.854 40.5857 361.254 39.0857 360.184 40.6857C353.584 50.5457 346.654 60.1657 339.374 69.5257C338.204 71.0357 340.314 73.1657 341.494 71.6457Z" fill="#0A0B22"/>
<path d="M380.554 29.5956C380.784 29.2756 380.494 29.6356 380.774 29.3056C380.894 29.1656 381.024 29.0156 381.144 28.8756C381.514 28.4656 381.904 28.0856 382.304 27.7056C383.254 26.7956 384.264 25.9456 385.284 25.1156C387.904 22.9856 390.644 21.0056 393.394 19.0756C399.314 14.9156 405.394 10.9656 411.554 7.17561C413.824 5.78561 416.094 4.38561 418.434 3.12561C420.134 2.21561 418.624 -0.37439 416.924 0.53561C411.844 3.26561 406.974 6.44561 402.144 9.57561C395.914 13.6156 389.714 17.7756 383.904 22.4056C381.784 24.0956 379.554 25.8556 377.954 28.0856C376.834 29.6556 379.434 31.1556 380.544 29.5956H380.554Z" fill="#0A0B22"/>
<path d="M379.405 6.50582C380.105 7.68581 381.935 7.46582 383.095 7.43581C385.455 7.37581 387.805 7.16581 390.155 6.94582C396.775 6.34582 403.375 5.53581 409.955 4.58581C413.275 4.10581 416.595 3.58581 419.885 2.93581L418.425 0.425815C411.275 8.98582 404.135 17.5458 396.985 26.0958C395.755 27.5658 397.865 29.7058 399.105 28.2158C406.255 19.6558 413.395 11.0958 420.545 2.54581C421.515 1.38581 420.605 -0.264185 419.085 0.0358149C413.305 1.18581 407.455 1.97581 401.615 2.69581C395.775 3.41581 390.455 4.03582 384.855 4.34582C383.965 4.39582 383.065 4.44582 382.175 4.43581C381.875 4.43581 381.585 4.42582 381.295 4.40582C381.125 4.39581 381.545 4.57582 381.355 4.40582C380.965 4.06581 382.135 5.19581 381.995 4.97581C381.015 3.31581 378.425 4.82582 379.405 6.48582V6.50582Z" fill="#0A0B22"/>
</svg>
