<svg width="462" height="938" viewBox="0 0 462 938" fill="none" xmlns="http://www.w3.org/2000/svg">
<path d="M282.905 193.775C283.635 193.657 283.996 193.12 284.395 192.57C285.565 190.907 286.331 189.037 286.74 187.092C287.963 181.843 283.607 174.67 278.585 173.1C274.255 172.645 269.77 175.616 267.123 178.915C266.418 179.858 266.013 180.439 266.042 181.515C267.251 192.464 270.364 191.01 278.767 195.282C275.53 196.776 272.012 197.035 268.661 195.521C263.407 193.097 261.608 187.075 260.997 181.772C260.674 176.121 266.684 171.351 271.352 169.311C274.727 167.84 279.272 167.196 282.571 169.436C288.493 173.42 292.378 180.914 290.545 187.998C289.871 190.611 288.125 193.058 285.614 194.172C284.775 194.541 283.521 194.816 282.779 194.108C282.652 193.985 282.749 193.771 282.911 193.768L282.905 193.775Z" fill="#FFAD9B"/>
<path d="M223.476 244.556C226.111 242.527 227.89 240.211 229.029 237.284C231.062 231.811 228.207 225.009 223.326 222.036C218.215 218.74 211.833 220.782 207.492 224.594C205.431 226.477 203.494 228.308 203.968 231.172C204.62 237.5 208.63 242.502 214.65 244.645C211.203 246.761 206.467 245.124 203.878 242.266C200.206 238.111 197.244 230.416 200.245 225.241C203.454 220.244 208.45 216.722 214.375 215.494C227.056 212.958 237.548 227.159 232.667 238.756C231.175 242.289 227.51 245.303 223.581 244.905C223.4 244.889 223.346 244.652 223.482 244.55L223.476 244.556Z" fill="#FFAD9B"/>
<path d="M161.996 296.437C165.98 292.192 168.429 285.286 164.894 280.265C159.073 272.595 148.196 274.034 142.873 281.615C139.865 285.846 137.379 292.828 143.931 295.019C146.922 296.282 149.777 296.871 153.182 297.402C150.319 300.022 145.97 300.375 142.373 299.14C127.967 294.333 137.002 275.165 147.649 271.383C156.805 267.361 169.453 273.077 170.611 283.508C171.363 289.071 168.337 296.242 162.163 296.773C161.982 296.782 161.891 296.558 162.008 296.437L161.996 296.437Z" fill="#FFAD9B"/>
<path d="M232.688 137.68C235.738 129.964 230.651 120.306 222.641 118.499C216.197 116.857 209.818 121.576 211.171 128.35C212.304 136.341 217.048 139.761 224.952 139.529C222.922 142.651 218.466 143.393 215.098 141.986C208.36 139.059 205.098 130.593 206.151 123.614C206.875 119.743 209.566 116.499 212.987 114.715C221.536 110.339 231.856 115.583 235.491 123.868C237.708 128.239 238.346 135.7 232.93 137.952C232.762 138.011 232.616 137.832 232.688 137.68Z" fill="#FFAD9B"/>
<path d="M167.694 188.168C172.924 180.657 170.819 172.142 165.072 165.603C161.614 161.57 158.038 162.956 155.085 166.735C151.965 170.623 149.772 175.374 148.744 180.281C148.458 182.482 147.222 186.41 149.395 187.779C151.817 189.132 155.66 189.212 158.621 189.349C160.336 189.411 162.093 189.353 164.095 189.348C161.426 192.391 157.215 193.605 153.251 193.371C146.188 192.989 142.37 189.543 143.387 182.232C144.016 175.372 146.714 168.807 151.075 163.448C157.273 155.779 165.4 156.639 170.393 164.973C172.996 169.176 174.968 173.851 174.627 179.092C174.387 183.075 171.938 187.466 167.899 188.478C167.724 188.518 167.59 188.313 167.694 188.168Z" fill="#FFAD9B"/>
<path d="M101.665 236.3C105.142 231.6 107.674 225.662 104.839 220.124C103.708 217.77 101.647 215.486 99.2742 214.539C94.5121 212.803 88.0336 215.922 85.3955 220.228C81.7129 225.814 83.6851 234.668 90.8869 235.974C92.2175 236.254 93.6634 236.302 95.4459 235.849C93.9013 239.651 88.3935 240.335 85.1281 238.275C78.045 234.04 76.8646 224.166 81.0131 217.528C83.034 214.201 86.1626 211.727 89.6636 210.304C93.3023 208.892 97.4117 208.405 101.171 210.019C108.24 213.304 111.831 222.065 109.463 229.383C108.377 232.853 105.521 236.036 101.852 236.629C101.677 236.657 101.561 236.446 101.665 236.313L101.665 236.3Z" fill="#FFAD9B"/>
<path d="M110.356 128.297C113.295 125.726 113.741 121.621 111.393 118.628C108.664 115.153 101.799 113.004 97.5355 113.612C92.1097 114.757 89.0598 122.892 93.0821 127.03C95.9435 130.102 100.106 128.151 103.929 128.619C105.533 128.782 107.305 129.256 108.543 130.458C103.777 131.824 99.9193 134.059 94.7506 133.161C84.1412 130.742 83.691 116.992 91.458 110.932C95.7396 107.333 101.941 108.259 106.644 110.222C111.42 112.046 116.079 115.655 116.689 121.289C117.198 124.829 114.243 129.234 110.436 128.659C110.267 128.63 110.214 128.406 110.35 128.304L110.356 128.297Z" fill="#FFAD9B"/>
<path d="M45.985 176.361C48.8948 172.232 49.8155 166.875 47.172 162.485C44.5525 158.02 40.2317 156.921 35.4441 158.907C32.1099 160.183 29.353 162.415 28.7224 165.834C28.0434 169.366 30.9615 172.05 33.7461 173.754C36.0652 175.289 38.3985 176.937 40.6926 178.892C36.8956 178.931 33.2759 177.859 29.8912 176.189C19.4723 170.208 23.4411 157.429 33.6132 154.048C36.7488 152.875 40.3566 152.321 43.6839 153.503C50.3528 155.981 53.7911 163.312 52.5776 169.999C52.0931 173.153 49.6127 176.713 46.1402 176.696C45.9712 176.692 45.8806 176.494 45.985 176.361Z" fill="#FFAD9B"/>
<path d="M91.2216 338.728C91.9518 338.61 92.3128 338.073 92.7113 337.523C93.8813 335.86 94.6478 333.99 95.0565 332.045C96.2791 326.796 91.9235 319.623 86.9012 318.053C82.5712 317.599 78.0862 320.569 75.4393 323.868C74.7339 324.811 74.3297 325.392 74.3584 326.468C75.5674 337.417 78.68 335.963 87.0837 340.235C83.8466 341.729 80.3282 341.988 76.9771 340.474C71.723 338.051 69.9247 332.028 69.3134 326.725C68.9909 321.074 75.0005 316.305 79.6683 314.264C83.0435 312.793 87.5884 312.149 90.8878 314.39C96.8097 318.374 100.695 325.867 98.8615 332.951C98.1874 335.564 96.4411 338.011 93.9302 339.125C93.0912 339.494 91.8378 339.77 91.0952 339.061C90.9682 338.938 91.0651 338.724 91.2277 338.721L91.2216 338.728Z" fill="#FFAD9B"/>
<path d="M31.7769 389.514C34.4116 387.485 36.1912 385.169 37.3297 382.242C39.3623 376.769 36.5075 369.967 31.6268 366.994C26.516 363.698 20.1339 365.74 15.7929 369.552C13.7315 371.435 11.7945 373.266 12.2692 376.13C12.9209 382.458 16.9311 387.46 22.9506 389.603C19.5038 391.719 14.7682 390.082 12.179 387.224C8.50683 383.069 5.54481 375.374 8.54529 370.199C11.7549 365.202 16.7509 361.68 22.676 360.453C35.357 357.916 45.8491 372.117 40.968 383.714C39.4756 387.247 35.8109 390.261 31.8822 389.863C31.7005 389.847 31.6469 389.61 31.783 389.508L31.7769 389.514Z" fill="#FFAD9B"/>
<path d="M40.997 282.643C44.047 274.927 38.9596 265.269 30.9495 263.462C24.5059 261.819 18.1264 266.539 19.4793 273.313C20.6127 281.304 25.3562 284.724 33.2607 284.492C31.2304 287.613 26.7745 288.356 23.4063 286.949C16.6681 284.022 13.4068 275.556 14.4595 268.577C15.1835 264.706 17.8751 261.462 21.2956 259.678C29.8449 255.302 40.1651 260.546 43.7991 268.831C46.0169 273.202 46.6543 280.663 41.2388 282.915C41.0708 282.974 40.9242 282.795 40.997 282.643Z" fill="#FFAD9B"/>
<path d="M337.678 353.131C342.908 345.62 340.804 337.105 335.056 330.566C331.599 326.533 328.022 327.919 325.069 331.698C321.949 335.586 319.756 340.336 318.728 345.244C318.442 347.445 317.206 351.373 319.379 352.742C321.802 354.095 325.644 354.175 328.605 354.312C330.321 354.374 332.078 354.316 334.08 354.311C331.41 357.354 327.199 358.568 323.235 358.334C316.172 357.952 312.354 354.505 313.371 347.195C314 340.335 316.698 333.769 321.06 328.411C327.257 320.742 335.385 321.602 340.377 329.936C342.98 334.138 344.952 338.814 344.612 344.055C344.371 348.038 341.922 352.429 337.883 353.441C337.708 353.481 337.574 353.276 337.678 353.131Z" fill="#FFAD9B"/>
<path d="M271.65 401.263C275.126 396.563 277.659 390.625 274.823 385.087C273.693 382.733 271.631 380.449 269.259 379.502C264.496 377.766 258.018 380.885 255.38 385.191C251.697 390.777 253.669 399.631 260.871 400.937C262.202 401.217 263.648 401.264 265.43 400.812C263.886 404.614 258.378 405.298 255.112 403.238C248.029 399.002 246.849 389.129 250.997 382.491C253.018 379.164 256.147 376.69 259.648 375.267C263.287 373.855 267.396 373.368 271.155 374.982C278.224 378.267 281.815 387.028 279.448 394.346C278.361 397.816 275.506 400.999 271.836 401.592C271.661 401.62 271.545 401.409 271.65 401.276L271.65 401.263Z" fill="#FFAD9B"/>
<path d="M342.383 248.26C343.181 245.533 343.559 243.212 343.413 240.556C343.264 235.69 338.738 232.148 334.131 232.386C326.898 232.789 322.904 242.202 323.987 248.53C325.203 254.086 331.659 251.561 335.902 252.067C333.96 254.805 331.04 256.595 327.541 256.478C314.938 255.441 317.734 237.85 324.614 231.459C332.673 223.205 347.382 228.69 347.334 240.453C347.37 243.693 345.733 247.209 342.668 248.512C342.513 248.583 342.342 248.417 342.402 248.253L342.383 248.26Z" fill="#FFAD9B"/>
<path d="M280.344 293.259C283.284 290.687 283.729 286.583 281.382 283.59C278.652 280.115 271.788 277.966 267.524 278.574C262.098 279.719 259.048 287.854 263.07 291.992C265.932 295.064 270.094 293.113 273.918 293.581C275.522 293.744 277.293 294.218 278.531 295.42C273.765 296.786 269.908 299.021 264.739 298.123C254.129 295.704 253.679 281.954 261.446 275.894C265.728 272.295 271.929 273.221 276.632 275.184C281.408 277.008 286.067 280.617 286.677 286.251C287.187 289.791 284.231 294.196 280.425 293.621C280.255 293.592 280.202 293.368 280.338 293.265L280.344 293.259Z" fill="#FFAD9B"/>
<path d="M215.962 341.32C218.871 337.191 219.792 331.834 217.149 327.444C214.529 322.979 210.208 321.88 205.421 323.866C202.086 325.142 199.33 327.373 198.699 330.793C198.02 334.325 200.938 337.009 203.723 338.713C206.042 340.248 208.375 341.896 210.669 343.851C206.872 343.89 203.252 342.818 199.868 341.148C189.449 335.167 193.418 322.388 203.59 319.007C206.725 317.834 210.333 317.28 213.66 318.462C220.329 320.94 223.768 328.271 222.554 334.958C222.07 338.112 219.589 341.672 216.117 341.655C215.948 341.651 215.857 341.453 215.962 341.32Z" fill="#FFAD9B"/>
<path d="M210.981 447.606C214.031 439.89 208.944 430.232 200.934 428.425C194.49 426.782 188.111 431.501 189.464 438.276C190.597 446.267 195.341 449.686 203.245 449.455C201.215 452.576 196.759 453.319 193.391 451.912C186.653 448.985 183.391 440.519 184.444 433.54C185.168 429.669 187.859 426.425 191.28 424.641C199.829 420.265 210.149 425.509 213.784 433.794C216.001 438.165 216.639 445.626 211.223 447.878C211.055 447.937 210.909 447.757 210.981 447.606Z" fill="#FFAD9B"/>
<path d="M145.991 498.092C151.221 490.581 149.116 482.066 143.369 475.527C139.911 471.494 136.334 472.88 133.382 476.659C130.262 480.547 128.068 485.297 127.041 490.205C126.755 492.406 125.519 496.334 127.691 497.703C130.114 499.056 133.957 499.136 136.918 499.273C138.633 499.335 140.39 499.277 142.392 499.272C139.723 502.315 135.512 503.529 131.548 503.295C124.485 502.913 120.667 499.466 121.683 492.156C122.313 485.296 125.011 478.73 129.372 473.372C135.57 465.703 143.697 466.563 148.69 474.897C151.293 479.099 153.265 483.775 152.924 489.016C152.684 492.999 150.234 497.39 146.196 498.402C146.021 498.442 145.886 498.237 145.991 498.092Z" fill="#FFAD9B"/>
<path d="M150.692 393.223C151.489 390.496 151.867 388.175 151.721 385.518C151.573 380.653 147.047 377.111 142.439 377.349C135.207 377.752 131.213 387.165 132.296 393.492C133.512 399.049 139.968 396.524 144.211 397.03C142.269 399.768 139.349 401.557 135.85 401.441C123.247 400.404 126.042 382.813 132.922 376.422C140.982 368.168 155.691 373.653 155.642 385.416C155.678 388.656 154.042 392.172 150.977 393.475C150.822 393.546 150.65 393.38 150.71 393.216L150.692 393.223Z" fill="#FFAD9B"/>
<path d="M88.6451 438.216C91.5845 435.645 92.0297 431.54 89.6824 428.547C86.9526 425.072 80.0885 422.923 75.8246 423.531C70.3988 424.676 67.3488 432.811 71.3711 436.949C74.2326 440.021 78.395 438.07 82.2184 438.538C83.8225 438.701 85.5938 439.175 86.8318 440.377C82.0663 441.743 78.2084 443.978 73.0397 443.08C62.4303 440.661 61.98 426.911 69.747 420.851C74.0287 417.252 80.2301 418.178 84.933 420.141C89.7089 421.965 94.3676 425.574 94.9777 431.208C95.4875 434.748 92.5317 439.153 88.7255 438.578C88.5562 438.549 88.5028 438.325 88.6389 438.223L88.6451 438.216Z" fill="#FFAD9B"/>
<path d="M24.2819 486.272C27.1917 482.143 28.1123 476.786 25.4689 472.396C22.8494 467.931 18.5285 466.832 13.741 468.818C10.4067 470.095 7.64989 472.326 7.01923 475.745C6.34023 479.277 9.25839 481.961 12.043 483.665C14.3621 485.201 16.6954 486.848 18.9895 488.804C15.1925 488.842 11.5728 487.77 8.18807 486.1C-2.2308 480.119 1.73798 467.34 11.9101 463.96C15.0457 462.786 18.6535 462.232 21.9808 463.414C28.6497 465.892 32.088 473.223 30.8744 479.91C30.39 483.064 27.9096 486.624 24.4371 486.607C24.2681 486.604 24.1775 486.405 24.2819 486.272Z" fill="#FFAD9B"/>
<path d="M71.2222 652.503C73.8569 650.474 75.6365 648.158 76.7751 645.232C78.8076 639.758 75.9528 632.957 71.0721 629.983C65.9613 626.687 59.5792 628.729 55.2382 632.542C53.1769 634.424 51.2398 636.255 51.7145 639.12C52.3662 645.448 56.3764 650.449 62.3959 652.592C58.9491 654.708 54.2135 653.071 51.6244 650.214C47.9522 646.058 44.9901 638.363 47.9906 633.188C51.2002 628.191 56.1962 624.669 62.1213 623.442C74.8023 620.905 85.2944 635.106 80.4133 646.704C78.921 650.236 75.2562 653.25 71.3275 652.852C71.1458 652.836 71.0922 652.599 71.2283 652.497L71.2222 652.503Z" fill="#FFAD9B"/>
<path d="M9.74561 704.384C13.7298 700.138 16.1788 693.232 12.6437 688.211C6.82292 680.541 -4.05398 681.98 -9.377 689.561C-12.3854 693.792 -14.8708 700.774 -8.31885 702.965C-5.32816 704.228 -2.47271 704.817 0.932427 705.348C-1.93119 707.968 -6.28028 708.322 -9.87741 707.087C-24.2827 702.279 -15.2483 683.112 -4.60051 679.33C4.5547 675.307 17.2031 681.023 18.3606 691.454C19.1134 697.017 16.0866 704.188 9.91331 704.719C9.73201 704.728 9.64107 704.504 9.75813 704.383L9.74561 704.384Z" fill="#FFAD9B"/>
<path d="M80.4345 545.628C83.4845 537.912 78.3971 528.253 70.387 526.446C63.9434 524.804 57.5639 529.523 58.9168 536.297C60.0501 544.288 64.7937 547.708 72.6982 547.477C70.6679 550.598 66.212 551.34 62.8438 549.933C56.1056 547.006 52.8443 538.54 53.897 531.561C54.621 527.69 57.3126 524.447 60.733 522.662C69.2823 518.286 79.6026 523.53 83.2366 531.816C85.4544 536.187 86.0918 543.647 80.6763 545.899C80.5083 545.958 80.3617 545.779 80.4345 545.628Z" fill="#FFAD9B"/>
<path d="M15.4399 596.115C20.6701 588.604 18.5654 580.09 12.8179 573.551C9.36023 569.517 5.78363 570.903 2.83103 574.683C-0.288852 578.571 -2.48238 583.321 -3.50987 588.229C-3.79594 590.429 -5.03208 594.358 -2.85938 595.727C-0.436669 597.079 3.40591 597.159 6.3672 597.296C8.08235 597.358 9.83951 597.3 11.8415 597.295C9.17186 600.338 4.9608 601.553 0.997042 601.318C-6.0658 600.936 -9.88378 597.49 -8.86729 590.18C-8.23819 583.32 -5.54012 576.754 -1.17851 571.396C5.01908 563.726 13.1464 564.587 18.1388 572.92C20.7419 577.123 22.714 581.798 22.3734 587.04C22.1328 591.022 19.6837 595.413 15.6447 596.425C15.4702 596.465 15.3357 596.261 15.4399 596.115Z" fill="#FFAD9B"/>
<path d="M63.7155 749.265C66.6253 745.136 67.5459 739.779 64.9025 735.389C62.283 730.924 57.9621 729.825 53.1746 731.811C49.8403 733.088 47.0835 735.319 46.4528 738.738C45.7738 742.27 48.692 744.954 51.4766 746.658C53.7957 748.194 56.129 749.842 58.4231 751.797C54.6261 751.835 51.0064 750.763 47.6217 749.093C37.2028 743.112 41.1716 730.334 51.3437 726.953C54.4793 725.78 58.0871 725.225 61.4144 726.408C68.0832 728.885 71.5216 736.216 70.308 742.903C69.8236 746.058 67.3432 749.617 63.8707 749.6C63.7017 749.597 63.6111 749.398 63.7155 749.265Z" fill="#FFAD9B"/>
<path d="M-1.56212 801.171C-0.764685 798.444 -0.386577 796.123 -0.532783 793.467C-0.680832 788.601 -5.20721 785.059 -9.81454 785.297C-17.047 785.7 -21.0413 795.113 -19.9579 801.441C-18.7422 806.997 -12.286 804.473 -8.04286 804.978C-9.98504 807.716 -12.9049 809.506 -16.404 809.389C-29.0072 808.352 -26.2117 790.761 -19.3318 784.37C-11.2723 776.116 3.43717 781.601 3.38837 793.364C3.42446 796.604 1.78799 800.12 -1.27681 801.423C-1.43215 801.494 -1.60357 801.328 -1.54346 801.165L-1.56212 801.171Z" fill="#FFAD9B"/>
</svg>
