<svg width="621" height="785" viewBox="0 0 621 785" fill="none" xmlns="http://www.w3.org/2000/svg">
<path d="M556.939 88.0384C557.671 87.9321 558.04 87.4004 558.447 86.8561C559.642 85.2109 560.436 83.353 560.874 81.4137C562.175 76.1841 557.928 68.9463 552.929 67.3011C548.607 66.7819 544.078 69.6845 541.381 72.9437C540.662 73.8757 540.249 74.4513 540.262 75.5272C541.306 86.4933 544.44 85.0858 552.779 89.4835C549.52 90.9285 545.998 91.135 542.67 89.5711C537.453 87.0688 535.745 81.0196 535.213 75.7086C534.976 70.0536 541.056 65.3744 545.754 63.4039C549.151 61.9838 553.705 61.4083 556.97 63.6979C562.832 67.7703 566.604 75.3208 564.665 82.3771C563.952 84.9794 562.169 87.4004 559.642 88.4763C558.797 88.8329 557.54 89.0894 556.808 88.37C556.683 88.2449 556.783 88.0322 556.945 88.0322L556.939 88.0384Z" fill="#E1735A"/>
<path d="M496.754 137.923C499.419 135.934 501.233 133.644 502.415 130.735C504.53 125.293 501.777 118.449 496.942 115.403C491.881 112.031 485.469 113.977 481.071 117.724C478.982 119.575 477.018 121.377 477.449 124.248C478.006 130.585 481.941 135.646 487.927 137.879C484.449 139.943 479.739 138.236 477.193 135.339C473.583 131.129 470.737 123.391 473.815 118.262C477.099 113.313 482.147 109.867 488.09 108.728C500.808 106.382 511.086 120.739 506.031 132.262C504.486 135.771 500.776 138.73 496.854 138.273C496.673 138.254 496.623 138.017 496.76 137.917L496.754 137.923Z" fill="#E1735A"/>
<path d="M434.501 188.876C438.549 184.691 441.101 177.822 437.642 172.749C431.937 164.992 421.039 166.268 415.603 173.768C412.532 177.953 409.942 184.897 416.46 187.187C419.432 188.494 422.278 189.126 425.675 189.708C422.772 192.285 418.418 192.573 414.84 191.284C400.508 186.261 409.829 167.231 420.533 163.609C429.747 159.725 442.308 165.63 443.309 176.077C443.979 181.65 440.845 188.776 434.664 189.214C434.483 189.22 434.395 188.995 434.514 188.876H434.501Z" fill="#E1735A"/>
<path d="M507.568 31.1972C510.734 23.5278 505.792 13.7941 497.81 11.8673C491.391 10.1283 484.942 14.7512 486.193 21.5447C487.206 29.5519 491.898 33.0425 499.805 32.9299C497.728 36.0202 493.262 36.6958 489.915 35.2383C483.221 32.2106 480.087 23.6967 481.245 16.7342C482.027 12.8745 484.767 9.67162 488.213 7.93882C496.827 3.69127 507.068 9.08985 510.577 17.4286C512.729 21.8325 513.255 29.3017 507.806 31.4724C507.637 31.5287 507.493 31.3473 507.568 31.1972Z" fill="#E1735A"/>
<path d="M441.824 80.7046C447.167 73.273 445.19 64.7278 439.541 58.1032C436.144 54.0183 432.547 55.3507 429.538 59.0853C426.361 62.9262 424.096 67.643 422.995 72.5348C422.676 74.7306 421.381 78.6403 423.533 80.0416C425.935 81.4303 429.776 81.5679 432.735 81.7493C434.449 81.8369 436.207 81.8056 438.209 81.8307C435.494 84.8333 431.265 85.9844 427.305 85.6904C420.249 85.2024 416.483 81.6993 417.609 74.4053C418.341 67.5554 421.137 61.0308 425.579 55.7385C431.89 48.163 440.004 49.1451 444.871 57.5527C447.411 61.794 449.312 66.4982 448.893 71.7341C448.593 75.7127 446.078 80.0666 442.025 81.0174C441.849 81.055 441.718 80.8485 441.824 80.7046Z" fill="#E1735A"/>
<path d="M375.081 127.841C378.628 123.193 381.249 117.294 378.496 111.714C377.402 109.343 375.375 107.028 373.016 106.046C368.281 104.238 361.756 107.26 359.054 111.526C355.288 117.056 357.127 125.939 364.309 127.353C365.635 127.653 367.08 127.722 368.869 127.297C367.267 131.075 361.75 131.676 358.516 129.567C351.497 125.226 350.465 115.336 354.713 108.761C356.783 105.465 359.948 103.037 363.47 101.667C367.13 100.31 371.246 99.8846 374.981 101.555C381.999 104.945 385.459 113.759 382.982 121.041C381.843 124.494 378.94 127.634 375.262 128.172C375.087 128.197 374.974 127.985 375.081 127.853L375.081 127.841Z" fill="#E1735A"/>
<path d="M385.388 19.9805C388.366 17.4533 388.873 13.3558 386.571 10.3281C383.893 6.81248 377.062 4.56046 372.79 5.1047C367.347 6.16815 364.176 14.2566 368.136 18.4542C370.951 21.5694 375.142 19.6802 378.958 20.2057C380.559 20.3934 382.323 20.8938 383.543 22.1137C378.758 23.4086 374.867 25.5855 369.712 24.6097C359.14 22.0324 358.896 8.2763 366.753 2.33348C371.088 -1.20094 377.275 -0.181286 381.948 1.85179C386.696 3.74723 391.3 7.42554 391.826 13.0681C392.282 16.615 389.261 20.9752 385.464 20.3433C385.295 20.3121 385.245 20.0869 385.382 19.9868L385.388 19.9805Z" fill="#E1735A"/>
<path d="M320.307 67.0733C323.278 62.9884 324.279 57.6461 321.702 53.2171C319.15 48.7131 314.846 47.5496 310.029 49.4638C306.676 50.6899 303.886 52.8794 303.204 56.2887C302.472 59.8106 305.35 62.538 308.109 64.2833C310.404 65.8535 312.713 67.5362 314.977 69.5255C311.18 69.5067 307.577 68.3807 304.218 66.6604C293.89 60.5237 298.05 47.8061 308.271 44.5782C311.424 43.4522 315.04 42.9517 318.349 44.1841C324.98 46.7614 328.308 54.143 326.994 60.8115C326.463 63.958 323.929 67.4799 320.457 67.4111C320.288 67.4049 320.201 67.2047 320.307 67.0733Z" fill="#E1735A"/>
<path d="M363.102 230.1C363.833 229.994 364.203 229.462 364.609 228.918C365.804 227.273 366.598 225.415 367.036 223.476C368.338 218.246 364.09 211.008 359.092 209.363C354.769 208.844 350.24 211.747 347.544 215.006C346.824 215.938 346.412 216.513 346.424 217.589C347.469 228.555 350.603 227.148 358.942 231.546C355.682 232.991 352.16 233.197 348.833 231.633C343.615 229.131 341.908 223.082 341.376 217.771C341.138 212.116 347.219 207.436 351.917 205.466C355.313 204.046 359.867 203.47 363.133 205.76C368.994 209.832 372.766 217.383 370.827 224.439C370.114 227.041 368.331 229.462 365.804 230.538C364.959 230.895 363.702 231.151 362.97 230.432C362.845 230.307 362.945 230.094 363.108 230.094L363.102 230.1Z" fill="#E1735A"/>
<path d="M302.902 279.989C305.566 278 307.381 275.71 308.563 272.801C310.677 267.359 307.925 260.515 303.089 257.469C298.029 254.097 291.616 256.043 287.219 259.79C285.129 261.641 283.165 263.443 283.597 266.314C284.154 272.651 288.088 277.712 294.075 279.945C290.597 282.01 285.886 280.302 283.34 277.406C279.731 273.196 276.885 265.457 279.962 260.328C283.247 255.38 288.295 251.933 294.238 250.794C306.955 248.448 317.233 262.805 312.179 274.328C310.634 277.837 306.924 280.796 303.002 280.339C302.82 280.321 302.77 280.083 302.908 279.983L302.902 279.989Z" fill="#E1735A"/>
<path d="M240.66 330.948C244.707 326.763 247.259 319.894 243.8 314.821C238.095 307.064 227.198 308.34 221.761 315.84C218.69 320.025 216.1 326.969 222.618 329.258C225.59 330.566 228.436 331.198 231.833 331.779C228.93 334.357 224.576 334.645 220.998 333.356C206.667 328.333 215.987 309.303 226.691 305.681C235.905 301.796 248.467 307.702 249.467 318.149C250.137 323.722 247.003 330.847 240.822 331.285C240.641 331.292 240.553 331.066 240.672 330.947L240.66 330.948Z" fill="#E1735A"/>
<path d="M313.723 173.269C316.888 165.6 311.946 155.866 303.964 153.939C297.546 152.2 291.096 156.823 292.347 163.617C293.361 171.624 298.052 175.115 305.96 175.002C303.883 178.092 299.416 178.768 296.069 177.31C289.376 174.283 286.242 165.769 287.399 158.806C288.181 154.946 290.921 151.744 294.368 150.011C302.982 145.763 313.222 151.162 316.732 159.501C318.884 163.905 319.409 171.374 313.96 173.544C313.792 173.601 313.648 173.419 313.723 173.269Z" fill="#E1735A"/>
<path d="M247.983 222.773C253.325 215.342 251.348 206.796 245.699 200.172C242.303 196.087 238.706 197.419 235.697 201.154C232.519 204.995 230.254 209.712 229.153 214.603C228.834 216.799 227.539 220.709 229.691 222.11C232.094 223.499 235.934 223.637 238.893 223.818C240.607 223.906 242.365 223.874 244.367 223.899C241.652 226.902 237.423 228.053 233.464 227.759C226.407 227.271 222.641 223.768 223.767 216.474C224.499 209.624 227.295 203.099 231.737 197.807C238.049 190.232 246.162 191.214 251.029 199.621C253.569 203.863 255.471 208.567 255.052 213.803C254.751 217.781 252.237 222.135 248.183 223.086C248.008 223.124 247.876 222.917 247.983 222.773Z" fill="#E1735A"/>
<path d="M181.235 269.914C184.782 265.266 187.403 259.367 184.651 253.787C183.556 251.416 181.529 249.101 179.171 248.119C174.435 246.311 167.911 249.333 165.208 253.599C161.443 259.129 163.282 268.012 170.463 269.426C171.789 269.726 173.234 269.795 175.023 269.37C173.422 273.148 167.905 273.748 164.67 271.64C157.652 267.299 156.619 257.409 160.867 250.834C162.938 247.537 166.103 245.11 169.625 243.74C173.284 242.383 177.401 241.957 181.135 243.628C188.154 247.018 191.613 255.832 189.136 263.114C187.998 266.567 185.095 269.707 181.417 270.245C181.241 270.27 181.129 270.058 181.235 269.926L181.235 269.914Z" fill="#E1735A"/>
<path d="M254.253 117.988C255.091 115.273 255.504 112.959 255.397 110.3C255.322 105.433 250.849 101.824 246.239 101.992C239.001 102.286 234.866 111.639 235.855 117.982C236.987 123.556 243.48 121.128 247.715 121.698C245.732 124.406 242.786 126.152 239.289 125.983C226.703 124.757 229.762 107.21 236.737 100.923C244.919 92.7905 259.545 98.4956 259.32 110.256C259.307 113.497 257.618 116.987 254.534 118.245C254.378 118.313 254.209 118.144 254.271 117.982L254.253 117.988Z" fill="#E1735A"/>
<path d="M609.315 248.198C614.657 240.766 612.681 232.221 607.032 225.596C603.635 221.511 600.038 222.844 597.029 226.578C593.851 230.419 591.587 235.136 590.486 240.028C590.167 242.224 588.872 246.133 591.024 247.535C593.426 248.923 597.267 249.061 600.226 249.242C601.94 249.33 603.698 249.299 605.699 249.324C602.984 252.326 598.756 253.477 594.796 253.183C587.74 252.695 583.974 249.192 585.1 241.898C585.832 235.048 588.628 228.524 593.069 223.232C599.381 215.656 607.495 216.638 612.362 225.046C614.901 229.287 616.803 233.991 616.384 239.227C616.084 243.206 613.569 247.56 609.515 248.51C609.34 248.548 609.209 248.342 609.315 248.198Z" fill="#E1735A"/>
<path d="M542.571 295.335C546.118 290.687 548.739 284.788 545.987 279.208C544.892 276.837 542.865 274.523 540.507 273.541C535.772 271.733 529.247 274.754 526.545 279.021C522.779 284.551 524.618 293.434 531.799 294.847C533.125 295.148 534.571 295.216 536.36 294.791C534.758 298.569 529.241 299.17 526.007 297.062C518.988 292.72 517.956 282.83 522.203 276.256C524.274 272.959 527.439 270.532 530.961 269.162C534.621 267.804 538.737 267.379 542.471 269.049C549.49 272.44 552.949 281.254 550.472 288.535C549.334 291.988 546.431 295.129 542.753 295.667C542.578 295.692 542.465 295.479 542.571 295.348V295.335Z" fill="#E1735A"/>
<path d="M615.592 143.41C616.431 140.695 616.843 138.38 616.737 135.722C616.662 130.855 612.189 127.245 607.579 127.414C600.341 127.708 596.206 137.06 597.195 143.403C598.327 148.977 604.82 146.55 609.055 147.119C607.072 149.828 604.126 151.573 600.629 151.404C588.043 150.178 591.102 132.631 598.077 126.344C606.259 118.212 620.885 123.917 620.659 135.678C620.647 138.918 618.958 142.409 615.874 143.666C615.717 143.735 615.549 143.566 615.611 143.403L615.592 143.41Z" fill="#E1735A"/>
<path d="M552.887 187.474C555.864 184.946 556.371 180.849 554.069 177.821C551.391 174.306 544.56 172.053 540.288 172.598C534.845 173.661 531.674 181.75 535.634 185.947C538.449 189.062 542.64 187.173 546.456 187.699C548.057 187.886 549.821 188.387 551.041 189.607C546.256 190.902 542.365 193.079 537.21 192.103C526.638 189.525 526.394 175.769 534.251 169.826C538.586 166.292 544.773 167.312 549.446 169.345C554.194 171.24 558.798 174.919 559.324 180.561C559.78 184.108 556.759 188.468 552.962 187.836C552.793 187.805 552.743 187.58 552.88 187.48L552.887 187.474Z" fill="#E1735A"/>
<path d="M487.791 234.562C490.762 230.477 491.763 225.135 489.186 220.706C486.633 216.202 482.33 215.039 477.513 216.953C474.16 218.179 471.37 220.368 470.688 223.778C469.956 227.3 472.834 230.027 475.592 231.772C477.888 233.342 480.196 235.025 482.461 237.014C478.664 236.996 475.061 235.87 471.701 234.149C461.373 228.013 465.533 215.295 475.755 212.067C478.908 210.941 482.524 210.441 485.833 211.673C492.464 214.25 495.792 221.632 494.478 228.3C493.946 231.447 491.413 234.969 487.941 234.9C487.772 234.894 487.684 234.694 487.791 234.562Z" fill="#E1735A"/>
<path d="M481.217 340.763C484.382 333.093 479.441 323.36 471.458 321.433C465.04 319.694 458.591 324.317 459.842 331.11C460.855 339.118 465.547 342.608 473.454 342.496C471.377 345.586 466.911 346.262 463.564 344.804C456.87 341.776 453.736 333.262 454.894 326.3C455.676 322.44 458.415 319.237 461.862 317.505C470.476 313.257 480.717 318.656 484.226 326.994C486.378 331.398 486.903 338.867 481.455 341.038C481.286 341.094 481.142 340.913 481.217 340.763Z" fill="#E1735A"/>
<path d="M415.473 390.268C420.816 382.836 418.839 374.291 413.19 367.667C409.793 363.582 406.196 364.914 403.187 368.649C400.01 372.49 397.745 377.206 396.644 382.098C396.325 384.294 395.03 388.204 397.182 389.605C399.584 390.994 403.425 391.131 406.384 391.313C408.098 391.4 409.856 391.369 411.858 391.394C409.143 394.397 404.914 395.548 400.954 395.254C393.898 394.766 390.132 391.263 391.258 383.969C391.99 377.119 394.786 370.594 399.228 365.302C405.54 357.726 413.653 358.709 418.52 367.116C421.06 371.357 422.961 376.062 422.542 381.298C422.242 385.276 419.727 389.63 415.674 390.581C415.498 390.618 415.367 390.412 415.473 390.268Z" fill="#E1735A"/>
<path d="M421.747 285.481C422.585 282.766 422.998 280.452 422.892 277.793C422.817 272.926 418.344 269.317 413.733 269.486C406.496 269.78 402.361 279.132 403.349 285.475C404.481 291.049 410.975 288.622 415.21 289.191C413.227 291.9 410.28 293.645 406.784 293.476C394.197 292.25 397.256 274.703 404.231 268.416C412.414 260.284 427.039 265.989 426.814 277.749C426.801 280.99 425.112 284.48 422.028 285.738C421.872 285.807 421.703 285.638 421.766 285.475L421.747 285.481Z" fill="#E1735A"/>
<path d="M359.034 329.539C362.012 327.012 362.519 322.915 360.216 319.887C357.539 316.371 350.708 314.119 346.435 314.663C340.993 315.727 337.821 323.815 341.781 328.013C344.596 331.128 348.788 329.239 352.603 329.764C354.205 329.952 355.969 330.453 357.189 331.672C352.403 332.967 348.512 335.144 343.358 334.168C332.786 331.591 332.542 317.835 340.399 311.892C344.734 308.358 350.921 309.377 355.594 311.41C360.342 313.306 364.946 316.984 365.471 322.627C365.928 326.174 362.906 330.534 359.109 329.902C358.94 329.871 358.89 329.646 359.028 329.545L359.034 329.539Z" fill="#E1735A"/>
<path d="M293.957 376.624C296.928 372.539 297.929 367.197 295.352 362.768C292.8 358.264 288.496 357.1 283.679 359.015C280.326 360.241 277.536 362.43 276.854 365.839C276.122 369.361 279 372.089 281.758 373.834C284.054 375.404 286.362 377.087 288.627 379.076C284.83 379.058 281.227 377.932 277.867 376.211C267.539 370.074 271.699 357.357 281.921 354.129C285.074 353.003 288.69 352.502 291.999 353.735C298.63 356.312 301.958 363.694 300.644 370.362C300.112 373.509 297.579 377.031 294.107 376.962C293.938 376.956 293.85 376.755 293.957 376.624Z" fill="#E1735A"/>
<path d="M338.398 543.541C341.063 541.551 342.877 539.262 344.06 536.353C346.174 530.911 343.422 524.067 338.586 521.021C333.525 517.649 327.113 519.594 322.715 523.341C320.626 525.193 318.662 526.995 319.093 529.866C319.65 536.203 323.585 541.264 329.572 543.497C326.094 545.561 321.383 543.853 318.837 540.957C315.228 536.747 312.381 529.009 315.459 523.879C318.743 518.931 323.791 515.484 329.734 514.346C342.452 512 352.73 526.357 347.675 537.879C346.13 541.389 342.421 544.348 338.498 543.891C338.317 543.872 338.267 543.635 338.405 543.534L338.398 543.541Z" fill="#E1735A"/>
<path d="M276.149 594.493C280.197 590.308 282.749 583.44 279.29 578.366C273.585 570.609 262.687 571.885 257.251 579.386C254.18 583.571 251.59 590.515 258.108 592.804C261.08 594.112 263.926 594.743 267.323 595.325C264.42 597.903 260.066 598.19 256.488 596.902C242.156 591.878 251.477 572.849 262.181 569.227C271.395 565.342 283.956 571.247 284.957 581.694C285.627 587.268 282.493 594.393 276.312 594.831C276.131 594.837 276.043 594.612 276.162 594.493H276.149Z" fill="#E1735A"/>
<path d="M349.213 436.815C352.378 429.146 347.436 419.412 339.454 417.485C333.036 415.746 326.586 420.369 327.837 427.163C328.851 435.17 333.542 438.66 341.449 438.548C339.372 441.638 334.906 442.314 331.559 440.856C324.866 437.828 321.732 429.314 322.889 422.352C323.671 418.492 326.411 415.289 329.858 413.557C338.472 409.309 348.712 414.708 352.221 423.046C354.373 427.45 354.899 434.919 349.45 437.09C349.281 437.146 349.137 436.965 349.213 436.815Z" fill="#E1735A"/>
<path d="M283.469 486.322C288.811 478.89 286.834 470.345 281.185 463.72C277.789 459.636 274.192 460.968 271.183 464.703C268.005 468.544 265.74 473.26 264.639 478.152C264.32 480.348 263.025 484.258 265.177 485.659C267.579 487.048 271.42 487.185 274.379 487.367C276.093 487.454 277.851 487.423 279.853 487.448C277.138 490.451 272.909 491.602 268.949 491.308C261.893 490.82 258.127 487.317 259.253 480.023C259.985 473.173 262.781 466.648 267.223 461.356C273.535 453.78 281.648 454.762 286.515 463.17C289.055 467.411 290.957 472.115 290.538 477.351C290.237 481.33 287.723 485.684 283.669 486.635C283.494 486.672 283.362 486.466 283.469 486.322Z" fill="#E1735A"/>
<path d="M216.729 533.458C220.276 528.81 222.897 522.911 220.144 517.331C219.05 514.961 217.023 512.646 214.664 511.664C209.929 509.856 203.404 512.877 200.702 517.144C196.936 522.674 198.775 531.557 205.957 532.97C207.283 533.271 208.728 533.34 210.517 532.914C208.915 536.693 203.398 537.293 200.164 535.185C193.145 530.844 192.113 520.953 196.36 514.379C198.431 511.082 201.596 508.655 205.118 507.285C208.778 505.927 212.894 505.502 216.629 507.172C223.647 510.563 227.107 519.377 224.63 526.659C223.491 530.112 220.588 533.252 216.91 533.79C216.735 533.815 216.622 533.602 216.729 533.471L216.729 533.458Z" fill="#E1735A"/>
<path d="M227.04 425.599C230.018 423.071 230.524 418.974 228.222 415.946C225.545 412.431 218.714 410.179 214.441 410.723C208.999 411.786 205.827 419.875 209.787 424.072C212.602 427.188 216.793 425.298 220.609 425.824C222.211 426.012 223.975 426.512 225.195 427.732C220.409 429.027 216.518 431.204 211.363 430.228C200.792 427.651 200.548 413.895 208.405 407.952C212.74 404.417 218.927 405.437 223.599 407.47C228.347 409.365 232.952 413.044 233.477 418.686C233.934 422.233 230.912 426.593 227.115 425.962C226.946 425.93 226.896 425.705 227.034 425.605L227.04 425.599Z" fill="#E1735A"/>
<path d="M161.955 472.692C164.926 468.607 165.927 463.265 163.35 458.836C160.798 454.332 156.494 453.168 151.677 455.082C148.324 456.308 145.534 458.498 144.852 461.907C144.12 465.429 146.998 468.156 149.756 469.902C152.052 471.472 154.361 473.155 156.625 475.144C152.828 475.125 149.225 473.999 145.865 472.279C135.537 466.142 139.697 453.424 149.919 450.197C153.072 449.071 156.688 448.57 159.997 449.802C166.628 452.38 169.956 459.761 168.642 466.43C168.11 469.576 165.577 473.098 162.105 473.03C161.936 473.023 161.849 472.823 161.955 472.692Z" fill="#E1735A"/>
<path d="M204.746 635.719C205.478 635.612 205.847 635.081 206.253 634.536C207.448 632.891 208.243 631.033 208.681 629.094C209.982 623.864 205.734 616.627 200.736 614.981C196.413 614.462 191.884 617.365 189.188 620.624C188.469 621.556 188.056 622.131 188.068 623.207C189.113 634.174 192.247 632.766 200.586 637.164C197.327 638.609 193.805 638.815 190.477 637.251C185.26 634.749 183.552 628.7 183.02 623.389C182.782 617.734 188.863 613.055 193.561 611.084C196.958 609.664 201.512 609.089 204.777 611.378C210.639 615.451 214.411 623.001 212.472 630.057C211.758 632.66 209.976 635.081 207.448 636.157C206.604 636.513 205.346 636.77 204.614 636.05C204.489 635.925 204.589 635.712 204.752 635.712L204.746 635.719Z" fill="#E1735A"/>
<path d="M144.55 685.607C147.214 683.618 149.029 681.328 150.211 678.419C152.325 672.977 149.573 666.133 144.737 663.087C139.676 659.715 133.264 661.661 128.867 665.408C126.777 667.259 124.813 669.061 125.245 671.932C125.802 678.269 129.736 683.33 135.723 685.563C132.245 687.628 127.534 685.92 124.988 683.023C121.379 678.813 118.533 671.075 121.61 665.946C124.894 660.998 129.943 657.551 135.886 656.412C148.603 654.066 158.881 668.423 153.827 679.946C152.281 683.455 148.572 686.414 144.65 685.957C144.468 685.939 144.418 685.701 144.556 685.601L144.55 685.607Z" fill="#E1735A"/>
<path d="M82.3039 736.565C86.3513 732.38 88.9036 725.512 85.4442 720.438C79.7391 712.681 68.8419 713.957 63.4057 721.458C60.3342 725.643 57.7444 732.587 64.2628 734.876C67.2342 736.184 70.0804 736.815 73.4772 737.397C70.5746 739.975 66.2208 740.262 62.6426 738.974C48.311 733.95 57.6318 714.921 68.3351 711.299C77.5496 707.414 90.1109 713.319 91.1118 723.766C91.7811 729.34 88.6471 736.465 82.4666 736.903C82.2851 736.909 82.1976 736.684 82.3164 736.565H82.3039Z" fill="#E1735A"/>
<path d="M155.371 578.887C158.536 571.218 153.594 561.484 145.612 559.557C139.194 557.818 132.744 562.441 133.995 569.235C135.009 577.242 139.7 580.733 147.607 580.62C145.531 583.71 141.064 584.386 137.717 582.928C131.024 579.901 127.89 571.387 129.047 564.424C129.829 560.564 132.569 557.362 136.016 555.629C144.63 551.381 154.87 556.78 158.38 565.119C160.532 569.523 161.057 576.992 155.608 579.162C155.44 579.219 155.296 579.037 155.371 578.887Z" fill="#E1735A"/>
<path d="M89.6307 628.392C94.9729 620.96 92.9962 612.415 87.3474 605.79C83.9506 601.705 80.3536 603.038 77.3447 606.772C74.1668 610.613 71.9023 615.33 70.8013 620.222C70.4823 622.418 69.1874 626.327 71.3393 627.729C73.7414 629.117 77.5824 629.255 80.5413 629.436C82.2553 629.524 84.0131 629.493 86.0149 629.518C83.3 632.52 79.0712 633.671 75.1114 633.377C68.0551 632.889 64.2892 629.386 65.4152 622.092C66.1472 615.242 68.9434 608.718 73.3849 603.426C79.6968 595.85 87.8103 596.832 92.6772 605.24C95.2169 609.481 97.1186 614.185 96.6995 619.421C96.3992 623.4 93.8845 627.754 89.8308 628.704C89.6557 628.742 89.5243 628.536 89.6307 628.392Z" fill="#E1735A"/>
<path d="M22.8869 675.531C26.4338 670.883 29.0549 664.984 26.3024 659.404C25.2077 657.033 23.1809 654.718 20.8225 653.736C16.087 651.928 9.56245 654.95 6.86002 659.216C3.09415 664.746 4.93329 673.629 12.1147 675.043C13.4409 675.343 14.886 675.412 16.6751 674.986C15.0736 678.765 9.55618 679.365 6.32203 677.257C-0.696754 672.916 -1.72892 663.026 2.51863 656.451C4.58924 653.154 7.75457 650.727 11.2765 649.357C14.936 648 19.0522 647.574 22.7868 649.245C29.8056 652.635 33.2649 661.449 30.7877 668.731C29.6492 672.184 26.7466 675.324 23.0683 675.862C22.8931 675.887 22.7805 675.674 22.8869 675.543L22.8869 675.531Z" fill="#E1735A"/>
<path d="M95.9005 523.606C96.7387 520.891 97.1516 518.576 97.0452 515.918C96.9702 511.051 92.4974 507.442 87.887 507.61C80.6493 507.904 76.5144 517.257 77.5027 523.6C78.635 529.173 85.1283 526.746 89.3634 527.316C87.3803 530.024 84.4339 531.77 80.9371 531.601C68.3508 530.375 71.4098 512.828 78.3848 506.541C86.5671 498.408 101.193 504.114 100.967 515.874C100.955 519.114 99.266 522.605 96.182 523.862C96.0256 523.931 95.8567 523.762 95.9192 523.6L95.9005 523.606Z" fill="#E1735A"/>
<path d="M109.242 322.73C114.584 315.299 112.607 306.753 106.958 300.129C103.562 296.044 99.9645 297.376 96.9556 301.111C93.7778 304.952 91.5132 309.669 90.4122 314.56C90.0932 316.756 88.7983 320.666 90.9502 322.067C93.3524 323.456 97.1933 323.594 100.152 323.775C101.866 323.863 103.624 323.831 105.626 323.856C102.911 326.859 98.6821 328.01 94.7223 327.716C87.666 327.228 83.9002 323.725 85.0262 316.431C85.7581 309.581 88.5543 303.056 92.9958 297.764C99.3077 290.189 107.421 291.171 112.288 299.578C114.828 303.82 116.73 308.524 116.31 313.76C116.01 317.738 113.495 322.092 109.442 323.043C109.267 323.081 109.135 322.874 109.242 322.73Z" fill="#E1735A"/>
<path d="M162.296 374.579C165.843 369.931 168.464 364.032 165.712 358.452C164.617 356.081 162.59 353.766 160.232 352.784C155.496 350.976 148.972 353.998 146.269 358.264C142.504 363.794 144.343 372.677 151.524 374.091C152.85 374.391 154.295 374.46 156.084 374.035C154.483 377.813 148.966 378.413 145.731 376.305C138.713 371.964 137.68 362.074 141.928 355.499C143.999 352.203 147.164 349.775 150.686 348.405C154.345 347.048 158.462 346.623 162.196 348.293C169.215 351.683 172.674 360.497 170.197 367.779C169.059 371.232 166.156 374.372 162.478 374.91C162.303 374.935 162.19 374.723 162.296 374.591V374.579Z" fill="#E1735A"/>
<path d="M115.522 217.941C116.361 215.226 116.774 212.912 116.667 210.253C116.592 205.386 112.119 201.777 107.509 201.946C100.271 202.24 96.1364 211.592 97.1248 217.935C98.257 223.509 104.75 221.082 108.985 221.651C107.002 224.359 104.056 226.105 100.559 225.936C87.9728 224.71 91.0318 207.163 98.0068 200.876C106.189 192.744 120.815 198.449 120.59 210.209C120.577 213.45 118.888 216.94 115.804 218.198C115.648 218.267 115.479 218.098 115.541 217.935L115.522 217.941Z" fill="#E1735A"/>
<path d="M52.813 262.006C55.7907 259.478 56.2974 255.381 53.9953 252.353C51.3179 248.838 44.4868 246.586 40.2142 247.13C34.7718 248.193 31.6003 256.282 35.56 260.479C38.3751 263.595 42.5663 261.705 46.3822 262.231C47.9837 262.419 49.7478 262.919 50.9676 264.139C46.1821 265.434 42.2911 267.611 37.1365 266.635C26.5645 264.058 26.3205 250.301 34.1776 244.359C38.5127 240.824 44.6995 241.844 49.3724 243.877C54.1204 245.772 58.7245 249.451 59.25 255.093C59.7067 258.64 56.6852 263 52.8881 262.369C52.7192 262.337 52.6691 262.112 52.8067 262.012L52.813 262.006Z" fill="#E1735A"/>
<path d="M329.442 640.179C332.414 636.094 333.415 630.752 330.837 626.323C328.285 621.819 323.981 620.655 319.164 622.57C315.811 623.796 313.021 625.985 312.34 629.394C311.608 632.916 314.485 635.644 317.244 637.389C319.54 638.959 321.848 640.642 324.113 642.631C320.315 642.613 316.712 641.487 313.353 639.766C303.025 633.629 307.185 620.912 317.407 617.684C320.559 616.558 324.175 616.058 327.484 617.29C334.115 619.867 337.443 627.249 336.13 633.917C335.598 637.064 333.064 640.586 329.593 640.517C329.424 640.511 329.336 640.31 329.442 640.179Z" fill="#E1735A"/>
<path d="M106.993 416.928C110.158 409.258 105.217 399.525 97.2344 397.598C90.8161 395.859 84.3666 400.482 85.6177 407.275C86.6311 415.282 91.3228 418.773 99.2299 418.66C97.153 421.751 92.6865 422.426 89.3398 420.969C82.6463 417.941 79.5122 409.427 80.6695 402.465C81.4515 398.605 84.1914 395.402 87.6383 393.669C96.2522 389.422 106.493 394.82 110.002 403.159C112.154 407.563 112.679 415.032 107.231 417.203C107.062 417.259 106.918 417.078 106.993 416.928Z" fill="#E1735A"/>
<path d="M41.2458 466.433C46.5881 459.001 44.6113 450.456 38.9625 443.831C35.5657 439.746 31.9687 441.079 28.9598 444.813C25.7819 448.654 23.5174 453.371 22.4164 458.263C22.0974 460.459 20.8025 464.368 22.9544 465.77C25.3566 467.158 29.1975 467.296 32.1564 467.477C33.8704 467.565 35.6283 467.534 37.6301 467.559C34.9151 470.561 30.6863 471.712 26.7265 471.418C19.6702 470.93 15.9043 467.427 17.0304 460.133C17.7623 453.283 20.5585 446.759 25 441.467C31.3119 433.891 39.4254 434.873 44.2923 443.281C46.832 447.522 48.7337 452.226 48.3146 457.462C48.0143 461.441 45.4996 465.795 41.446 466.745C41.2708 466.783 41.1394 466.577 41.2458 466.433Z" fill="#E1735A"/>
<path d="M263.395 691.1C264.233 688.385 264.646 686.07 264.54 683.412C264.465 678.545 259.992 674.935 255.381 675.104C248.144 675.398 244.009 684.75 244.997 691.093C246.129 696.667 252.623 694.24 256.858 694.809C254.875 697.518 251.928 699.263 248.431 699.094C235.845 697.868 238.904 680.321 245.879 674.034C254.061 665.902 268.687 671.607 268.462 683.368C268.449 686.608 266.76 690.099 263.676 691.356C263.52 691.425 263.351 691.256 263.414 691.093L263.395 691.1Z" fill="#E1735A"/>
<path d="M200.686 735.158C203.663 732.631 204.17 728.533 201.868 725.505C199.191 721.99 192.359 719.738 188.087 720.282C182.645 721.345 179.473 729.434 183.433 733.631C186.248 736.747 190.439 734.858 194.255 735.383C195.856 735.571 197.62 736.071 198.84 737.291C194.055 738.586 190.164 740.763 185.009 739.787C174.437 737.21 174.193 723.454 182.05 717.511C186.385 713.976 192.572 714.996 197.245 717.029C201.993 718.925 206.597 722.603 207.123 728.245C207.579 731.792 204.558 736.153 200.761 735.521C200.592 735.489 200.542 735.264 200.679 735.164L200.686 735.158Z" fill="#E1735A"/>
<path d="M135.608 782.242C138.58 778.157 139.581 772.815 137.003 768.386C134.451 763.882 130.147 762.718 125.33 764.632C121.977 765.858 119.187 768.048 118.506 771.457C117.774 774.979 120.651 777.706 123.41 779.452C125.706 781.022 128.014 782.705 130.279 784.694C126.481 784.675 122.878 783.549 119.519 781.829C109.191 775.692 113.351 762.975 123.573 759.747C126.725 758.621 130.341 758.12 133.65 759.353C140.281 761.93 143.609 769.311 142.296 775.98C141.764 779.126 139.23 782.648 135.759 782.58C135.59 782.573 135.502 782.373 135.608 782.242Z" fill="#E1735A"/>
</svg>
