<svg width="922" height="682" viewBox="0 0 922 682" fill="none" xmlns="http://www.w3.org/2000/svg">
<path d="M768.724 250.996C769.358 251.205 769.871 250.925 770.419 250.649C772.047 249.801 773.438 248.62 774.573 247.23C777.732 243.53 777.218 235.97 773.843 232.627C770.56 230.465 765.731 230.985 762.239 232.531C761.282 232.994 760.717 233.293 760.293 234.167C756.717 243.447 759.817 243.573 764.781 250.487C761.565 250.341 758.637 249.088 756.579 246.483C753.372 242.359 754.431 236.784 756.142 232.279C758.229 227.614 765.027 226.285 769.617 226.586C772.933 226.808 776.844 228.179 778.56 231.344C781.654 236.997 781.658 244.617 777.247 249.536C775.622 251.351 773.206 252.589 770.731 252.439C769.905 252.387 768.786 252.087 768.484 251.211C768.434 251.06 768.6 250.928 768.732 250.994L768.724 250.996Z" fill="#A3D0E3"/>
<path d="M839.365 229.874C839.999 230.083 840.511 229.802 841.059 229.526C842.688 228.679 844.078 227.498 845.214 226.108C848.373 222.407 847.858 214.848 844.483 211.504C841.2 209.342 836.372 209.862 832.88 211.408C831.923 211.871 831.357 212.17 830.934 213.044C827.358 222.325 830.457 222.451 835.421 229.365C832.206 229.218 829.277 227.966 827.219 225.361C824.013 221.237 825.071 215.661 826.782 211.156C828.87 206.492 835.668 205.162 840.257 205.464C843.574 205.686 847.485 207.056 849.2 210.222C852.294 215.874 852.299 223.495 847.888 228.414C846.263 230.229 843.847 231.466 841.371 231.317C840.545 231.264 839.426 230.965 839.125 230.089C839.074 229.937 839.241 229.806 839.372 229.871L839.365 229.874Z" fill="#A3D0E3"/>
<path d="M699.996 267.04C702.951 266.507 705.339 265.389 707.467 263.515C711.368 259.971 711.903 253.332 709.224 248.922C706.495 244.158 700.53 243.146 695.467 244.401C693.033 245.054 690.72 245.718 689.911 248.212C687.807 253.556 688.946 259.23 692.883 263.447C689.241 263.713 686.124 260.435 685.234 257.069C684.015 252.213 684.834 244.814 689.388 241.91C694.036 239.237 699.503 238.487 704.763 239.962C715.983 243.193 718.5 258.934 709.773 266.206C707.11 268.418 702.92 269.313 699.936 267.364C699.797 267.275 699.852 267.063 700.004 267.038L699.996 267.04Z" fill="#A3D0E3"/>
<path d="M629.164 283.114C634.121 281.364 638.951 276.844 638.201 271.351C636.719 262.784 627.401 259.423 619.986 263.292C615.818 265.435 610.927 270.001 615.27 274.478C617.144 276.732 619.188 278.389 621.698 280.228C618.314 281.141 614.681 279.618 612.31 277.135C602.756 267.3 617.956 255.683 628.063 257.071C637.073 257.647 644.841 267.48 641.439 276.324C639.733 281.096 634.329 285.589 629.16 283.452C629.011 283.384 629.031 283.167 629.175 283.119L629.164 283.114Z" fill="#A3D0E3"/>
<path d="M751.746 185.176C757.395 180.256 757.325 170.4 751.653 165.627C747.169 161.635 740.095 162.77 738.368 168.763C735.959 175.64 738.343 180.351 744.776 183.447C741.853 185.107 737.972 183.852 735.856 181.326C731.668 176.182 732.568 168.041 736.309 162.882C738.497 160.079 742.001 158.596 745.484 158.585C754.155 158.625 760.252 167.114 759.727 175.265C759.69 179.691 757.104 185.937 751.828 185.494C751.668 185.472 751.625 185.267 751.746 185.176Z" fill="#A3D0E3"/>
<path d="M678.682 198.675C685.993 194.824 687.84 187.124 685.947 179.495C684.849 174.826 681.406 174.452 677.47 176.257C673.355 178.079 669.624 180.977 666.763 184.485C665.62 186.131 662.998 188.767 664.172 190.767C665.553 192.857 668.6 194.516 670.918 195.855C672.267 196.617 673.7 197.3 675.307 198.127C671.903 199.459 668.023 198.684 664.943 196.851C659.439 193.612 657.808 189.264 661.658 183.825C665.01 178.587 669.899 174.442 675.62 171.957C683.772 168.381 689.931 172.444 690.475 181.198C690.817 185.649 690.457 190.215 688.008 194.277C686.162 197.37 682.376 199.874 678.718 199.008C678.561 198.968 678.538 198.748 678.682 198.675Z" fill="#A3D0E3"/>
<path d="M820.666 172.25C827.978 168.399 829.825 160.699 827.931 153.07C826.833 148.401 823.39 148.028 819.454 149.832C815.339 151.654 811.608 154.552 808.747 158.06C807.604 159.706 804.983 162.342 806.156 164.342C807.537 166.432 810.585 168.091 812.902 169.43C814.252 170.192 815.684 170.875 817.291 171.702C813.888 173.034 810.008 172.259 806.927 170.426C801.423 167.188 799.792 162.84 803.642 157.401C806.994 152.162 811.883 148.018 817.604 145.532C825.757 141.956 831.916 146.02 832.459 154.774C832.801 159.224 832.442 163.791 829.993 167.852C828.147 170.945 824.36 173.449 820.702 172.583C820.545 172.543 820.522 172.323 820.666 172.25Z" fill="#A3D0E3"/>
<path d="M605.764 209.855C610.503 207.529 614.998 203.82 615.023 198.203C615.094 195.846 614.39 193.159 612.88 191.415C609.783 188.046 603.294 187.857 599.392 190.215C594.12 193.164 592.026 201.082 597.258 205.119C598.208 205.896 599.348 206.534 600.965 206.911C598.148 209.318 593.449 207.58 591.685 204.573C587.765 198.237 590.917 189.831 596.999 186.231C600 184.402 603.536 183.717 606.933 184.03C610.437 184.408 613.934 185.724 616.278 188.578C620.581 194.146 619.824 202.661 614.888 207.546C612.576 209.876 608.965 211.244 605.777 210.196C605.625 210.145 605.62 209.928 605.759 209.865L605.764 209.855Z" fill="#A3D0E3"/>
<path d="M657.562 126.87C660.986 126.028 663.047 122.922 662.407 119.548C661.661 115.629 657.05 111.056 653.379 109.774C648.553 108.44 642.731 113.696 644.238 118.683C645.257 122.334 649.404 122.497 652.276 124.46C653.494 125.257 654.717 126.372 655.211 127.85C650.823 126.967 646.802 127.157 643.031 124.291C635.529 117.948 640.876 106.736 649.619 105.102C654.546 103.994 659.133 107.311 662.089 110.837C665.161 114.282 667.398 119.11 665.548 123.88C664.487 126.929 660.289 129.234 657.476 127.193C657.352 127.1 657.403 126.898 657.554 126.872L657.562 126.87Z" fill="#A3D0E3"/>
<path d="M586.003 138.685C590.05 136.582 593.011 132.67 592.714 128.053C592.468 123.385 589.46 120.711 584.797 120.316C581.594 119.955 578.457 120.599 576.532 123.079C574.521 125.629 575.747 128.992 577.272 131.514C578.494 133.708 579.681 135.998 580.708 138.518C577.648 136.972 575.191 134.61 573.171 131.866C567.3 122.746 575.787 114.148 585.346 115.66C588.347 116.021 591.469 117.074 593.646 119.404C597.964 124.158 597.678 131.463 593.929 136.321C592.231 138.649 588.765 140.473 585.988 139.018C585.854 138.945 585.864 138.748 586.003 138.685Z" fill="#A3D0E3"/>
<path d="M554.869 287.641C555.503 287.85 556.015 287.569 556.563 287.293C558.191 286.446 559.582 285.265 560.718 283.875C563.877 280.174 563.362 272.615 559.987 269.271C556.704 267.11 551.875 267.629 548.384 269.175C547.427 269.639 546.861 269.937 546.438 270.811C542.862 280.092 545.961 280.218 550.925 287.132C547.71 286.985 544.781 285.733 542.723 283.128C539.517 279.004 540.575 273.428 542.286 268.923C544.373 264.259 551.172 262.929 555.761 263.231C559.078 263.453 562.989 264.823 564.704 267.989C567.798 273.642 567.803 281.262 563.392 286.181C561.767 287.996 559.351 289.233 556.875 289.084C556.049 289.032 554.93 288.732 554.629 287.856C554.578 287.704 554.745 287.573 554.876 287.638L554.869 287.641Z" fill="#A3D0E3"/>
<path d="M486.125 303.681C489.08 303.148 491.468 302.03 493.596 300.156C497.497 296.612 498.032 289.973 495.353 285.563C492.624 280.8 486.659 279.787 481.596 281.042C479.162 281.696 476.849 282.359 476.04 284.853C473.936 290.197 475.075 295.871 479.012 300.088C475.37 300.354 472.252 297.076 471.363 293.71C470.144 288.854 470.963 281.455 475.517 278.552C480.165 275.878 485.632 275.128 490.892 276.603C502.112 279.834 504.629 295.575 495.901 302.847C493.239 305.059 489.049 305.955 486.065 304.005C485.926 303.916 485.981 303.704 486.132 303.679L486.125 303.681Z" fill="#A3D0E3"/>
<path d="M415.305 319.764C420.262 318.014 425.092 313.493 424.342 308.001C422.859 299.434 413.541 296.073 406.126 299.942C401.958 302.085 397.067 306.651 401.411 311.128C403.284 313.381 405.329 315.039 407.839 316.878C404.455 317.79 400.822 316.268 398.45 313.785C388.897 303.95 404.097 292.333 414.203 293.721C423.214 294.297 430.981 304.13 427.579 312.973C425.874 317.746 420.47 322.239 415.3 320.102C415.151 320.034 415.171 319.817 415.315 319.769L415.305 319.764Z" fill="#A3D0E3"/>
<path d="M537.883 221.825C543.531 216.905 543.462 207.049 537.79 202.276C533.306 198.284 526.232 199.419 524.505 205.412C522.096 212.289 524.479 217 530.913 220.096C527.99 221.756 524.109 220.501 521.992 217.975C517.805 212.831 518.705 204.689 522.446 199.531C524.633 196.728 528.138 195.245 531.621 195.234C540.292 195.274 546.389 203.763 545.863 211.914C545.827 216.34 543.241 222.586 537.964 222.143C537.805 222.121 537.762 221.916 537.883 221.825Z" fill="#A3D0E3"/>
<path d="M464.819 235.323C472.13 231.472 473.977 223.772 472.084 216.143C470.986 211.474 467.543 211.1 463.607 212.905C459.491 214.727 455.761 217.625 452.9 221.133C451.757 222.778 449.135 225.415 450.309 227.415C451.69 229.505 454.737 231.164 457.054 232.503C458.404 233.265 459.837 233.948 461.444 234.775C458.04 236.107 454.16 235.332 451.079 233.499C445.575 230.26 443.945 225.912 447.794 220.473C451.146 215.234 456.035 211.09 461.756 208.605C469.909 205.029 476.068 209.092 476.611 217.846C476.954 222.296 476.594 226.863 474.145 230.925C472.299 234.018 468.512 236.522 464.854 235.656C464.698 235.616 464.675 235.396 464.819 235.323Z" fill="#A3D0E3"/>
<path d="M391.893 246.504C396.632 244.179 401.127 240.469 401.152 234.852C401.223 232.495 400.519 229.808 399.009 228.065C395.912 224.695 389.423 224.507 385.52 226.864C380.249 229.814 378.155 237.732 383.387 241.768C384.337 242.545 385.477 243.183 387.094 243.561C384.277 245.968 379.577 244.229 377.814 241.222C373.894 234.886 377.046 226.48 383.128 222.88C386.129 221.052 389.665 220.367 393.062 220.679C396.566 221.058 400.063 222.373 402.406 225.228C406.71 230.796 405.953 239.311 401.016 244.195C398.705 246.526 395.094 247.893 391.906 246.845C391.754 246.795 391.749 246.577 391.888 246.514L391.893 246.504Z" fill="#A3D0E3"/>
<path d="M512.117 153.195C513.888 151.339 515.154 149.636 516.14 147.445C518.041 143.483 515.882 138.764 512.09 137.042C506.124 134.363 499.014 140.252 497.256 145.775C495.924 150.734 502.148 151.39 505.34 153.557C502.646 154.946 499.563 155.169 496.806 153.623C487.131 147.559 496.675 134.616 504.844 132.348C514.732 129.076 524.249 139.58 519.327 148.991C518.01 151.603 515.239 153.743 512.241 153.516C512.087 153.508 512.018 153.304 512.134 153.197L512.117 153.195Z" fill="#A3D0E3"/>
<path d="M746.487 401.497C753.798 397.647 755.645 389.946 753.752 382.318C752.654 377.648 749.211 377.275 745.275 379.08C741.159 380.902 737.429 383.8 734.568 387.308C733.425 388.953 730.803 391.59 731.977 393.589C733.357 395.68 736.405 397.339 738.722 398.678C740.072 399.44 741.505 400.123 743.112 400.95C739.708 402.281 735.828 401.507 732.747 399.673C727.243 396.435 725.613 392.087 729.462 386.648C732.814 381.409 737.703 377.265 743.424 374.78C751.577 371.204 757.736 375.267 758.279 384.021C758.622 388.471 758.262 393.038 755.813 397.099C753.967 400.193 750.18 402.696 746.522 401.831C746.366 401.791 746.343 401.571 746.487 401.497Z" fill="#A3D0E3"/>
<path d="M673.569 412.678C678.307 410.352 682.803 406.643 682.828 401.026C682.899 398.669 682.194 395.982 680.685 394.238C677.588 390.869 671.099 390.68 667.196 393.038C661.925 395.988 659.831 403.905 665.063 407.942C666.013 408.719 667.153 409.357 668.769 409.735C665.953 412.142 661.253 410.403 659.49 407.396C655.57 401.06 658.722 392.654 664.803 389.054C667.805 387.226 671.34 386.54 674.738 386.853C678.241 387.231 681.738 388.547 684.082 391.401C688.386 396.969 687.628 405.485 682.692 410.369C680.381 412.7 676.77 414.067 673.581 413.019C673.43 412.968 673.425 412.751 673.563 412.688L673.569 412.678Z" fill="#A3D0E3"/>
<path d="M793.792 319.371C795.564 317.515 796.83 315.812 797.816 313.621C799.717 309.659 797.558 304.94 793.765 303.218C787.8 300.539 780.69 306.427 778.932 311.95C777.6 316.91 783.824 317.566 787.016 319.733C784.322 321.122 781.238 321.344 778.481 319.798C768.807 313.735 778.351 300.792 786.52 298.524C796.408 295.252 805.924 305.756 801.002 315.166C799.686 317.779 796.915 319.919 793.916 319.691C793.762 319.684 793.694 319.479 793.81 319.373L793.792 319.371Z" fill="#A3D0E3"/>
<path d="M725.374 329.696C728.798 328.854 730.859 325.748 730.22 322.374C729.474 318.455 724.863 313.882 721.191 312.6C716.366 311.265 710.544 316.522 712.051 321.509C713.069 325.16 717.217 325.323 720.088 327.286C721.306 328.083 722.53 329.198 723.023 330.675C718.635 329.793 714.614 329.983 710.843 327.117C703.341 320.774 708.689 309.562 717.431 307.928C722.358 306.82 726.946 310.137 729.901 313.663C732.973 317.108 735.21 321.935 733.361 326.706C732.3 329.755 728.102 332.06 725.289 330.019C725.165 329.926 725.215 329.724 725.367 329.698L725.374 329.696Z" fill="#A3D0E3"/>
<path d="M653.803 341.501C657.85 339.399 660.812 335.486 660.515 330.869C660.268 326.202 657.26 323.527 652.597 323.132C649.394 322.771 646.258 323.416 644.333 325.895C642.322 328.445 643.548 331.809 645.073 334.331C646.295 336.524 647.481 338.814 648.509 341.334C645.449 339.788 642.992 337.426 640.971 334.683C635.101 325.562 643.588 316.964 653.146 318.477C656.147 318.838 659.27 319.891 661.447 322.22C665.765 326.975 665.479 334.28 661.73 339.137C660.032 341.465 656.566 343.289 653.788 341.835C653.655 341.761 653.664 341.564 653.803 341.501Z" fill="#A3D0E3"/>
<path d="M605.688 424.65C611.336 419.73 611.267 409.874 605.595 405.1C601.11 401.108 594.037 402.244 592.309 408.236C589.901 415.114 592.284 419.825 598.718 422.921C595.794 424.58 591.913 423.326 589.797 420.799C585.61 415.656 586.509 407.514 590.251 402.356C592.438 399.553 595.942 398.069 599.426 398.059C608.097 398.099 614.194 406.588 613.668 414.739C613.632 419.164 611.046 425.41 605.769 424.968C605.61 424.945 605.567 424.741 605.688 424.65Z" fill="#A3D0E3"/>
<path d="M532.623 438.147C539.935 434.296 541.782 426.596 539.888 418.967C538.79 414.298 535.347 413.925 531.411 415.729C527.296 417.551 523.565 420.449 520.704 423.957C519.562 425.603 516.94 428.239 518.113 430.239C519.494 432.329 522.542 433.988 524.859 435.327C526.209 436.089 527.641 436.772 529.248 437.599C525.845 438.931 521.965 438.156 518.884 436.323C513.38 433.085 511.749 428.737 515.599 423.298C518.951 418.059 523.84 413.915 529.561 411.429C537.714 407.853 543.873 411.917 544.416 420.671C544.758 425.121 544.399 429.688 541.95 433.749C540.104 436.842 536.317 439.346 532.659 438.48C532.502 438.44 532.479 438.22 532.623 438.147Z" fill="#A3D0E3"/>
<path d="M579.925 356.019C581.697 354.164 582.963 352.46 583.949 350.269C585.85 346.307 583.691 341.588 579.898 339.867C573.932 337.187 566.823 343.076 565.064 348.599C563.733 353.558 569.957 354.214 573.149 356.381C570.455 357.77 567.371 357.993 564.614 356.447C554.94 350.383 564.484 337.44 572.653 335.173C582.541 331.901 592.057 342.404 587.135 351.815C585.819 354.428 583.048 356.567 580.049 356.34C579.895 356.332 579.827 356.128 579.943 356.022L579.925 356.019Z" fill="#A3D0E3"/>
<path d="M511.503 366.337C514.927 365.495 516.988 362.389 516.349 359.015C515.603 355.096 510.991 350.523 507.32 349.241C502.495 347.906 496.673 353.163 498.18 358.15C499.198 361.801 503.346 361.964 506.217 363.927C507.435 364.724 508.659 365.839 509.152 367.316C504.764 366.434 500.743 366.624 496.972 363.758C489.47 357.415 494.817 346.203 503.56 344.569C508.487 343.461 513.074 346.778 516.03 350.304C519.102 353.749 521.339 358.576 519.489 363.347C518.429 366.396 514.23 368.701 511.417 366.66C511.294 366.567 511.344 366.365 511.495 366.339L511.503 366.337Z" fill="#A3D0E3"/>
<path d="M439.952 378.147C443.999 376.044 446.961 372.132 446.663 367.515C446.417 362.847 443.409 360.173 438.746 359.778C435.543 359.417 432.406 360.061 430.481 362.541C428.471 365.091 429.696 368.454 431.221 370.976C432.443 373.17 433.63 375.46 434.658 377.98C431.597 376.434 429.14 374.072 427.12 371.328C421.249 362.208 429.736 353.61 439.295 355.122C442.296 355.483 445.419 356.536 447.595 358.865C451.914 363.62 451.627 370.925 447.878 375.783C446.18 378.111 442.714 379.935 439.937 378.48C439.803 378.407 439.813 378.21 439.952 378.147Z" fill="#A3D0E3"/>
<path d="M408.578 530.909C411.533 530.376 413.921 529.257 416.049 527.384C419.95 523.839 420.485 517.201 417.806 512.791C415.077 508.027 409.113 507.014 404.049 508.269C401.615 508.923 399.302 509.587 398.494 512.081C396.389 517.424 397.528 523.099 401.465 527.316C397.823 527.582 394.706 524.304 393.816 520.938C392.597 516.082 393.416 508.683 397.97 505.779C402.618 503.105 408.085 502.355 413.345 503.831C424.565 507.061 427.082 522.802 418.355 530.074C415.692 532.287 411.502 533.182 408.518 531.232C408.379 531.144 408.434 530.932 408.586 530.906L408.578 530.909Z" fill="#A3D0E3"/>
<path d="M337.754 546.983C342.711 545.233 347.541 540.713 346.791 535.22C345.309 526.654 335.991 523.292 328.576 527.161C324.408 529.304 319.517 533.87 323.86 538.347C325.733 540.601 327.778 542.258 330.288 544.097C326.904 545.01 323.271 543.487 320.899 541.004C311.346 531.169 326.546 519.552 336.653 520.94C345.663 521.516 353.431 531.349 350.029 540.193C348.323 544.965 342.919 549.459 337.75 547.321C337.6 547.253 337.621 547.036 337.764 546.988L337.754 546.983Z" fill="#A3D0E3"/>
<path d="M460.328 449.045C465.977 444.125 465.907 434.269 460.235 429.495C455.751 425.503 448.677 426.639 446.95 432.631C444.541 439.509 446.925 444.22 453.358 447.316C450.435 448.975 446.554 447.721 444.438 445.194C440.25 440.051 441.15 431.909 444.891 426.751C447.079 423.948 450.583 422.464 454.066 422.454C462.737 422.494 468.834 430.983 468.309 439.134C468.272 443.559 465.686 449.805 460.41 449.363C460.25 449.34 460.207 449.136 460.328 449.045Z" fill="#A3D0E3"/>
<path d="M387.264 462.543C394.575 458.692 396.422 450.992 394.529 443.363C393.431 438.694 389.988 438.321 386.052 440.125C381.937 441.947 378.206 444.845 375.345 448.353C374.202 449.999 371.58 452.635 372.754 454.635C374.135 456.725 377.182 458.384 379.5 459.723C380.849 460.485 382.282 461.168 383.889 461.995C380.485 463.327 376.605 462.552 373.525 460.719C368.021 457.481 366.39 453.133 370.24 447.694C373.592 442.455 378.481 438.311 384.202 435.825C392.354 432.249 398.513 436.313 399.057 445.067C399.399 449.517 399.039 454.084 396.59 458.145C394.744 461.238 390.958 463.742 387.3 462.876C387.143 462.836 387.12 462.616 387.264 462.543Z" fill="#A3D0E3"/>
<path d="M314.35 473.724C319.089 471.399 323.584 467.69 323.609 462.072C323.68 459.716 322.976 457.029 321.466 455.285C318.369 451.916 311.88 451.727 307.977 454.084C302.706 457.034 300.612 464.952 305.844 468.988C306.794 469.765 307.934 470.403 309.551 470.781C306.734 473.188 302.035 471.449 300.271 468.443C296.351 462.106 299.503 453.7 305.585 450.101C308.586 448.272 312.122 447.587 315.519 447.9C319.023 448.278 322.52 449.593 324.863 452.448C329.167 458.016 328.41 466.531 323.473 471.415C321.162 473.746 317.551 475.113 314.363 474.065C314.211 474.015 314.206 473.798 314.345 473.734L314.35 473.724Z" fill="#A3D0E3"/>
<path d="M366.151 390.742C369.576 389.9 371.637 386.794 370.997 383.421C370.251 379.501 365.64 374.928 361.969 373.646C357.143 372.312 351.321 377.568 352.828 382.555C353.847 386.206 357.994 386.37 360.865 388.332C362.084 389.129 363.307 390.244 363.801 391.722C359.413 390.839 355.392 391.029 351.621 388.163C344.119 381.82 349.466 370.609 358.209 368.974C363.136 367.866 367.723 371.183 370.679 374.709C373.751 378.154 375.988 382.982 374.138 387.752C373.077 390.802 368.879 393.106 366.066 391.065C365.942 390.972 365.992 390.77 366.144 390.745L366.151 390.742Z" fill="#A3D0E3"/>
<path d="M294.585 402.555C298.632 400.453 301.593 396.54 301.296 391.923C301.05 387.256 298.042 384.581 293.379 384.186C290.176 383.825 287.039 384.47 285.114 386.949C283.103 389.5 284.329 392.863 285.854 395.385C287.076 397.579 288.263 399.868 289.29 402.388C286.23 400.843 283.773 398.481 281.753 395.737C275.882 386.616 284.369 378.019 293.928 379.531C296.929 379.892 300.051 380.945 302.228 383.274C306.547 388.029 306.26 395.334 302.511 400.192C300.813 402.519 297.347 404.344 294.57 402.889C294.436 402.816 294.446 402.619 294.585 402.555Z" fill="#A3D0E3"/>
<path d="M263.451 551.509C264.085 551.719 264.597 551.438 265.145 551.162C266.773 550.314 268.164 549.134 269.3 547.743C272.459 544.043 271.944 536.484 268.569 533.14C265.286 530.978 260.458 531.498 256.966 533.044C256.009 533.507 255.443 533.806 255.02 534.68C251.444 543.96 254.543 544.087 259.507 551C256.292 550.854 253.363 549.601 251.305 546.997C248.099 542.872 249.157 537.297 250.868 532.792C252.955 528.127 259.754 526.798 264.343 527.099C267.66 527.321 271.571 528.692 273.286 531.858C276.38 537.51 276.385 545.131 271.974 550.05C270.349 551.865 267.933 553.102 265.457 552.952C264.631 552.9 263.512 552.601 263.211 551.724C263.16 551.573 263.327 551.441 263.458 551.507L263.451 551.509Z" fill="#A3D0E3"/>
<path d="M194.711 567.552C197.666 567.018 200.054 565.9 202.181 564.026C206.083 560.482 206.618 553.844 203.939 549.433C201.21 544.67 195.245 543.657 190.182 544.912C187.748 545.566 185.435 546.229 184.626 548.723C182.522 554.067 183.661 559.741 187.598 563.959C183.956 564.224 180.838 560.946 179.949 557.58C178.73 552.724 179.549 545.325 184.103 542.422C188.751 539.748 194.218 538.998 199.478 540.473C210.698 543.704 213.215 559.445 204.487 566.717C201.825 568.929 197.635 569.825 194.65 567.875C194.511 567.787 194.567 567.574 194.718 567.549L194.711 567.552Z" fill="#A3D0E3"/>
<path d="M123.883 583.632C128.84 581.882 133.67 577.362 132.92 571.869C131.438 563.303 122.119 559.942 114.705 563.81C110.536 565.953 105.645 570.519 109.989 574.996C111.862 577.25 113.907 578.908 116.417 580.747C113.033 581.659 109.4 580.137 107.028 577.653C97.4747 567.819 112.675 556.202 122.782 557.59C131.792 558.165 139.56 567.999 136.158 576.842C134.452 581.615 129.048 586.108 123.878 583.971C123.729 583.903 123.749 583.685 123.893 583.637L123.883 583.632Z" fill="#A3D0E3"/>
<path d="M246.469 485.695C252.117 480.775 252.048 470.919 246.376 466.146C241.892 462.154 234.818 463.289 233.091 469.282C230.682 476.159 233.065 480.87 239.499 483.966C236.575 485.626 232.695 484.371 230.578 481.845C226.391 476.701 227.291 468.56 231.032 463.401C233.219 460.598 236.724 459.115 240.207 459.104C248.878 459.144 254.975 467.633 254.449 475.785C254.413 480.21 251.827 486.456 246.55 486.013C246.391 485.991 246.348 485.786 246.469 485.695Z" fill="#A3D0E3"/>
<path d="M173.401 499.193C180.712 495.342 182.559 487.642 180.666 480.013C179.568 475.344 176.125 474.97 172.189 476.775C168.073 478.597 164.343 481.495 161.482 485.003C160.339 486.649 157.717 489.285 158.891 491.285C160.272 493.375 163.319 495.034 165.636 496.373C166.986 497.135 168.419 497.818 170.026 498.645C166.622 499.977 162.742 499.202 159.661 497.369C154.157 494.13 152.527 489.782 156.376 484.344C159.729 479.105 164.617 474.96 170.339 472.475C178.491 468.899 184.65 472.963 185.193 481.716C185.536 486.167 185.176 490.734 182.727 494.795C180.881 497.888 177.095 500.392 173.436 499.526C173.28 499.486 173.257 499.266 173.401 499.193Z" fill="#A3D0E3"/>
<path d="M100.483 510.375C105.221 508.05 109.717 504.34 109.742 498.723C109.813 496.366 109.109 493.68 107.599 491.936C104.502 488.566 98.0131 488.378 94.1103 490.735C88.8391 493.685 86.7446 501.603 91.9766 505.639C92.927 506.416 94.0667 507.054 95.6835 507.432C92.8669 509.839 88.1673 508.1 86.4042 505.094C82.4836 498.757 85.6359 490.351 91.7174 486.752C94.7189 484.923 98.2544 484.238 101.652 484.55C105.156 484.929 108.652 486.244 110.996 489.099C115.3 494.667 114.542 503.182 109.606 508.066C107.295 510.397 103.684 511.764 100.496 510.716C100.344 510.666 100.339 510.449 100.478 510.385L100.483 510.375Z" fill="#A3D0E3"/>
<path d="M220.703 417.065C222.474 415.21 223.74 413.506 224.726 411.315C226.627 407.353 224.468 402.634 220.676 400.913C214.71 398.233 207.6 404.122 205.842 409.645C204.51 414.604 210.734 415.26 213.926 417.427C211.232 418.816 208.149 419.039 205.392 417.493C195.717 411.429 205.261 398.486 213.43 396.219C223.318 392.946 232.834 403.45 227.912 412.861C226.596 415.474 223.825 417.613 220.827 417.386C220.672 417.378 220.604 417.174 220.72 417.068L220.703 417.065Z" fill="#A3D0E3"/>
<path d="M312.444 260.157C319.755 256.306 321.602 248.606 319.709 240.977C318.611 236.308 315.168 235.935 311.232 237.739C307.116 239.561 303.386 242.459 300.525 245.968C299.382 247.613 296.76 250.25 297.934 252.249C299.315 254.339 302.362 255.998 304.679 257.338C306.029 258.099 307.462 258.782 309.069 259.609C305.665 260.941 301.785 260.167 298.704 258.333C293.2 255.095 291.57 250.747 295.419 245.308C298.771 240.069 303.66 235.925 309.382 233.439C317.534 229.863 323.693 233.927 324.236 242.681C324.579 247.131 324.219 251.698 321.77 255.759C319.924 258.852 316.137 261.356 312.479 260.49C312.323 260.45 312.3 260.23 312.444 260.157Z" fill="#A3D0E3"/>
<path d="M334.408 323.428C339.147 321.103 343.642 317.394 343.668 311.776C343.739 309.42 343.034 306.733 341.525 304.989C338.428 301.62 331.939 301.431 328.036 303.788C322.765 306.738 320.67 314.656 325.902 318.692C326.853 319.47 327.992 320.108 329.609 320.485C326.793 322.892 322.093 321.153 320.33 318.147C316.409 311.811 319.562 303.404 325.643 299.805C328.645 297.976 332.18 297.291 335.578 297.604C339.081 297.982 342.578 299.297 344.922 302.152C349.226 307.72 348.468 316.235 343.532 321.119C341.22 323.45 337.61 324.817 334.421 323.769C334.27 323.719 334.264 323.502 334.403 323.438L334.408 323.428Z" fill="#A3D0E3"/>
<path d="M359.753 178.031C361.525 176.175 362.791 174.472 363.777 172.281C365.678 168.319 363.519 163.6 359.726 161.878C353.761 159.199 346.651 165.088 344.893 170.611C343.561 175.57 349.785 176.226 352.977 178.393C350.283 179.782 347.199 180.005 344.442 178.459C334.768 172.395 344.312 159.452 352.481 157.184C362.369 153.912 371.885 164.416 366.963 173.827C365.647 176.439 362.876 178.579 359.877 178.352C359.723 178.344 359.655 178.14 359.771 178.033L359.753 178.031Z" fill="#A3D0E3"/>
<path d="M291.331 188.355C294.755 187.513 296.816 184.407 296.177 181.033C295.431 177.114 290.82 172.541 287.148 171.259C282.323 169.924 276.501 175.181 278.008 180.168C279.027 183.819 283.174 183.982 286.045 185.945C287.263 186.742 288.487 187.857 288.981 189.334C284.592 188.452 280.572 188.642 276.801 185.776C269.298 179.433 274.646 168.221 283.388 166.587C288.315 165.479 292.903 168.796 295.858 172.322C298.93 175.767 301.167 180.594 299.318 185.365C298.257 188.414 294.059 190.719 291.246 188.678C291.122 188.585 291.172 188.383 291.324 188.357L291.331 188.355Z" fill="#A3D0E3"/>
<path d="M362.393 605.372C366.44 603.269 369.402 599.357 369.105 594.74C368.858 590.072 365.85 587.398 361.187 587.003C357.984 586.642 354.848 587.286 352.923 589.766C350.912 592.316 352.137 595.679 353.663 598.201C354.885 600.395 356.071 602.685 357.099 605.205C354.039 603.659 351.582 601.297 349.561 598.553C343.691 589.433 352.177 580.835 361.736 582.347C364.737 582.708 367.86 583.761 370.037 586.091C374.355 590.845 374.069 598.15 370.32 603.008C368.622 605.336 365.155 607.16 362.378 605.705C362.244 605.632 362.254 605.435 362.393 605.372Z" fill="#A3D0E3"/>
<path d="M272.66 335.351C278.309 330.431 278.239 320.576 272.567 315.802C268.083 311.81 261.009 312.945 259.282 318.938C256.873 325.815 259.257 330.526 265.69 333.622C262.767 335.282 258.886 334.028 256.77 331.501C252.583 326.357 253.482 318.216 257.223 313.057C259.411 310.254 262.915 308.771 266.398 308.76C275.069 308.801 281.166 317.29 280.641 325.441C280.604 329.866 278.018 336.112 272.742 335.67C272.582 335.647 272.539 335.443 272.66 335.351Z" fill="#A3D0E3"/>
<path d="M199.592 348.847C206.903 344.996 208.751 337.296 206.857 329.667C205.759 324.998 202.316 324.625 198.38 326.429C194.265 328.251 190.534 331.149 187.673 334.658C186.53 336.303 183.908 338.94 185.082 340.939C186.463 343.029 189.511 344.688 191.828 346.028C193.177 346.789 194.61 347.472 196.217 348.299C192.814 349.631 188.933 348.856 185.853 347.023C180.349 343.785 178.718 339.437 182.568 333.998C185.92 328.759 190.809 324.615 196.53 322.129C204.683 318.553 210.842 322.617 211.385 331.371C211.727 335.821 211.367 340.388 208.919 344.449C207.072 347.542 203.286 350.046 199.628 349.18C199.471 349.14 199.448 348.92 199.592 348.847Z" fill="#A3D0E3"/>
<path d="M288.511 619.89C290.283 618.034 291.549 616.331 292.535 614.14C294.436 610.178 292.277 605.459 288.484 603.737C282.518 601.058 275.408 606.947 273.65 612.469C272.319 617.429 278.543 618.085 281.735 620.252C279.041 621.641 275.957 621.863 273.2 620.318C263.526 614.254 273.07 601.311 281.239 599.043C291.127 595.771 300.643 606.275 295.721 615.685C294.405 618.298 291.633 620.438 288.635 620.21C288.481 620.203 288.413 619.998 288.529 619.892L288.511 619.89Z" fill="#A3D0E3"/>
<path d="M220.089 630.208C223.513 629.367 225.574 626.261 224.935 622.887C224.188 618.967 219.577 614.395 215.906 613.112C211.081 611.778 205.258 617.034 206.766 622.021C207.784 625.673 211.932 625.836 214.803 627.798C216.021 628.595 217.244 629.711 217.738 631.188C213.35 630.305 209.329 630.496 205.558 627.63C198.056 621.287 203.403 610.075 212.146 608.44C217.073 607.332 221.66 610.65 224.616 614.176C227.688 617.621 229.925 622.448 228.075 627.218C227.015 630.268 222.816 632.573 220.003 630.532C219.88 630.438 219.93 630.236 220.081 630.211L220.089 630.208Z" fill="#A3D0E3"/>
<path d="M148.538 642.018C152.585 639.915 155.547 636.003 155.249 631.386C155.003 626.718 151.995 624.044 147.332 623.649C144.129 623.288 140.992 623.932 139.067 626.412C137.057 628.962 138.282 632.325 139.807 634.847C141.029 637.041 142.216 639.331 143.243 641.851C140.183 640.305 137.726 637.943 135.706 635.199C129.835 626.079 138.322 617.481 147.881 618.993C150.882 619.354 154.005 620.407 156.181 622.737C160.5 627.491 160.213 634.796 156.464 639.654C154.766 641.982 151.3 643.806 148.523 642.351C148.389 642.278 148.399 642.081 148.538 642.018Z" fill="#A3D0E3"/>
</svg>
