<svg width="783" height="528" viewBox="0 0 783 528" fill="none" xmlns="http://www.w3.org/2000/svg">
<path d="M314.033 40.5763C307.447 47.1174 300.217 52.8434 292.335 57.5904C290.577 58.6522 288.705 60.4341 286.735 58.2531C285.49 56.8777 284.704 54.1342 283.714 52.5001C281.271 48.4884 278.273 44.9378 274.863 41.8394C272.658 39.8407 269.907 42.8503 272.134 44.8736C276.935 49.2341 279.913 54.0772 283 59.7925C284.986 63.4789 288.019 64.8312 291.347 63.5175C296.268 61.5828 300.8 57.9193 304.981 54.7295C309.163 51.5397 313.374 47.8554 317.248 44.0108C319.104 42.173 315.884 38.7315 314.029 40.5693L314.033 40.5763Z" fill="#8AA99D"/>
<path d="M250.902 2.60682C245.104 7.10382 238.972 11.1026 232.481 14.4947C231.062 15.2395 229.44 16.4281 227.852 16.7843C225.44 17.3166 224.253 15.562 222.734 13.3545C220.128 9.56755 217.958 5.52034 216.084 1.32991C214.838 -1.4567 211.369 0.583744 212.598 3.34231C214.918 8.53742 217.723 13.6017 221.214 18.1017C223.45 20.9893 225.835 22.4638 228.951 21.4406C237.769 18.5466 246.039 12.3507 253.282 6.72937C255.307 5.15816 252.957 1.0185 250.902 2.60682Z" fill="#8AA99D"/>
<path d="M217.776 80.2853C223.49 76.1637 229.064 71.2253 235.427 68.1594C238.446 66.7066 243.638 64.6528 246.439 68.5602C249.092 72.264 251.198 76.6101 253.516 80.5439C255.07 83.1804 258.56 81.175 257.002 78.5315C254.333 74.0052 251.824 67.9475 248.158 64.2122C245.496 61.5049 241.875 61.5297 238.855 62.0487C229.912 63.5755 222.471 71.0588 215.412 76.1629C213.325 77.6672 215.687 81.8 217.792 80.2854L217.776 80.2853Z" fill="#8AA99D"/>
<path d="M314.099 108.602C307.514 115.143 300.284 120.869 292.402 125.616C290.644 126.678 288.772 128.46 286.801 126.279C285.557 124.903 284.771 122.16 283.78 120.526C281.338 116.514 278.339 112.963 274.93 109.865C272.725 107.866 269.973 110.876 272.201 112.899C277.002 117.26 279.98 122.103 283.067 127.818C285.053 131.504 288.086 132.857 291.414 131.543C296.335 129.608 300.867 125.945 305.048 122.755C309.229 119.565 313.441 115.881 317.315 112.036C319.171 110.199 315.951 106.757 314.095 108.595L314.099 108.602Z" fill="#8AA99D"/>
<path d="M217.843 148.311C223.557 144.189 229.131 139.251 235.494 136.185C238.512 134.732 243.705 132.678 246.506 136.586C249.158 140.29 251.265 144.636 253.583 148.57C255.137 151.206 258.627 149.201 257.069 146.557C254.4 142.031 251.891 135.973 248.224 132.238C245.563 129.53 241.941 129.555 238.921 130.074C229.978 131.601 222.538 139.084 215.479 144.189C213.391 145.693 215.754 149.826 217.859 148.311L217.843 148.311Z" fill="#8AA99D"/>
<path d="M494.741 479.3C488.156 485.841 480.926 491.567 473.044 496.314C471.286 497.375 469.414 499.157 467.443 496.976C466.199 495.601 465.413 492.858 464.422 491.223C461.98 487.212 458.981 483.661 455.572 480.563C453.367 478.564 450.615 481.574 452.842 483.597C457.644 487.957 460.622 492.8 463.708 498.516C465.694 502.202 468.728 503.554 472.056 502.241C476.977 500.306 481.509 496.643 485.69 493.453C489.871 490.263 494.083 486.579 497.957 482.734C499.812 480.896 496.592 477.455 494.737 479.293L494.741 479.3Z" fill="#8AA99D"/>
<path d="M510.788 456.676C517.374 450.135 524.604 444.409 532.486 439.662C534.244 438.601 536.116 436.819 538.086 439C539.331 440.375 540.116 443.118 541.107 444.753C543.55 448.764 546.548 452.315 549.958 455.413C552.163 457.412 554.914 454.402 552.687 452.379C547.885 448.019 544.908 443.176 541.821 437.46C539.835 433.774 536.802 432.421 533.474 433.735C528.552 435.67 524.02 439.333 519.839 442.523C515.658 445.713 511.447 449.397 507.573 453.242C505.717 455.08 508.937 458.521 510.792 456.683L510.788 456.676Z" fill="#8AA99D"/>
<path d="M606.688 477.486C599.607 481.799 593.818 487.899 587.035 492.647C585.462 493.742 583.779 495.125 581.928 495.698C579.701 496.386 578.397 494.4 576.851 492.544C573.542 488.565 570.869 484.154 568.632 479.472C567.317 476.716 563.84 478.742 565.146 481.484C567.564 486.548 570.545 491.286 574.121 495.578C577.104 499.156 579.749 501.574 583.822 500.073C588.179 498.474 591.967 494.96 595.502 492.021C599.905 488.367 604.177 484.582 609.058 481.605C611.271 480.262 608.896 476.136 606.678 477.483L606.688 477.486Z" fill="#8AA99D"/>
<path d="M3.77296 336.276C10.3583 329.735 17.5882 324.009 25.4702 319.262C27.2283 318.2 29.1002 316.418 31.0708 318.599C32.3154 319.975 33.101 322.718 34.0919 324.352C36.5345 328.364 39.5329 331.915 42.9421 335.013C45.1472 337.012 47.899 334.002 45.6717 331.979C40.87 327.618 37.892 322.775 34.8057 317.06C32.8196 313.374 29.7863 312.021 26.4585 313.335C21.537 315.27 17.005 318.933 12.824 322.123C8.64296 325.313 4.43125 328.997 0.557116 332.842C-1.29833 334.68 1.92156 338.121 3.77701 336.283L3.77296 336.276Z" fill="#8AA99D"/>
<path d="M315.856 169.462C309.271 176.003 302.041 181.729 294.159 186.476C292.401 187.538 290.529 189.32 288.559 187.139C287.314 185.764 286.528 183.02 285.537 181.386C283.095 177.374 280.096 173.824 276.687 170.725C274.482 168.726 271.73 171.736 273.958 173.759C278.759 178.12 281.737 182.963 284.824 188.678C286.81 192.365 289.843 193.717 293.171 192.403C298.092 190.469 302.624 186.805 306.805 183.615C310.986 180.425 315.198 176.741 319.072 172.897C320.928 171.059 317.708 167.617 315.852 169.455L315.856 169.462Z" fill="#8AA99D"/>
<path d="M101.597 292.529C94.5158 296.842 88.727 302.942 81.9442 307.69C80.3713 308.785 78.688 310.168 76.8374 310.741C74.6103 311.429 73.3057 309.443 71.7599 307.587C68.451 303.608 65.7777 299.197 63.5408 294.515C62.2263 291.759 58.7488 293.785 60.0553 296.527C62.473 301.591 65.4538 306.33 69.0303 310.621C72.0131 314.2 74.6579 316.618 78.7312 315.117C83.0877 313.518 86.8758 310.003 90.4114 307.064C94.8142 303.41 99.0865 299.625 103.967 296.648C106.18 295.306 103.806 291.18 101.587 292.526L101.597 292.529Z" fill="#8AA99D"/>
<path d="M117.067 266.631L116.913 266.514C116.122 265.924 114.948 266.041 114.399 266.704C113.782 267.443 113.576 268.235 113.923 269.316C114.229 270.27 115.136 271.158 116.067 271.181C118.489 271.241 119.773 268.565 121.259 266.978C123.99 264.055 126.972 261.417 130.192 259.109C133.229 256.935 137.686 252.773 141.205 257.649C143.688 261.086 145.251 265.643 147.072 269.453C148.39 272.216 151.864 270.183 150.557 267.441C147.386 260.812 143.089 247.989 134.564 250.939C130.736 252.261 127.252 255.263 124.16 257.806C122.489 259.182 120.878 260.635 119.345 262.184C118.468 263.074 117.607 263.992 116.774 264.931L115.949 265.884C114.881 266.855 114.822 267.095 115.769 266.614L117.913 268.479L117.829 268.21L117.444 270.349L117.619 270.145L115.104 270.335L115.258 270.452C117.636 272.229 119.439 268.412 117.067 266.631Z" fill="#8AA99D"/>
<path d="M205.844 233.736C200.047 238.233 193.914 242.232 187.423 245.624C186.004 246.369 184.382 247.557 182.794 247.913C180.382 248.446 179.195 246.691 177.676 244.484C175.07 240.697 172.9 236.649 171.026 232.459C169.78 229.672 166.311 231.713 167.54 234.471C169.86 239.667 172.665 244.731 176.156 249.231C178.393 252.118 180.777 253.593 183.893 252.57C192.711 249.676 200.981 243.48 208.224 237.858C210.249 236.287 207.899 232.148 205.844 233.736Z" fill="#8AA99D"/>
<path d="M219.601 209.172C225.314 205.05 230.889 200.112 237.252 197.046C240.27 195.593 245.462 193.539 248.264 197.447C250.916 201.151 253.022 205.497 255.341 209.431C256.894 212.067 260.384 210.062 258.826 207.418C256.158 202.892 253.648 196.834 249.982 193.099C247.32 190.392 243.699 190.416 240.679 190.935C231.736 192.462 224.296 199.945 217.236 205.05C215.149 206.554 217.511 210.687 219.616 209.172L219.601 209.172Z" fill="#8AA99D"/>
<path d="M331.9 146.832C338.485 140.291 345.715 134.565 353.597 129.818C355.355 128.756 357.227 126.974 359.198 129.155C360.442 130.531 361.228 133.274 362.219 134.908C364.661 138.92 367.66 142.471 371.069 145.569C373.274 147.568 376.026 144.558 373.798 142.535C368.997 138.174 366.019 133.331 362.932 127.616C360.946 123.93 357.913 122.577 354.585 123.891C349.664 125.826 345.132 129.489 340.951 132.679C336.77 135.869 332.558 139.553 328.684 143.398C326.828 145.235 330.048 148.677 331.904 146.839L331.9 146.832Z" fill="#8AA99D"/>
<path d="M429.735 103.079C422.654 107.392 416.865 113.491 410.082 118.239C408.509 119.335 406.826 120.718 404.976 121.291C402.748 121.978 401.444 119.992 399.898 118.136C396.589 114.158 393.916 109.746 391.679 105.064C390.365 102.308 386.887 104.335 388.193 107.077C390.611 112.14 393.592 116.879 397.169 121.171C400.151 124.749 402.796 127.167 406.869 125.666C411.226 124.067 415.014 120.552 418.55 117.614C422.952 113.959 427.225 110.175 432.106 107.198C434.318 105.855 431.944 101.729 429.725 103.075L429.735 103.079Z" fill="#8AA99D"/>
<path d="M445.203 77.1816L445.049 77.065C444.257 76.4748 443.084 76.5915 442.534 77.2547C441.918 77.9939 441.711 78.7862 442.058 79.8666C442.364 80.821 443.272 81.7085 444.202 81.7322C446.624 81.7924 447.908 79.1158 449.395 77.5286C452.125 74.6058 455.107 71.9679 458.328 69.66C461.364 67.4862 465.822 63.3236 469.34 68.2002C471.823 71.6374 473.387 76.194 475.207 80.004C476.526 82.767 479.999 80.7336 478.693 77.9916C475.521 71.3625 471.224 58.5402 462.7 61.4895C458.871 62.8119 455.388 65.8139 452.295 68.3566C450.624 69.7328 449.013 71.1864 447.481 72.7349C446.603 73.6247 445.742 74.5426 444.909 75.4816L444.084 76.4347C443.017 77.4061 442.957 77.6459 443.905 77.1645L446.049 79.0302L445.965 78.761L445.579 80.8999L445.754 80.6961L443.239 80.8859L443.394 81.0025C445.771 82.78 447.575 78.9625 445.203 77.1816Z" fill="#8AA99D"/>
<path d="M3.83688 404.303C10.4223 397.762 17.6521 392.036 25.5341 387.289C27.2922 386.228 29.1642 384.446 31.1347 386.627C32.3793 388.002 33.1649 390.746 34.1558 392.38C36.5984 396.391 39.5968 399.942 43.006 403.04C45.2111 405.039 47.9629 402.029 45.7356 400.006C40.9339 395.646 37.956 390.803 34.8696 385.087C32.8836 381.401 29.8502 380.049 26.5224 381.362C21.6009 383.297 17.069 386.96 12.8879 390.15C8.70688 393.34 4.49516 397.024 0.621035 400.869C-1.23441 402.707 1.98548 406.148 3.84093 404.31L3.83688 404.303Z" fill="#8AA99D"/>
<path d="M315.924 237.489C309.338 244.03 302.108 249.756 294.226 254.503C292.468 255.564 290.596 257.346 288.626 255.165C287.381 253.79 286.596 251.046 285.605 249.412C283.162 245.401 280.164 241.85 276.754 238.752C274.549 236.753 271.798 239.763 274.025 241.786C278.827 246.146 281.805 250.989 284.891 256.705C286.877 260.391 289.91 261.743 293.238 260.43C298.16 258.495 302.692 254.832 306.873 251.642C311.054 248.452 315.265 244.768 319.139 240.923C320.995 239.085 317.775 235.644 315.92 237.482L315.924 237.489Z" fill="#8AA99D"/>
<path d="M101.664 360.555C94.5826 364.868 88.7937 370.968 82.0109 375.716C80.438 376.811 78.7548 378.194 76.9042 378.767C74.6771 379.455 73.3725 377.469 71.8267 375.613C68.5178 371.634 65.8445 367.223 63.6076 362.54C62.2931 359.784 58.8156 361.811 60.122 364.553C62.5397 369.617 65.5206 374.355 69.0971 378.647C72.0799 382.225 74.7247 384.643 78.798 383.142C83.1544 381.543 86.9425 378.029 90.4782 375.09C94.881 371.436 99.1533 367.651 104.034 364.674C106.247 363.331 103.872 359.205 101.654 360.551L101.664 360.555Z" fill="#8AA99D"/>
<path d="M117.144 334.66L116.99 334.543C116.198 333.953 115.025 334.07 114.475 334.733C113.859 335.472 113.652 336.264 113.999 337.345C114.305 338.299 115.213 339.187 116.143 339.21C118.565 339.271 119.849 336.594 121.336 335.007C124.066 332.084 127.049 329.446 130.269 327.138C133.305 324.964 137.763 320.802 141.282 325.678C143.764 329.116 145.328 333.672 147.148 337.482C148.467 340.245 151.94 338.212 150.634 335.47C147.462 328.841 143.165 316.018 134.641 318.968C130.812 320.29 127.329 323.292 124.236 325.835C122.565 327.211 120.954 328.665 119.422 330.213C118.544 331.103 117.683 332.021 116.85 332.96L116.025 333.913C114.958 334.884 114.899 335.124 115.846 334.643L117.99 336.508L117.906 336.239L117.52 338.378L117.695 338.174L115.18 338.364L115.335 338.481C117.713 340.258 119.516 336.441 117.144 334.66Z" fill="#8AA99D"/>
<path d="M205.914 301.76C200.116 306.257 193.984 310.256 187.493 313.648C186.074 314.393 184.452 315.581 182.863 315.937C180.452 316.47 179.265 314.715 177.745 312.508C175.14 308.721 172.969 304.673 171.095 300.483C169.85 297.696 166.381 299.737 167.61 302.495C169.93 307.691 172.735 312.755 176.226 317.255C178.462 320.142 180.847 321.617 183.963 320.594C192.78 317.7 201.051 311.504 208.294 305.882C210.319 304.311 207.969 300.172 205.914 301.76Z" fill="#8AA99D"/>
<path d="M219.667 277.198C225.381 273.076 230.955 268.138 237.318 265.072C240.337 263.619 245.529 261.565 248.331 265.472C250.983 269.176 253.089 273.522 255.407 277.456C256.961 280.093 260.451 278.087 258.893 275.444C256.224 270.917 253.715 264.86 250.049 261.124C247.387 258.417 243.766 258.442 240.746 258.961C231.803 260.488 224.362 267.971 217.303 273.075C215.216 274.579 217.578 278.712 219.683 277.198L219.667 277.198Z" fill="#8AA99D"/>
<path d="M331.969 214.856C338.555 208.315 345.785 202.589 353.667 197.842C355.425 196.78 357.297 194.998 359.267 197.179C360.512 198.555 361.297 201.298 362.288 202.932C364.731 206.944 367.729 210.495 371.138 213.593C373.344 215.592 376.095 212.582 373.868 210.559C369.066 206.198 366.088 201.355 363.002 195.64C361.016 191.954 357.983 190.601 354.655 191.915C349.733 193.85 345.201 197.513 341.02 200.703C336.839 203.893 332.628 207.577 328.754 211.422C326.898 213.259 330.118 216.701 331.973 214.863L331.969 214.856Z" fill="#8AA99D"/>
<path d="M429.799 171.106C422.718 175.419 416.929 181.519 410.146 186.267C408.573 187.362 406.89 188.745 405.04 189.318C402.812 190.005 401.508 188.02 399.962 186.164C396.653 182.185 393.98 177.773 391.743 173.091C390.428 170.335 386.951 172.362 388.257 175.104C390.675 180.168 393.656 184.906 397.232 189.198C400.215 192.776 402.86 195.194 406.933 193.693C411.29 192.094 415.078 188.58 418.614 185.641C423.016 181.987 427.289 178.202 432.17 175.225C434.382 173.882 432.008 169.756 429.789 171.102L429.799 171.106Z" fill="#8AA99D"/>
<path d="M445.273 145.214L445.119 145.097C444.328 144.507 443.154 144.624 442.605 145.287C441.988 146.026 441.782 146.819 442.129 147.899C442.435 148.853 443.342 149.741 444.273 149.765C446.695 149.825 447.979 147.148 449.465 145.561C452.196 142.638 455.178 140 458.398 137.692C461.435 135.519 465.892 131.356 469.411 136.233C471.894 139.67 473.457 144.226 475.278 148.036C476.596 150.799 480.07 148.766 478.763 146.024C475.592 139.395 471.295 126.573 462.77 129.522C458.942 130.844 455.458 133.846 452.366 136.389C450.695 137.765 449.084 139.219 447.551 140.767C446.674 141.657 445.813 142.575 444.98 143.514L444.155 144.467C443.087 145.439 443.028 145.678 443.975 145.197L446.119 147.063L446.035 146.793L445.65 148.932L445.825 148.729L443.31 148.918L443.464 149.035C445.842 150.812 447.645 146.995 445.273 145.214Z" fill="#8AA99D"/>
<path d="M534.046 112.313C528.249 116.81 522.116 120.808 515.626 124.2C514.206 124.945 512.584 126.134 510.996 126.49C508.584 127.022 507.397 125.268 505.878 123.06C503.273 119.273 501.102 115.226 499.228 111.036C497.983 108.249 494.513 110.289 495.742 113.048C498.062 118.243 500.867 123.307 504.359 127.807C506.595 130.695 508.979 132.169 512.096 131.146C520.913 128.252 529.184 122.056 536.426 116.435C538.452 114.864 536.101 110.724 534.046 112.313Z" fill="#8AA99D"/>
<path d="M62.7222 438.379C69.3075 431.838 76.5374 426.112 84.4194 421.365C86.1775 420.303 88.0495 418.521 90.02 420.702C91.2646 422.078 92.0502 424.821 93.0411 426.455C95.4837 430.467 98.4821 434.018 101.891 437.116C104.096 439.115 106.848 436.105 104.621 434.082C99.8192 429.721 96.8413 424.878 93.7549 419.163C91.7689 415.477 88.7355 414.124 85.4077 415.438C80.4862 417.373 75.9543 421.036 71.7732 424.226C67.5922 427.416 63.3805 431.1 59.5063 434.945C57.6509 436.783 60.8708 440.224 62.7262 438.386L62.7222 438.379Z" fill="#8AA99D"/>
<path d="M374.806 271.566C368.221 278.107 360.991 283.833 353.109 288.58C351.351 289.642 349.479 291.424 347.508 289.243C346.264 287.867 345.478 285.124 344.487 283.49C342.044 279.478 339.046 275.928 335.637 272.829C333.432 270.83 330.68 273.84 332.907 275.863C337.709 280.224 340.687 285.067 343.773 290.782C345.759 294.469 348.793 295.821 352.121 294.507C357.042 292.572 361.574 288.909 365.755 285.719C369.936 282.529 374.148 278.845 378.022 275C379.877 273.163 376.657 269.721 374.802 271.559L374.806 271.566Z" fill="#8AA99D"/>
<path d="M160.543 394.626C153.461 398.938 147.672 405.038 140.889 409.786C139.317 410.881 137.633 412.265 135.783 412.838C133.556 413.525 132.251 411.539 130.705 409.683C127.396 405.704 124.723 401.293 122.486 396.611C121.172 393.855 117.694 395.882 119.001 398.624C121.418 403.687 124.399 408.426 127.976 412.718C130.958 416.296 133.603 418.714 137.676 417.213C142.033 415.614 145.821 412.099 149.357 409.161C153.76 405.506 158.032 401.721 162.913 398.745C165.125 397.402 162.751 393.276 160.533 394.622L160.543 394.626Z" fill="#8AA99D"/>
<path d="M176.017 368.734L175.862 368.617C175.071 368.027 173.898 368.144 173.348 368.807C172.731 369.546 172.525 370.338 172.872 371.419C173.178 372.373 174.086 373.261 175.016 373.284C177.438 373.344 178.722 370.668 180.208 369.081C182.939 366.158 185.921 363.52 189.141 361.212C192.178 359.038 196.635 354.876 200.154 359.752C202.637 363.19 204.2 367.746 206.021 371.556C207.339 374.319 210.813 372.286 209.506 369.544C206.335 362.915 202.038 350.092 193.514 353.042C189.685 354.364 186.202 357.366 183.109 359.909C181.438 361.285 179.827 362.739 178.294 364.287C177.417 365.177 176.556 366.095 175.723 367.034L174.898 367.987C173.83 368.958 173.771 369.198 174.718 368.717L176.863 370.582L176.778 370.313L176.393 372.452L176.568 372.248L174.053 372.438L174.208 372.555C176.585 374.332 178.389 370.515 176.017 368.734Z" fill="#8AA99D"/>
<path d="M264.793 335.839C258.996 340.336 252.863 344.335 246.373 347.727C244.953 348.472 243.331 349.66 241.743 350.017C239.331 350.549 238.144 348.794 236.625 346.587C234.02 342.8 231.849 338.753 229.975 334.562C228.73 331.775 225.26 333.816 226.489 336.574C228.809 341.77 231.614 346.834 235.106 351.334C237.342 354.221 239.726 355.696 242.843 354.673C251.66 351.779 259.931 345.583 267.173 339.962C269.199 338.39 266.848 334.251 264.793 335.839Z" fill="#8AA99D"/>
<path d="M278.55 311.275C284.264 307.153 289.838 302.215 296.201 299.149C299.219 297.696 304.412 295.642 307.213 299.55C309.865 303.254 311.971 307.6 314.29 311.534C315.844 314.17 319.333 312.165 317.775 309.521C315.107 304.995 312.597 298.937 308.931 295.202C306.269 292.495 302.648 292.519 299.628 293.038C290.685 294.565 283.245 302.049 276.185 307.153C274.098 308.657 276.46 312.79 278.566 311.275L278.55 311.275Z" fill="#8AA99D"/>
<path d="M390.849 248.935C397.434 242.394 404.664 236.668 412.546 231.921C414.304 230.859 416.176 229.077 418.147 231.258C419.391 232.634 420.177 235.377 421.168 237.011C423.611 241.023 426.609 244.574 430.018 247.672C432.223 249.671 434.975 246.661 432.748 244.638C427.946 240.277 424.968 235.434 421.882 229.719C419.896 226.033 416.862 224.68 413.535 225.994C408.613 227.929 404.081 231.592 399.9 234.782C395.719 237.972 391.507 241.656 387.633 245.501C385.778 247.338 388.998 250.78 390.853 248.942L390.849 248.935Z" fill="#8AA99D"/>
<path d="M702.941 82.117C696.356 88.658 689.126 94.384 681.244 99.131C679.486 100.193 677.614 101.975 675.644 99.7937C674.399 98.4183 673.613 95.6748 672.622 94.0408C670.18 90.0291 667.181 86.4784 663.772 83.38C661.567 81.3813 658.815 84.3909 661.043 86.4143C665.844 90.7747 668.822 95.6178 671.909 101.333C673.895 105.019 676.928 106.372 680.256 105.058C685.177 103.123 689.709 99.4599 693.89 96.2701C698.071 93.0803 702.283 89.396 706.157 85.5514C708.013 83.7136 704.793 80.2721 702.937 82.1099L702.941 82.117Z" fill="#8AA99D"/>
<path d="M488.681 205.175C481.599 209.488 475.81 215.588 469.028 220.336C467.455 221.431 465.772 222.814 463.921 223.387C461.694 224.075 460.389 222.089 458.843 220.233C455.535 216.254 452.861 211.842 450.624 207.16C449.31 204.404 445.832 206.431 447.139 209.173C449.556 214.237 452.537 218.975 456.114 223.267C459.097 226.845 461.741 229.263 465.815 227.762C470.171 226.163 473.959 222.649 477.495 219.71C481.898 216.056 486.17 212.271 491.051 209.294C493.263 207.951 490.889 203.825 488.671 205.171L488.681 205.175Z" fill="#8AA99D"/>
<path d="M504.152 179.285L503.998 179.168C503.207 178.578 502.033 178.694 501.483 179.358C500.867 180.097 500.66 180.889 501.007 181.97C501.313 182.924 502.221 183.812 503.152 183.835C505.573 183.895 506.857 181.219 508.344 179.632C511.075 176.709 514.057 174.071 517.277 171.763C520.314 169.589 524.771 165.427 528.29 170.303C530.772 173.74 532.336 178.297 534.156 182.107C535.475 184.87 538.948 182.837 537.642 180.095C534.47 173.466 530.174 160.643 521.649 163.593C517.82 164.915 514.337 167.917 511.245 170.46C509.573 171.836 507.962 173.289 506.43 174.838C505.552 175.728 504.691 176.646 503.858 177.585L503.033 178.538C501.966 179.509 501.907 179.749 502.854 179.268L504.998 181.133L504.914 180.864L504.528 183.003L504.703 182.799L502.189 182.989L502.343 183.106C504.721 184.883 506.524 181.066 504.152 179.285Z" fill="#8AA99D"/>
<path d="M592.929 146.39C587.131 150.887 580.999 154.886 574.508 158.278C573.088 159.023 571.467 160.211 569.878 160.567C567.467 161.1 566.28 159.345 564.76 157.138C562.155 153.351 559.984 149.303 558.11 145.113C556.865 142.326 553.396 144.367 554.625 147.125C556.944 152.321 559.75 157.385 563.241 161.885C565.477 164.772 567.862 166.247 570.978 165.224C579.795 162.33 588.066 156.134 595.309 150.512C597.334 148.941 594.983 144.802 592.929 146.39Z" fill="#8AA99D"/>
<path d="M606.685 121.826C612.399 117.704 617.973 112.766 624.336 109.7C627.354 108.247 632.547 106.193 635.348 110.101C638 113.805 640.107 118.151 642.425 122.085C643.979 124.721 647.469 122.716 645.911 120.072C643.242 115.546 640.733 109.488 637.066 105.753C634.405 103.046 630.783 103.07 627.763 103.589C618.82 105.116 611.38 112.599 604.321 117.704C602.233 119.208 604.596 123.341 606.701 121.826L606.685 121.826Z" fill="#8AA99D"/>
<path d="M374.873 339.592C368.287 346.133 361.058 351.859 353.176 356.606C351.417 357.667 349.546 359.449 347.575 357.268C346.33 355.893 345.545 353.15 344.554 351.515C342.111 347.504 339.113 343.953 335.704 340.855C333.499 338.856 330.747 341.866 332.974 343.889C337.776 348.249 340.754 353.092 343.84 358.808C345.826 362.494 348.859 363.846 352.187 362.533C357.109 360.598 361.641 356.935 365.822 353.745C370.003 350.555 374.215 346.871 378.089 343.026C379.944 341.188 376.724 337.747 374.869 339.585L374.873 339.592Z" fill="#8AA99D"/>
<path d="M176.094 436.763L175.94 436.647C175.148 436.057 173.975 436.173 173.425 436.837C172.809 437.576 172.602 438.368 172.949 439.448C173.255 440.403 174.163 441.29 175.093 441.314C177.515 441.374 178.799 438.698 180.286 437.11C183.016 434.188 185.999 431.55 189.219 429.242C192.255 427.068 196.713 422.905 200.232 427.782C202.714 431.219 204.278 435.776 206.098 439.586C207.417 442.349 210.89 440.315 209.584 437.573C206.412 430.944 202.116 418.122 193.591 421.071C189.762 422.394 186.279 425.396 183.186 427.938C181.515 429.315 179.904 430.768 178.372 432.317C177.494 433.207 176.633 434.124 175.8 435.063L174.975 436.016C173.908 436.988 173.849 437.228 174.796 436.746L176.94 438.612L176.856 438.343L176.47 440.482L176.645 440.278L174.131 440.468L174.285 440.584C176.663 442.362 178.466 438.544 176.094 436.763Z" fill="#8AA99D"/>
<path d="M423.242 446.909L423.396 447.025C424.187 447.615 425.361 447.499 425.911 446.835C426.527 446.096 426.734 445.304 426.387 444.224C426.08 443.269 425.173 442.382 424.242 442.358C421.821 442.298 420.536 444.974 419.05 446.562C416.319 449.484 413.337 452.122 410.117 454.43C407.08 456.604 402.623 460.767 399.104 455.89C396.622 452.453 395.058 447.896 393.238 444.086C391.919 441.323 388.446 443.357 389.752 446.099C392.923 452.728 397.22 465.55 405.745 462.601C409.574 461.278 413.057 458.276 416.149 455.734C417.821 454.357 419.432 452.904 420.964 451.355C421.841 450.465 422.703 449.548 423.536 448.609L424.361 447.655C425.428 446.684 425.487 446.444 424.54 446.926L422.396 445.06L422.48 445.329L422.866 443.19L422.691 443.394L425.205 443.204L425.051 443.088C422.673 441.31 420.87 445.128 423.242 446.909Z" fill="#8AA99D"/>
<path d="M264.863 403.863C259.065 408.36 252.933 412.359 246.442 415.751C245.023 416.496 243.401 417.684 241.813 418.04C239.401 418.573 238.214 416.818 236.695 414.611C234.089 410.824 231.919 406.776 230.045 402.586C228.799 399.799 225.33 401.84 226.559 404.598C228.879 409.794 231.684 414.858 235.175 419.358C237.411 422.245 239.796 423.72 242.912 422.697C251.73 419.803 260 413.607 267.243 407.986C269.268 406.414 266.918 402.275 264.863 403.863Z" fill="#8AA99D"/>
<path d="M278.617 379.301C284.33 375.179 289.905 370.241 296.268 367.175C299.286 365.722 304.478 363.668 307.28 367.576C309.932 371.279 312.038 375.625 314.357 379.559C315.91 382.196 319.4 380.19 317.842 377.547C315.174 373.021 312.664 366.963 308.998 363.228C306.336 360.52 302.715 360.545 299.695 361.064C290.752 362.591 283.312 370.074 276.252 375.178C274.165 376.683 276.527 380.815 278.632 379.301L278.617 379.301Z" fill="#8AA99D"/>
<path d="M390.919 316.959C397.504 310.418 404.734 304.692 412.616 299.945C414.374 298.883 416.246 297.101 418.216 299.282C419.461 300.658 420.247 303.401 421.238 305.035C423.68 309.047 426.679 312.598 430.088 315.696C432.293 317.695 435.045 314.685 432.817 312.662C428.016 308.301 425.038 303.458 421.951 297.743C419.965 294.057 416.932 292.704 413.604 294.018C408.683 295.953 404.151 299.616 399.97 302.806C395.789 305.996 391.577 309.68 387.703 313.525C385.847 315.362 389.067 318.804 390.923 316.966L390.919 316.959Z" fill="#8AA99D"/>
<path d="M703.008 150.143C696.423 156.684 689.193 162.41 681.311 167.157C679.553 168.218 677.681 170 675.71 167.819C674.466 166.444 673.68 163.7 672.689 162.066C670.247 158.055 667.248 154.504 663.839 151.406C661.634 149.407 658.882 152.417 661.109 154.44C665.911 158.8 668.889 163.643 671.975 169.359C673.961 173.045 676.995 174.397 680.323 173.084C685.244 171.149 689.776 167.486 693.957 164.296C698.138 161.106 702.35 157.422 706.224 153.577C708.079 151.739 704.86 148.298 703.004 150.136L703.008 150.143Z" fill="#8AA99D"/>
<path d="M488.749 273.21C481.668 277.523 475.879 283.623 469.096 288.371C467.523 289.466 465.84 290.849 463.989 291.422C461.762 292.109 460.458 290.124 458.912 288.268C455.603 284.289 452.93 279.877 450.693 275.195C449.378 272.439 445.901 274.466 447.207 277.208C449.625 282.271 452.606 287.01 456.182 291.302C459.165 294.88 461.81 297.298 465.883 295.797C470.24 294.198 474.028 290.684 477.563 287.745C481.966 284.09 486.238 280.306 491.119 277.329C493.332 275.986 490.957 271.86 488.739 273.206L488.749 273.21Z" fill="#8AA99D"/>
<path d="M504.223 247.318L504.069 247.201C503.278 246.611 502.104 246.728 501.554 247.391C500.938 248.13 500.731 248.923 501.079 250.003C501.385 250.957 502.292 251.845 503.223 251.868C505.644 251.929 506.929 249.252 508.415 247.665C511.146 244.742 514.128 242.104 517.348 239.796C520.385 237.622 524.842 233.46 528.361 238.337C530.843 241.774 532.407 246.33 534.227 250.14C535.546 252.903 539.019 250.87 537.713 248.128C534.542 241.499 530.245 228.677 521.72 231.626C517.891 232.948 514.408 235.95 511.316 238.493C509.644 239.869 508.033 241.323 506.501 242.871C505.624 243.761 504.762 244.679 503.929 245.618L503.104 246.571C502.037 247.542 501.978 247.782 502.925 247.301L505.069 249.166L504.985 248.897L504.6 251.036L504.774 250.832L502.26 251.022L502.414 251.139C504.792 252.916 506.595 249.099 504.223 247.318Z" fill="#8AA99D"/>
<path d="M592.995 214.416C587.198 218.913 581.065 222.911 574.575 226.303C573.155 227.048 571.534 228.237 569.945 228.593C567.534 229.125 566.347 227.371 564.827 225.163C562.222 221.376 560.051 217.329 558.177 213.139C556.932 210.352 553.462 212.392 554.692 215.151C557.011 220.346 559.817 225.41 563.308 229.91C565.544 232.798 567.929 234.272 571.045 233.249C579.862 230.355 588.133 224.159 595.376 218.538C597.401 216.967 595.05 212.827 592.995 214.416Z" fill="#8AA99D"/>
<path d="M606.752 189.852C612.466 185.73 618.04 180.792 624.403 177.726C627.421 176.273 632.614 174.219 635.415 178.126C638.067 181.83 640.173 186.176 642.492 190.11C644.046 192.747 647.535 190.741 645.978 188.098C643.309 183.572 640.799 177.514 637.133 173.778C634.472 171.071 630.85 171.096 627.83 171.615C618.887 173.142 611.447 180.625 604.388 185.729C602.3 187.233 604.662 191.366 606.768 189.852L606.752 189.852Z" fill="#8AA99D"/>
<path d="M433.751 373.661C427.165 380.203 419.936 385.928 412.054 390.675C410.295 391.737 408.424 393.519 406.453 391.338C405.208 389.963 404.423 387.219 403.432 385.585C400.989 381.574 397.991 378.023 394.582 374.924C392.377 372.926 389.625 375.935 391.852 377.959C396.654 382.319 399.632 387.162 402.718 392.878C404.704 396.564 407.738 397.916 411.065 396.603C415.987 394.668 420.519 391.004 424.7 387.815C428.881 384.625 433.093 380.94 436.967 377.096C438.822 375.258 435.602 371.817 433.747 373.654L433.751 373.661Z" fill="#8AA99D"/>
<path d="M337.499 413.378C343.213 409.256 348.788 404.318 355.15 401.252C358.169 399.799 363.361 397.745 366.163 401.653C368.815 405.356 370.921 409.703 373.239 413.636C374.793 416.273 378.283 414.268 376.725 411.624C374.056 407.098 371.547 401.04 367.881 397.305C365.219 394.597 361.598 394.622 358.578 395.141C349.635 396.668 342.195 404.151 335.135 409.255C333.048 410.76 335.41 414.893 337.515 413.378L337.499 413.378Z" fill="#8AA99D"/>
<path d="M276.448 449.672C282.162 445.551 287.736 440.612 294.099 437.546C297.117 436.094 302.31 434.04 305.111 437.947C307.763 441.651 309.869 445.997 312.188 449.931C313.742 452.568 317.231 450.562 315.673 447.919C313.005 443.392 310.495 437.335 306.829 433.599C304.167 430.892 300.546 430.917 297.526 431.436C288.583 432.963 281.143 440.446 274.084 445.55C271.996 447.054 274.358 451.187 276.464 449.673L276.448 449.672Z" fill="#8AA99D"/>
<path d="M449.799 351.039C456.384 344.498 463.614 338.772 471.496 334.025C473.254 332.963 475.126 331.181 477.096 333.362C478.341 334.738 479.127 337.481 480.118 339.115C482.56 343.127 485.559 346.678 488.968 349.776C491.173 351.775 493.925 348.765 491.697 346.742C486.896 342.381 483.918 337.538 480.831 331.823C478.845 328.136 475.812 326.784 472.484 328.098C467.563 330.033 463.031 333.696 458.85 336.886C454.669 340.076 450.457 343.76 446.583 347.605C444.727 349.442 447.947 352.884 449.803 351.046L449.799 351.039Z" fill="#8AA99D"/>
<path d="M761.886 184.212C755.301 190.753 748.071 196.479 740.189 201.226C738.431 202.288 736.559 204.07 734.588 201.889C733.344 200.514 732.558 197.77 731.567 196.136C729.125 192.124 726.126 188.574 722.717 185.475C720.512 183.477 717.76 186.486 719.988 188.51C724.789 192.87 727.767 197.713 730.854 203.429C732.84 207.115 735.873 208.467 739.201 207.154C744.122 205.219 748.654 201.555 752.835 198.366C757.016 195.176 761.228 191.491 765.102 187.647C766.957 185.809 763.738 182.368 761.882 184.205L761.886 184.212Z" fill="#8AA99D"/>
<path d="M547.63 307.278C540.549 311.591 534.76 317.691 527.977 322.439C526.404 323.534 524.721 324.917 522.87 325.49C520.643 326.178 519.338 324.192 517.793 322.336C514.484 318.357 511.81 313.945 509.574 309.263C508.259 306.507 504.782 308.534 506.088 311.276C508.506 316.34 511.487 321.078 515.063 325.37C518.046 328.948 520.691 331.366 524.764 329.865C529.12 328.266 532.908 324.752 536.444 321.813C540.847 318.159 545.119 314.374 550 311.397C552.213 310.054 549.838 305.928 547.62 307.274L547.63 307.278Z" fill="#8AA99D"/>
<path d="M608.424 412.577C601.343 416.89 595.554 422.99 588.771 427.738C587.198 428.833 585.515 430.216 583.665 430.789C581.437 431.477 580.133 429.491 578.587 427.635C575.278 423.656 572.605 419.245 570.368 414.562C569.053 411.807 565.576 413.833 566.882 416.575C569.3 421.639 572.281 426.377 575.857 430.669C578.84 434.247 581.485 436.665 585.558 435.164C589.915 433.565 593.703 430.051 597.239 427.112C601.641 423.458 605.914 419.673 610.795 416.696C613.007 415.353 610.633 411.227 608.414 412.573L608.424 412.577Z" fill="#8AA99D"/>
<path d="M661.424 504.376C654.343 508.689 648.554 514.788 641.771 519.536C640.198 520.632 638.515 522.015 636.665 522.588C634.437 523.275 633.133 521.289 631.587 519.434C628.278 515.455 625.605 511.043 623.368 506.361C622.053 503.605 618.576 505.632 619.882 508.374C622.3 513.437 625.281 518.176 628.857 522.468C631.84 526.046 634.485 528.464 638.558 526.963C642.915 525.364 646.703 521.849 650.239 518.911C654.641 515.256 658.914 511.472 663.795 508.495C666.007 507.152 663.633 503.026 661.414 504.372L661.424 504.376Z" fill="#8AA99D"/>
<path d="M563.101 281.388L562.947 281.271C562.156 280.681 560.982 280.798 560.432 281.461C559.816 282.2 559.609 282.992 559.957 284.073C560.263 285.027 561.17 285.915 562.101 285.938C564.522 285.998 565.807 283.322 567.293 281.735C570.024 278.812 573.006 276.174 576.226 273.866C579.263 271.692 583.72 267.53 587.239 272.406C589.721 275.843 591.285 280.4 593.105 284.21C594.424 286.973 597.897 284.94 596.591 282.198C593.42 275.569 589.123 262.746 580.598 265.696C576.77 267.018 573.286 270.02 570.194 272.563C568.522 273.939 566.911 275.392 565.379 276.941C564.502 277.831 563.64 278.749 562.807 279.688L561.982 280.641C560.915 281.612 560.856 281.852 561.803 281.371L563.947 283.236L563.863 282.967L563.478 285.106L563.652 284.902L561.138 285.092L561.292 285.209C563.67 286.986 565.473 283.169 563.101 281.388Z" fill="#8AA99D"/>
<path d="M622.018 383.435L621.864 383.318C621.073 382.728 619.899 382.845 619.349 383.508C618.733 384.247 618.526 385.04 618.874 386.12C619.18 387.074 620.087 387.962 621.018 387.986C623.439 388.046 624.724 385.369 626.21 383.782C628.941 380.859 631.923 378.221 635.143 375.913C638.18 373.739 642.637 369.577 646.156 374.454C648.638 377.891 650.202 382.447 652.022 386.257C653.341 389.02 656.814 386.987 655.508 384.245C652.337 377.616 648.04 364.794 639.515 367.743C635.687 369.065 632.203 372.067 629.111 374.61C627.439 375.986 625.828 377.44 624.296 378.988C623.419 379.878 622.557 380.796 621.724 381.735L620.899 382.688C619.832 383.659 619.773 383.899 620.72 383.418L622.864 385.283L622.78 385.014L622.395 387.153L622.569 386.949L620.055 387.139L620.209 387.256C622.587 389.033 624.39 385.216 622.018 383.435Z" fill="#8AA99D"/>
<path d="M651.878 248.493C646.08 252.99 639.948 256.989 633.457 260.381C632.038 261.126 630.416 262.314 628.828 262.671C626.416 263.203 625.229 261.448 623.709 259.241C621.104 255.454 618.934 251.407 617.06 247.216C615.814 244.429 612.345 246.47 613.574 249.228C615.894 254.424 618.699 259.488 622.19 263.988C624.426 266.875 626.811 268.35 629.927 267.327C638.745 264.433 647.015 258.237 654.258 252.616C656.283 251.044 653.933 246.905 651.878 248.493Z" fill="#8AA99D"/>
<path d="M449.868 419.063C456.454 412.522 463.684 406.796 471.566 402.049C473.324 400.987 475.196 399.205 477.166 401.386C478.411 402.762 479.196 405.505 480.187 407.139C482.63 411.151 485.628 414.701 489.037 417.8C491.243 419.799 493.994 416.789 491.767 414.766C486.965 410.405 483.987 405.562 480.901 399.847C478.915 396.16 475.882 394.808 472.554 396.122C467.632 398.056 463.1 401.72 458.919 404.91C454.738 408.1 450.527 411.784 446.652 415.629C444.797 417.466 448.017 420.908 449.872 419.07L449.868 419.063Z" fill="#8AA99D"/>
<path d="M778.74 490.349C772.154 496.89 764.924 502.616 757.042 507.363C755.284 508.425 753.412 510.207 751.442 508.026C750.197 506.65 749.411 503.907 748.421 502.273C745.978 498.261 742.98 494.711 739.57 491.612C737.365 489.613 734.614 492.623 736.841 494.646C741.642 499.007 744.62 503.85 747.707 509.565C749.693 513.252 752.726 514.604 756.054 513.29C760.975 511.356 765.507 507.692 769.688 504.502C773.87 501.312 778.081 497.628 781.955 493.784C783.811 491.946 780.591 488.504 778.735 490.342L778.74 490.349Z" fill="#8AA99D"/>
<path d="M668.789 215.504L668.635 215.387C667.844 214.797 666.67 214.914 666.121 215.577C665.504 216.316 665.298 217.109 665.645 218.189C665.951 219.143 666.858 220.031 667.789 220.055C670.21 220.115 671.495 217.438 672.981 215.851C675.712 212.928 678.694 210.29 681.914 207.982C684.951 205.809 689.408 201.646 692.927 206.523C695.409 209.96 696.973 214.516 698.793 218.326C700.112 221.089 703.585 219.056 702.279 216.314C699.108 209.685 694.811 196.863 686.286 199.812C682.458 201.134 678.974 204.136 675.882 206.679C674.21 208.055 672.6 209.509 671.067 211.057C670.19 211.947 669.329 212.865 668.495 213.804L667.67 214.757C666.603 215.729 666.544 215.968 667.491 215.487L669.635 217.353L669.551 217.083L669.166 219.222L669.34 219.019L666.826 219.208L666.98 219.325C669.358 221.102 671.161 217.285 668.789 215.504Z" fill="#8AA99D"/>
<path d="M712.264 343.5C705.182 347.813 699.394 353.913 692.611 358.661C691.038 359.756 689.355 361.139 687.504 361.712C685.277 362.4 683.972 360.414 682.427 358.558C679.118 354.579 676.444 350.168 674.207 345.486C672.893 342.73 669.415 344.756 670.722 347.498C673.14 352.562 676.12 357.301 679.697 361.592C682.68 365.171 685.325 367.589 689.398 366.088C693.754 364.489 697.542 360.974 701.078 358.035C705.481 354.381 709.753 350.596 714.634 347.619C716.846 346.277 714.472 342.151 712.254 343.497L712.264 343.5Z" fill="#8AA99D"/>
<path d="M673.316 421.328C679.901 414.787 687.131 409.061 695.013 404.314C696.771 403.252 698.643 401.471 700.614 403.651C701.858 405.027 702.644 407.77 703.635 409.404C706.077 413.416 709.076 416.967 712.485 420.065C714.69 422.064 717.442 419.054 715.215 417.031C710.413 412.671 707.435 407.827 704.349 402.112C702.363 398.426 699.329 397.073 696.001 398.387C691.08 400.322 686.548 403.985 682.367 407.175C678.186 410.365 673.974 414.049 670.1 417.894C668.245 419.732 671.464 423.173 673.32 421.335L673.316 421.328Z" fill="#8AA99D"/>
<path d="M673.384 489.353C679.97 482.812 687.2 477.086 695.082 472.339C696.84 471.277 698.712 469.495 700.682 471.676C701.927 473.052 702.712 475.795 703.703 477.429C706.146 481.441 709.144 484.991 712.553 488.09C714.759 490.089 717.51 487.079 715.283 485.056C710.481 480.695 707.503 475.852 704.417 470.137C702.431 466.45 699.398 465.098 696.07 466.412C691.148 468.346 686.616 472.01 682.435 475.2C678.254 478.39 674.043 482.074 670.168 485.919C668.313 487.756 671.533 491.198 673.388 489.36L673.384 489.353Z" fill="#8AA99D"/>
<path d="M761.957 252.246C755.372 258.787 748.142 264.513 740.26 269.26C738.502 270.321 736.63 272.103 734.66 269.922C733.415 268.547 732.629 265.804 731.638 264.169C729.196 260.158 726.197 256.607 722.788 253.509C720.583 251.51 717.831 254.52 720.059 256.543C724.86 260.903 727.838 265.746 730.925 271.462C732.911 275.148 735.944 276.5 739.272 275.187C744.193 273.252 748.725 269.589 752.906 266.399C757.087 263.209 761.299 259.525 765.173 255.68C767.029 253.842 763.809 250.401 761.953 252.239L761.957 252.246Z" fill="#8AA99D"/>
<path d="M547.698 375.313C540.617 379.626 534.828 385.726 528.045 390.474C526.472 391.569 524.789 392.952 522.938 393.525C520.711 394.212 519.407 392.227 517.861 390.371C514.552 386.392 511.879 381.98 509.642 377.298C508.327 374.542 504.85 376.569 506.156 379.311C508.574 384.374 511.555 389.113 515.131 393.405C518.114 396.983 520.759 399.401 524.832 397.9C529.189 396.301 532.977 392.787 536.512 389.848C540.915 386.193 545.188 382.409 550.069 379.432C552.281 378.089 549.907 373.963 547.688 375.309L547.698 375.313Z" fill="#8AA99D"/>
<path d="M563.172 349.421L563.018 349.304C562.227 348.714 561.053 348.831 560.504 349.494C559.887 350.233 559.681 351.026 560.028 352.106C560.334 353.06 561.241 353.948 562.172 353.972C564.594 354.032 565.878 351.355 567.364 349.768C570.095 346.845 573.077 344.207 576.297 341.899C579.334 339.725 583.791 335.563 587.31 340.44C589.792 343.877 591.356 348.433 593.177 352.243C594.495 355.006 597.969 352.973 596.662 350.231C593.491 343.602 589.194 330.78 580.669 333.729C576.841 335.051 573.357 338.053 570.265 340.596C568.594 341.972 566.983 343.426 565.45 344.974C564.573 345.864 563.712 346.782 562.879 347.721L562.054 348.674C560.986 349.645 560.927 349.885 561.874 349.404L564.018 351.27L563.934 351L563.549 353.139L563.724 352.935L561.209 353.125L561.363 353.242C563.741 355.019 565.544 351.202 563.172 349.421Z" fill="#8AA99D"/>
<path d="M621.966 451.256L621.812 451.139C621.021 450.549 619.847 450.666 619.298 451.329C618.681 452.068 618.475 452.861 618.822 453.941C619.128 454.895 620.036 455.783 620.966 455.807C623.388 455.867 624.672 453.19 626.158 451.603C628.889 448.68 631.871 446.042 635.091 443.735C638.128 441.561 642.585 437.398 646.104 442.275C648.587 445.712 650.15 450.268 651.971 454.078C653.289 456.841 656.763 454.808 655.456 452.066C652.285 445.437 647.988 432.615 639.463 435.564C635.635 436.886 632.152 439.888 629.059 442.431C627.388 443.807 625.777 445.261 624.244 446.809C623.367 447.699 622.506 448.617 621.673 449.556L620.848 450.509C619.78 451.481 619.721 451.72 620.668 451.239L622.812 453.105L622.728 452.835L622.343 454.974L622.518 454.771L620.003 454.96L620.157 455.077C622.535 456.854 624.338 453.037 621.966 451.256Z" fill="#8AA99D"/>
<path d="M733.888 443.555L733.734 443.438C732.942 442.848 731.769 442.965 731.219 443.628C730.602 444.367 730.396 445.159 730.743 446.24C731.049 447.194 731.957 448.082 732.887 448.105C735.309 448.165 736.593 445.489 738.079 443.902C740.81 440.979 743.792 438.341 747.013 436.033C750.049 433.859 754.506 429.697 758.025 434.573C760.508 438.01 762.072 442.567 763.892 446.377C765.21 449.14 768.684 447.107 767.377 444.365C764.206 437.736 759.909 424.913 751.385 427.863C747.556 429.185 744.073 432.187 740.98 434.73C739.309 436.106 737.698 437.559 736.165 439.108C735.288 439.998 734.427 440.916 733.594 441.855L732.769 442.808C731.702 443.779 731.642 444.019 732.59 443.538L734.734 445.403L734.649 445.134L734.264 447.273L734.439 447.069L731.924 447.259L732.079 447.376C734.456 449.153 736.26 445.336 733.888 443.555Z" fill="#8AA99D"/>
<path d="M651.945 316.519C646.147 321.016 640.015 325.014 633.524 328.406C632.104 329.151 630.483 330.34 628.894 330.696C626.483 331.228 625.296 329.474 623.776 327.266C621.171 323.479 619 319.432 617.126 315.242C615.881 312.455 612.412 314.496 613.641 317.254C615.96 322.449 618.766 327.513 622.257 332.014C624.493 334.901 626.878 336.376 629.994 335.352C638.811 332.458 647.082 326.262 654.325 320.641C656.35 319.07 654 314.93 651.945 316.519Z" fill="#8AA99D"/>
<path d="M665.702 291.955C671.415 287.834 676.99 282.895 683.353 279.829C686.371 278.377 691.563 276.323 694.365 280.23C697.017 283.934 699.123 288.28 701.442 292.214C702.995 294.851 706.485 292.845 704.927 290.202C702.259 285.675 699.749 279.618 696.083 275.882C693.421 273.175 689.8 273.2 686.78 273.719C677.837 275.246 670.397 282.729 663.337 287.833C661.25 289.337 663.612 293.47 665.717 291.956L665.702 291.955Z" fill="#8AA99D"/>
</svg>
