<svg width="930" height="938" viewBox="0 0 930 938" fill="none" xmlns="http://www.w3.org/2000/svg">
<path d="M750.905 193.775C751.635 193.657 751.996 193.12 752.395 192.57C753.565 190.907 754.331 189.037 754.74 187.092C755.963 181.843 751.607 174.67 746.585 173.1C742.255 172.645 737.77 175.616 735.123 178.915C734.418 179.858 734.013 180.439 734.042 181.515C735.251 192.464 738.364 191.01 746.767 195.282C743.53 196.776 740.012 197.035 736.661 195.521C731.407 193.097 729.608 187.075 728.997 181.772C728.674 176.121 734.684 171.351 739.352 169.311C742.727 167.84 747.272 167.196 750.571 169.436C756.493 173.42 760.378 180.914 758.545 187.998C757.871 190.611 756.125 193.058 753.614 194.172C752.775 194.541 751.521 194.816 750.779 194.108C750.652 193.985 750.749 193.771 750.911 193.768L750.905 193.775Z" fill="#FFAD9B"/>
<path d="M691.476 244.556C694.111 242.527 695.89 240.211 697.029 237.284C699.062 231.811 696.207 225.009 691.326 222.036C686.215 218.74 679.833 220.782 675.492 224.594C673.431 226.477 671.494 228.308 671.968 231.172C672.62 237.5 676.63 242.502 682.65 244.645C679.203 246.761 674.467 245.124 671.878 242.266C668.206 238.111 665.244 230.416 668.245 225.241C671.454 220.244 676.45 216.722 682.375 215.494C695.056 212.958 705.548 227.159 700.667 238.756C699.175 242.289 695.51 245.303 691.581 244.905C691.4 244.889 691.346 244.652 691.482 244.55L691.476 244.556Z" fill="#FFAD9B"/>
<path d="M629.996 296.437C633.98 292.192 636.429 285.285 632.894 280.265C627.073 272.594 616.196 274.034 610.873 281.615C607.865 285.845 605.379 292.827 611.931 295.019C614.922 296.281 617.777 296.87 621.182 297.401C618.319 300.022 613.97 300.375 610.373 299.14C595.967 294.332 605.002 275.165 615.649 271.383C624.805 267.36 637.453 273.077 638.611 283.507C639.363 289.07 636.337 296.242 630.163 296.772C629.982 296.781 629.891 296.557 630.008 296.437L629.996 296.437Z" fill="#FFAD9B"/>
<path d="M700.688 137.68C703.738 129.964 698.651 120.306 690.641 118.499C684.197 116.857 677.818 121.576 679.171 128.35C680.304 136.341 685.048 139.761 692.952 139.529C690.922 142.651 686.466 143.393 683.098 141.986C676.36 139.059 673.098 130.593 674.151 123.614C674.875 119.743 677.566 116.499 680.987 114.715C689.536 110.339 699.856 115.583 703.491 123.868C705.708 128.239 706.346 135.7 700.93 137.952C700.762 138.011 700.616 137.832 700.688 137.68Z" fill="#FFAD9B"/>
<path d="M635.694 188.168C640.924 180.657 638.819 172.143 633.072 165.604C629.614 161.57 626.038 162.956 623.085 166.736C619.965 170.624 617.772 175.374 616.744 180.282C616.458 182.482 615.222 186.411 617.395 187.78C619.817 189.132 623.66 189.212 626.621 189.349C628.336 189.411 630.093 189.354 632.095 189.349C629.426 192.392 625.215 193.606 621.251 193.371C614.188 192.989 610.37 189.543 611.387 182.233C612.016 175.373 614.714 168.807 619.075 163.449C625.273 155.779 633.4 156.64 638.393 164.973C640.996 169.176 642.968 173.851 642.627 179.093C642.387 183.076 639.938 187.467 635.899 188.478C635.724 188.518 635.59 188.314 635.694 188.168Z" fill="#FFAD9B"/>
<path d="M569.665 236.3C573.142 231.599 575.674 225.662 572.839 220.124C571.708 217.769 569.647 215.486 567.274 214.539C562.512 212.802 556.034 215.921 553.395 220.228C549.713 225.813 551.685 234.668 558.887 235.974C560.217 236.254 561.663 236.301 563.446 235.849C561.901 239.651 556.393 240.334 553.128 238.275C546.045 234.039 544.865 224.166 549.013 217.528C551.034 214.201 554.163 211.726 557.664 210.304C561.302 208.891 565.412 208.404 569.171 210.018C576.24 213.303 579.831 222.065 577.463 229.382C576.377 232.852 573.521 236.036 569.852 236.629C569.677 236.656 569.561 236.445 569.665 236.312L569.665 236.3Z" fill="#FFAD9B"/>
<path d="M578.356 128.297C581.295 125.726 581.741 121.621 579.393 118.628C576.664 115.153 569.799 113.004 565.536 113.612C560.11 114.757 557.06 122.892 561.082 127.03C563.944 130.102 568.106 128.151 571.929 128.619C573.533 128.782 575.305 129.256 576.543 130.458C571.777 131.824 567.919 134.059 562.751 133.161C552.141 130.742 551.691 116.992 559.458 110.932C563.74 107.333 569.941 108.259 574.644 110.222C579.42 112.046 584.079 115.655 584.689 121.289C585.198 124.829 582.243 129.234 578.436 128.659C578.267 128.63 578.214 128.406 578.35 128.304L578.356 128.297Z" fill="#FFAD9B"/>
<path d="M513.985 176.361C516.895 172.232 517.815 166.875 515.172 162.486C512.552 158.02 508.232 156.921 503.444 158.908C500.11 160.184 497.353 162.415 496.722 165.834C496.043 169.367 498.962 172.051 501.746 173.754C504.065 175.29 506.398 176.938 508.693 178.893C504.896 178.931 501.276 177.859 497.891 176.19C487.472 170.208 491.441 157.43 501.613 154.049C504.749 152.876 508.357 152.321 511.684 153.504C518.353 155.981 521.791 163.312 520.578 170C520.093 173.154 517.613 176.713 514.14 176.697C513.971 176.693 513.881 176.494 513.985 176.361Z" fill="#FFAD9B"/>
<path d="M559.222 338.728C559.952 338.61 560.313 338.073 560.711 337.523C561.881 335.86 562.648 333.99 563.057 332.045C564.279 326.796 559.924 319.623 554.901 318.053C550.571 317.599 546.086 320.569 543.439 323.868C542.734 324.811 542.33 325.392 542.358 326.468C543.567 337.417 546.68 335.963 555.084 340.235C551.847 341.729 548.328 341.988 544.977 340.474C539.723 338.051 537.925 332.028 537.313 326.725C536.991 321.074 543 316.305 547.668 314.264C551.043 312.793 555.588 312.149 558.888 314.39C564.81 318.374 568.695 325.867 566.861 332.951C566.187 335.564 564.441 338.011 561.93 339.125C561.091 339.494 559.838 339.77 559.095 339.061C558.968 338.938 559.065 338.724 559.228 338.721L559.222 338.728Z" fill="#FFAD9B"/>
<path d="M499.777 389.514C502.412 387.485 504.191 385.168 505.33 382.242C507.362 376.768 504.507 369.967 499.627 366.993C494.516 363.698 488.134 365.739 483.793 369.552C481.732 371.435 479.795 373.265 480.269 376.13C480.921 382.458 484.931 387.459 490.951 389.602C487.504 391.719 482.768 390.082 480.179 387.224C476.507 383.068 473.545 375.374 476.545 370.199C479.755 365.202 484.751 361.68 490.676 360.452C503.357 357.916 513.849 372.117 508.968 383.714C507.476 387.246 503.811 390.26 499.882 389.862C499.701 389.846 499.647 389.609 499.783 389.507L499.777 389.514Z" fill="#FFAD9B"/>
<path d="M438.304 441.4C442.288 437.155 444.737 430.248 441.202 425.228C435.381 417.557 424.505 418.996 419.182 426.578C416.173 430.808 413.688 437.79 420.24 439.982C423.23 441.244 426.086 441.833 429.491 442.364C426.627 444.985 422.278 445.338 418.681 444.103C404.276 439.295 413.31 420.128 423.958 416.346C433.113 412.323 445.762 418.039 446.919 428.47C447.672 434.033 444.645 441.205 438.472 441.735C438.291 441.744 438.2 441.52 438.317 441.4L438.304 441.4Z" fill="#FFAD9B"/>
<path d="M508.997 282.643C512.047 274.927 506.96 265.269 498.949 263.462C492.506 261.819 486.126 266.539 487.479 273.313C488.613 281.304 493.356 284.724 501.261 284.492C499.23 287.613 494.775 288.356 491.406 286.949C484.668 284.022 481.407 275.556 482.459 268.577C483.183 264.706 485.875 261.462 489.296 259.678C497.845 255.302 508.165 260.546 511.799 268.831C514.017 273.202 514.654 280.663 509.239 282.915C509.071 282.974 508.924 282.795 508.997 282.643Z" fill="#FFAD9B"/>
<path d="M444.006 333.128C449.237 325.617 447.132 317.102 441.384 310.563C437.927 306.53 434.35 307.916 431.397 311.695C428.278 315.583 426.084 320.334 425.057 325.241C424.77 327.442 423.534 331.37 425.707 332.739C428.13 334.092 431.972 334.172 434.934 334.309C436.649 334.371 438.406 334.313 440.408 334.308C437.738 337.351 433.527 338.565 429.563 338.331C422.501 337.949 418.683 334.502 419.699 327.192C420.328 320.332 423.026 313.766 427.388 308.408C433.585 300.739 441.713 301.599 446.705 309.933C449.308 314.136 451.28 318.811 450.94 324.052C450.699 328.035 448.25 332.426 444.211 333.438C444.037 333.478 443.902 333.273 444.006 333.128Z" fill="#FFAD9B"/>
<path d="M377.974 381.264C381.451 376.564 383.983 370.626 381.147 365.088C380.017 362.734 377.956 360.45 375.583 359.503C370.821 357.767 364.342 360.886 361.704 365.192C358.022 370.778 359.994 379.632 367.196 380.938C368.526 381.218 369.972 381.265 371.754 380.813C370.21 384.615 364.702 385.298 361.437 383.239C354.354 379.003 353.173 369.13 357.322 362.492C359.343 359.165 362.471 356.691 365.972 355.268C369.611 353.856 373.72 353.369 377.479 354.983C384.548 358.268 388.139 367.029 385.772 374.347C384.685 377.817 381.83 381 378.16 381.593C377.985 381.621 377.87 381.41 377.974 381.277L377.974 381.264Z" fill="#FFAD9B"/>
<path d="M448.704 228.26C449.501 225.533 449.879 223.213 449.733 220.556C449.585 215.691 445.058 212.149 440.451 212.387C433.219 212.789 429.224 222.202 430.308 228.53C431.523 234.086 437.98 231.562 442.223 232.068C440.281 234.806 437.361 236.595 433.862 236.479C421.258 235.441 424.054 217.851 430.934 211.46C438.993 203.206 453.703 208.691 453.654 220.453C453.69 223.694 452.054 227.209 448.989 228.513C448.833 228.584 448.662 228.417 448.722 228.254L448.704 228.26Z" fill="#FFAD9B"/>
<path d="M805.678 353.13C810.908 345.619 808.804 337.105 803.056 330.566C799.599 326.532 796.022 327.918 793.069 331.698C789.949 335.586 787.756 340.336 786.728 345.244C786.442 347.444 785.206 351.373 787.379 352.742C789.802 354.094 793.644 354.174 796.605 354.311C798.321 354.373 800.078 354.315 802.08 354.31C799.41 357.354 795.199 358.568 791.235 358.333C784.172 357.951 780.354 354.505 781.371 347.195C782 340.335 784.698 333.769 789.06 328.411C795.257 320.741 803.385 321.602 808.377 329.935C810.98 334.138 812.952 338.813 812.612 344.055C812.371 348.037 809.922 352.429 805.883 353.44C805.708 353.48 805.574 353.276 805.678 353.13Z" fill="#FFAD9B"/>
<path d="M739.65 401.264C743.126 396.563 745.659 390.626 742.823 385.087C741.693 382.733 739.631 380.449 737.259 379.503C732.496 377.766 726.018 380.885 723.38 385.191C719.697 390.777 721.669 399.632 728.871 400.938C730.202 401.218 731.648 401.265 733.43 400.813C731.886 404.615 726.378 405.298 723.112 403.239C716.029 399.003 714.849 389.129 718.997 382.492C721.018 379.164 724.147 376.69 727.648 375.267C731.287 373.855 735.396 373.368 739.155 374.982C746.224 378.267 749.815 387.028 747.448 394.346C746.361 397.816 743.506 401 739.836 401.593C739.661 401.62 739.545 401.409 739.65 401.276L739.65 401.264Z" fill="#FFAD9B"/>
<path d="M810.383 248.26C811.181 245.533 811.559 243.213 811.413 240.556C811.264 235.691 806.738 232.149 802.131 232.387C794.898 232.789 790.904 242.202 791.987 248.53C793.203 254.086 799.659 251.562 803.902 252.068C801.96 254.806 799.04 256.595 795.541 256.479C782.938 255.441 785.734 237.851 792.614 231.46C800.673 223.206 815.382 228.691 815.334 240.453C815.37 243.694 813.733 247.209 810.668 248.513C810.513 248.584 810.342 248.417 810.402 248.254L810.383 248.26Z" fill="#FFAD9B"/>
<path d="M748.344 293.26C751.284 290.688 751.729 286.583 749.382 283.591C746.652 280.115 739.788 277.966 735.524 278.574C730.098 279.719 727.048 287.855 731.07 291.992C733.932 295.065 738.094 293.113 741.918 293.581C743.522 293.745 745.293 294.219 746.531 295.42C741.765 296.787 737.908 299.022 732.739 298.123C722.129 295.705 721.679 281.954 729.446 275.894C733.728 272.295 739.929 273.222 744.632 275.185C749.408 277.009 754.067 280.617 754.677 286.251C755.187 289.791 752.231 294.196 748.425 293.621C748.255 293.593 748.202 293.368 748.338 293.266L748.344 293.26Z" fill="#FFAD9B"/>
<path d="M683.962 341.319C686.871 337.19 687.792 331.833 685.149 327.444C682.529 322.978 678.208 321.879 673.421 323.866C670.086 325.142 667.33 327.373 666.699 330.792C666.02 334.325 668.938 337.009 671.723 338.712C674.042 340.248 676.375 341.896 678.669 343.851C674.872 343.889 671.252 342.817 667.868 341.148C657.449 335.166 661.418 322.388 671.59 319.007C674.725 317.834 678.333 317.279 681.66 318.462C688.329 320.939 691.768 328.27 690.554 334.958C690.07 338.112 687.589 341.671 684.117 341.655C683.948 341.651 683.857 341.452 683.962 341.319Z" fill="#FFAD9B"/>
<path d="M678.981 447.606C682.031 439.89 676.944 430.232 668.934 428.425C662.49 426.782 656.111 431.501 657.464 438.276C658.597 446.267 663.341 449.686 671.245 449.455C669.215 452.576 664.759 453.319 661.391 451.912C654.653 448.985 651.391 440.519 652.444 433.54C653.168 429.669 655.859 426.425 659.28 424.641C667.829 420.265 678.149 425.509 681.784 433.794C684.001 438.165 684.639 445.626 679.223 447.878C679.055 447.937 678.909 447.757 678.981 447.606Z" fill="#FFAD9B"/>
<path d="M613.991 498.092C619.221 490.581 617.116 482.067 611.369 475.528C607.911 471.494 604.334 472.88 601.382 476.66C598.262 480.548 596.068 485.298 595.041 490.206C594.755 492.406 593.519 496.335 595.691 497.704C598.114 499.056 601.957 499.136 604.918 499.273C606.633 499.335 608.39 499.277 610.392 499.272C607.723 502.315 603.512 503.53 599.548 503.295C592.485 502.913 588.667 499.467 589.684 492.157C590.313 485.297 593.011 478.731 597.372 473.373C603.57 465.703 611.697 466.564 616.69 474.897C619.293 479.1 621.265 483.775 620.924 489.017C620.684 492.999 618.234 497.39 614.196 498.402C614.021 498.442 613.886 498.238 613.991 498.092Z" fill="#FFAD9B"/>
<path d="M618.692 393.223C619.489 390.496 619.867 388.175 619.721 385.518C619.573 380.653 615.047 377.111 610.439 377.349C603.207 377.752 599.213 387.165 600.296 393.492C601.512 399.049 607.968 396.524 612.211 397.03C610.269 399.768 607.349 401.557 603.85 401.441C591.247 400.404 594.042 382.813 600.922 376.422C608.982 368.168 623.691 373.653 623.642 385.416C623.678 388.656 622.042 392.172 618.977 393.475C618.822 393.546 618.65 393.38 618.71 393.216L618.692 393.223Z" fill="#FFAD9B"/>
<path d="M556.645 438.217C559.584 435.645 560.03 431.54 557.682 428.548C554.953 425.073 548.089 422.923 543.825 423.531C538.399 424.676 535.349 432.812 539.371 436.949C542.233 440.022 546.395 438.07 550.218 438.538C551.822 438.702 553.594 439.176 554.832 440.377C550.066 441.744 546.208 443.979 541.04 443.08C530.43 440.662 529.98 426.911 537.747 420.851C542.029 417.252 548.23 418.179 552.933 420.142C557.709 421.966 562.368 425.574 562.978 431.208C563.487 434.748 560.532 439.153 556.726 438.578C556.556 438.55 556.503 438.325 556.639 438.223L556.645 438.217Z" fill="#FFAD9B"/>
<path d="M492.282 486.272C495.192 482.143 496.112 476.787 493.469 472.397C490.849 467.931 486.529 466.833 481.741 468.819C478.407 470.095 475.65 472.326 475.019 475.745C474.34 479.278 477.258 481.962 480.043 483.665C482.362 485.201 484.695 486.849 486.989 488.804C483.192 488.842 479.573 487.77 476.188 486.101C465.769 480.12 469.738 467.341 479.91 463.96C483.046 462.787 486.653 462.232 489.981 463.415C496.65 465.892 500.088 473.223 498.874 479.911C498.39 483.065 495.91 486.624 492.437 486.608C492.268 486.604 492.177 486.405 492.282 486.272Z" fill="#FFAD9B"/>
<path d="M539.222 652.503C541.857 650.474 543.637 648.158 544.775 645.232C546.808 639.758 543.953 632.957 539.072 629.983C533.961 626.687 527.579 628.729 523.238 632.542C521.177 634.424 519.24 636.255 519.714 639.12C520.366 645.448 524.376 650.449 530.396 652.592C526.949 654.708 522.214 653.071 519.624 650.214C515.952 646.058 512.99 638.363 515.991 633.188C519.2 628.191 524.196 624.669 530.121 623.442C542.802 620.905 553.294 635.106 548.413 646.704C546.921 650.236 543.256 653.25 539.328 652.852C539.146 652.836 539.092 652.599 539.228 652.497L539.222 652.503Z" fill="#FFAD9B"/>
<path d="M477.746 704.384C481.73 700.138 484.179 693.232 480.644 688.211C474.823 680.541 463.946 681.98 458.623 689.561C455.615 693.792 453.129 700.774 459.681 702.965C462.672 704.228 465.527 704.817 468.932 705.348C466.069 707.968 461.72 708.322 458.123 707.087C443.717 702.279 452.752 683.112 463.399 679.33C472.555 675.307 485.203 681.023 486.361 691.454C487.113 697.017 484.087 704.188 477.913 704.719C477.732 704.728 477.641 704.504 477.758 704.383L477.746 704.384Z" fill="#FFAD9B"/>
<path d="M548.435 545.627C551.484 537.911 546.397 528.253 538.387 526.446C531.943 524.803 525.564 529.522 526.917 536.296C528.05 544.288 532.794 547.707 540.698 547.476C538.668 550.597 534.212 551.34 530.844 549.933C524.106 547.006 520.844 538.54 521.897 531.561C522.621 527.69 525.313 524.446 528.733 522.662C537.282 518.286 547.603 523.53 551.237 531.815C553.454 536.186 554.092 543.647 548.676 545.899C548.508 545.958 548.362 545.778 548.435 545.627Z" fill="#FFAD9B"/>
<path d="M483.44 596.115C488.67 588.604 486.565 580.089 480.818 573.55C477.36 569.517 473.784 570.903 470.831 574.682C467.711 578.57 465.518 583.32 464.49 588.228C464.204 590.428 462.968 594.357 465.141 595.726C467.563 597.079 471.406 597.159 474.367 597.296C476.082 597.357 477.84 597.3 479.841 597.295C477.172 600.338 472.961 601.552 468.997 601.318C461.934 600.936 458.116 597.489 459.133 590.179C459.762 583.319 462.46 576.753 466.821 571.395C473.019 563.726 481.146 564.586 486.139 572.92C488.742 577.122 490.714 581.798 490.373 587.039C490.133 591.022 487.684 595.413 483.645 596.424C483.47 596.465 483.336 596.26 483.44 596.115Z" fill="#FFAD9B"/>
<path d="M417.415 644.247C420.892 639.546 423.424 633.608 420.589 628.07C419.458 625.716 417.397 623.432 415.024 622.486C410.262 620.749 403.784 623.868 401.145 628.174C397.463 633.76 399.435 642.615 406.637 643.92C407.967 644.201 409.413 644.248 411.196 643.796C409.651 647.598 404.143 648.281 400.878 646.222C393.795 641.986 392.615 632.112 396.763 625.475C398.784 622.147 401.913 619.673 405.414 618.25C409.052 616.838 413.162 616.351 416.921 617.965C423.99 621.25 427.581 630.011 425.213 637.329C424.127 640.799 421.271 643.982 417.602 644.576C417.427 644.603 417.311 644.392 417.415 644.259L417.415 644.247Z" fill="#FFAD9B"/>
<path d="M426.106 536.245C429.045 533.673 429.491 529.569 427.143 526.576C424.414 523.101 417.549 520.952 413.286 521.56C407.86 522.705 404.81 530.84 408.832 534.978C411.694 538.05 415.856 536.098 419.679 536.567C421.283 536.73 423.055 537.204 424.293 538.406C419.527 539.772 415.669 542.007 410.501 541.109C399.891 538.69 399.441 524.939 407.208 518.879C411.49 515.28 417.691 516.207 422.394 518.17C427.17 519.994 431.829 523.603 432.439 529.237C432.948 532.776 429.993 537.181 426.186 536.607C426.017 536.578 425.964 536.353 426.1 536.251L426.106 536.245Z" fill="#FFAD9B"/>
<path d="M361.735 584.308C364.645 580.179 365.565 574.823 362.922 570.433C360.302 565.968 355.982 564.869 351.194 566.855C347.86 568.131 345.103 570.362 344.472 573.781C343.793 577.314 346.712 579.998 349.496 581.702C351.815 583.237 354.148 584.885 356.443 586.84C352.646 586.878 349.026 585.807 345.641 584.137C335.222 578.156 339.191 565.377 349.363 561.996C352.499 560.823 356.107 560.268 359.434 561.451C366.103 563.929 369.541 571.259 368.328 577.947C367.843 581.101 365.363 584.661 361.89 584.644C361.721 584.64 361.631 584.441 361.735 584.308Z" fill="#FFAD9B"/>
<path d="M406.968 746.676C407.698 746.558 408.059 746.021 408.457 745.471C409.627 743.808 410.394 741.938 410.803 739.993C412.025 734.744 407.67 727.571 402.647 726.001C398.317 725.546 393.832 728.517 391.185 731.816C390.48 732.759 390.076 733.34 390.104 734.416C391.313 745.365 394.426 743.911 402.83 748.183C399.593 749.677 396.074 749.936 392.723 748.422C387.469 745.998 385.671 739.975 385.059 734.673C384.737 729.022 390.747 724.252 395.414 722.212C398.79 720.741 403.334 720.097 406.634 722.337C412.556 726.321 416.441 733.814 414.608 740.899C413.934 743.512 412.187 745.959 409.676 747.073C408.837 747.442 407.584 747.717 406.841 747.009C406.714 746.886 406.811 746.672 406.974 746.669L406.968 746.676Z" fill="#FFAD9B"/>
<path d="M347.527 797.461C350.162 795.432 351.941 793.115 353.08 790.189C355.112 784.716 352.257 777.914 347.377 774.941C342.266 771.645 335.884 773.686 331.543 777.499C329.482 779.382 327.545 781.213 328.019 784.077C328.671 790.405 332.681 795.406 338.701 797.55C335.254 799.666 330.518 798.029 327.929 795.171C324.257 791.016 321.295 783.321 324.295 778.146C327.505 773.149 332.501 769.627 338.426 768.399C351.107 765.863 361.599 780.064 356.718 791.661C355.226 795.193 351.561 798.208 347.632 797.81C347.451 797.794 347.397 797.557 347.533 797.455L347.527 797.461Z" fill="#FFAD9B"/>
<path d="M286.05 849.347C290.034 845.102 292.483 838.196 288.948 833.175C283.128 825.504 272.251 826.944 266.928 834.525C263.919 838.755 261.434 845.737 267.986 847.929C270.977 849.191 273.832 849.781 277.237 850.311C274.373 852.932 270.024 853.285 266.427 852.05C252.022 847.242 261.056 828.075 271.704 824.293C280.859 820.271 293.508 825.987 294.665 836.417C295.418 841.98 292.391 849.152 286.218 849.682C286.037 849.691 285.946 849.467 286.063 849.347L286.05 849.347Z" fill="#FFAD9B"/>
<path d="M356.743 690.591C359.793 682.875 354.706 673.216 346.696 671.409C340.252 669.767 333.872 674.486 335.225 681.26C336.359 689.251 341.102 692.671 349.007 692.44C346.976 695.561 342.521 696.303 339.152 694.896C332.414 691.969 329.153 683.503 330.206 676.524C330.93 672.653 333.621 669.409 337.042 667.625C345.591 663.249 355.911 668.493 359.545 676.778C361.763 681.15 362.4 688.61 356.985 690.862C356.817 690.921 356.67 690.742 356.743 690.591Z" fill="#FFAD9B"/>
<path d="M291.756 741.076C296.987 733.565 294.882 725.05 289.134 718.511C285.677 714.477 282.1 715.864 279.147 719.643C276.028 723.531 273.834 728.281 272.807 733.189C272.52 735.389 271.284 739.318 273.457 740.687C275.88 742.04 279.722 742.12 282.684 742.257C284.399 742.318 286.156 742.261 288.158 742.256C285.488 745.299 281.277 746.513 277.313 746.279C270.251 745.897 266.433 742.45 267.449 735.14C268.078 728.28 270.776 721.714 275.138 716.356C281.335 708.687 289.463 709.547 294.455 717.881C297.058 722.083 299.03 726.758 298.69 732C298.449 735.983 296 740.374 291.961 741.385C291.787 741.426 291.652 741.221 291.756 741.076Z" fill="#FFAD9B"/>
<path d="M225.724 789.21C229.201 784.51 231.733 778.572 228.897 773.034C227.767 770.68 225.706 768.396 223.333 767.449C218.571 765.712 212.092 768.831 209.454 773.138C205.772 778.723 207.744 787.578 214.946 788.884C216.276 789.164 217.722 789.211 219.504 788.759C217.96 792.561 212.452 793.244 209.187 791.185C202.104 786.949 200.923 777.076 205.072 770.438C207.093 767.111 210.221 764.636 213.722 763.214C217.361 761.802 221.47 761.314 225.229 762.929C232.298 766.213 235.889 774.975 233.522 782.293C232.435 785.762 229.58 788.946 225.91 789.539C225.735 789.567 225.62 789.356 225.724 789.223L225.724 789.21Z" fill="#FFAD9B"/>
<path d="M296.454 636.208C297.251 633.48 297.629 631.16 297.483 628.503C297.335 623.638 292.808 620.096 288.201 620.334C280.969 620.737 276.974 630.15 278.058 636.477C279.273 642.034 285.73 639.509 289.973 640.015C288.031 642.753 285.111 644.542 281.612 644.426C269.008 643.389 271.804 625.798 278.684 619.407C286.743 611.153 301.453 616.638 301.404 628.401C301.44 631.641 299.804 635.156 296.739 636.46C296.583 636.531 296.412 636.365 296.472 636.201L296.454 636.208Z" fill="#FFAD9B"/>
<path d="M306.78 435.155C312.01 427.644 309.905 419.129 304.158 412.59C300.7 408.557 297.123 409.943 294.171 413.722C291.051 417.61 288.857 422.36 287.83 427.268C287.544 429.469 286.308 433.397 288.48 434.766C290.903 436.119 294.746 436.199 297.707 436.336C299.422 436.398 301.179 436.34 303.181 436.335C300.512 439.378 296.301 440.592 292.337 440.358C285.274 439.976 281.456 436.529 282.473 429.219C283.102 422.359 285.8 415.793 290.161 410.435C296.359 402.766 304.486 403.626 309.479 411.96C312.082 416.162 314.054 420.838 313.713 426.079C313.473 430.062 311.023 434.453 306.985 435.465C306.81 435.505 306.676 435.3 306.78 435.155Z" fill="#FFAD9B"/>
<path d="M360.607 486.201C364.083 481.501 366.616 475.563 363.78 470.025C362.65 467.671 360.588 465.387 358.216 464.44C353.454 462.704 346.975 465.823 344.337 470.129C340.654 475.715 342.626 484.569 349.828 485.875C351.159 486.155 352.605 486.202 354.387 485.75C352.843 489.552 347.335 490.236 344.069 488.176C336.986 483.94 335.806 474.067 339.954 467.429C341.975 464.102 345.104 461.628 348.605 460.205C352.244 458.793 356.353 458.306 360.112 459.92C367.181 463.205 370.772 471.966 368.405 479.284C367.318 482.754 364.463 485.937 360.793 486.53C360.618 486.558 360.502 486.347 360.607 486.214L360.607 486.201Z" fill="#FFAD9B"/>
<path d="M311.489 330.283C312.286 327.556 312.664 325.235 312.518 322.578C312.37 317.713 307.844 314.171 303.236 314.409C296.004 314.812 292.009 324.225 293.093 330.553C294.309 336.109 300.765 333.584 305.008 334.09C303.066 336.828 300.146 338.618 296.647 338.501C284.044 337.464 286.839 319.873 293.719 313.482C301.778 305.228 316.488 310.713 316.439 322.476C316.475 325.716 314.839 329.232 311.774 330.535C311.619 330.606 311.447 330.44 311.507 330.276L311.489 330.283Z" fill="#FFAD9B"/>
<path d="M249.446 375.283C252.385 372.711 252.83 368.607 250.483 365.614C247.753 362.139 240.889 359.99 236.625 360.598C231.2 361.743 228.15 369.878 232.172 374.016C235.033 377.088 239.196 375.136 243.019 375.605C244.623 375.768 246.395 376.242 247.633 377.444C242.867 378.81 239.009 381.045 233.84 380.147C223.231 377.728 222.781 363.977 230.548 357.917C234.829 354.318 241.031 355.245 245.734 357.208C250.51 359.032 255.168 362.641 255.778 368.275C256.288 371.815 253.333 376.22 249.526 375.645C249.357 375.616 249.304 375.392 249.44 375.289L249.446 375.283Z" fill="#FFAD9B"/>
<path d="M531.715 749.265C534.625 745.136 535.546 739.78 532.903 735.39C530.283 730.925 525.962 729.826 521.175 731.812C517.84 733.088 515.083 735.319 514.453 738.738C513.774 742.271 516.692 744.955 519.477 746.659C521.796 748.194 524.129 749.842 526.423 751.797C522.626 751.835 519.006 750.764 515.622 749.094C505.203 743.113 509.172 730.334 519.344 726.953C522.479 725.78 526.087 725.225 529.414 726.408C536.083 728.886 539.522 736.217 538.308 742.904C537.824 746.058 535.343 749.618 531.871 749.601C531.702 749.597 531.611 749.398 531.715 749.265Z" fill="#FFAD9B"/>
<path d="M305.942 529.375C308.992 521.659 303.905 512 295.895 510.194C289.451 508.551 283.072 513.27 284.425 520.044C285.558 528.035 290.301 531.455 298.206 531.224C296.176 534.345 291.72 535.087 288.352 533.68C281.613 530.753 278.352 522.287 279.405 515.308C280.129 511.437 282.82 508.194 286.241 506.409C294.79 502.033 305.11 507.277 308.744 515.563C310.962 519.934 311.6 527.394 306.184 529.646C306.016 529.705 305.87 529.526 305.942 529.375Z" fill="#FFAD9B"/>
<path d="M240.948 579.86C246.178 572.349 244.073 563.835 238.326 557.296C234.868 553.262 231.291 554.648 228.339 558.428C225.219 562.316 223.025 567.066 221.998 571.974C221.712 574.174 220.476 578.103 222.648 579.472C225.071 580.824 228.914 580.904 231.875 581.041C233.59 581.103 235.347 581.045 237.349 581.04C234.68 584.083 230.469 585.298 226.505 585.063C219.442 584.681 215.624 581.235 216.641 573.925C217.27 567.065 219.968 560.499 224.329 555.141C230.527 547.471 238.654 548.332 243.647 556.665C246.25 560.868 248.222 565.543 247.881 570.785C247.641 574.767 245.191 579.159 241.153 580.17C240.978 580.21 240.844 580.006 240.948 579.86Z" fill="#FFAD9B"/>
<path d="M466.438 801.171C467.235 798.443 467.613 796.123 467.467 793.466C467.319 788.601 462.793 785.059 458.185 785.297C450.953 785.7 446.959 795.113 448.042 801.44C449.258 806.996 455.714 804.472 459.957 804.978C458.015 807.716 455.095 809.505 451.596 809.389C438.993 808.352 441.788 790.761 448.668 784.37C456.728 776.116 471.437 781.601 471.388 793.364C471.424 796.604 469.788 800.119 466.723 801.423C466.568 801.494 466.396 801.328 466.457 801.164L466.438 801.171Z" fill="#FFAD9B"/>
<path d="M404.399 846.164C407.338 843.593 407.784 839.488 405.436 836.495C402.707 833.02 395.842 830.871 391.578 831.479C386.153 832.624 383.103 840.759 387.125 844.897C389.986 847.97 394.149 846.018 397.972 846.486C399.576 846.65 401.348 847.124 402.586 848.325C397.82 849.692 393.962 851.927 388.794 851.028C378.184 848.61 377.734 834.859 385.501 828.799C389.783 825.2 395.984 826.127 400.687 828.089C405.463 829.913 410.122 833.522 410.732 839.156C411.241 842.696 408.286 847.101 404.479 846.526C404.31 846.497 404.257 846.273 404.393 846.171L404.399 846.164Z" fill="#FFAD9B"/>
<path d="M340.036 894.219C342.946 890.09 343.866 884.733 341.223 880.343C338.603 875.878 334.282 874.779 329.495 876.766C326.161 878.042 323.404 880.273 322.773 883.692C322.094 887.225 325.012 889.909 327.797 891.612C330.116 893.148 332.449 894.796 334.743 896.751C330.946 896.789 327.327 895.717 323.942 894.047C313.523 888.066 317.492 875.288 327.664 871.907C330.8 870.734 334.407 870.179 337.735 871.362C344.404 873.839 347.842 881.17 346.628 887.858C346.144 891.012 343.663 894.571 340.191 894.555C340.022 894.551 339.931 894.352 340.036 894.219Z" fill="#FFAD9B"/>
</svg>
