<svg width="400" height="918" viewBox="0 0 400 918" fill="none" xmlns="http://www.w3.org/2000/svg">
<path d="M236.397 868.934C243.75 861.812 251.753 855.428 260.403 849.943C262.333 848.716 264.42 846.768 266.418 848.717C267.679 849.946 268.384 852.57 269.362 854.08C271.775 857.786 274.803 860.98 278.293 863.687C280.55 865.432 283.636 862.183 281.357 860.416C276.442 856.608 273.498 852.137 270.482 846.818C268.541 843.386 265.368 842.363 261.749 843.998C256.398 846.408 251.378 850.483 246.757 854.055C242.135 857.627 237.456 861.69 233.13 865.876C231.058 867.878 234.329 870.942 236.401 868.94L236.397 868.934Z" fill="#8AA99D"/>
<path d="M301.963 899.918C308.375 894.892 315.121 890.323 322.22 886.315C323.772 885.436 325.562 884.098 327.276 883.585C329.878 882.813 331.06 884.422 332.575 886.443C335.172 889.911 337.292 893.679 339.088 897.619C340.282 900.239 344.087 897.873 342.909 895.279C340.686 890.394 337.938 885.688 334.43 881.608C332.183 878.989 329.708 877.779 326.33 879.106C316.771 882.86 307.634 889.814 299.623 896.096C297.383 897.852 299.691 901.693 301.963 899.918Z" fill="#8AA99D"/>
<path d="M341.147 819.951C334.843 824.598 328.647 830.037 321.701 833.71C318.407 835.45 312.76 838.006 309.96 834.44C307.308 831.059 305.272 826.989 302.988 823.348C301.458 820.907 297.633 823.241 299.167 825.688C301.795 829.878 304.179 835.594 307.912 838.902C310.622 841.299 314.491 840.905 317.742 840.084C327.368 837.665 335.681 829.527 343.471 823.774C345.774 822.077 343.453 818.244 341.13 819.953L341.147 819.951Z" fill="#8AA99D"/>
<path d="M239.658 801.873C247.012 794.752 255.014 788.368 263.665 782.882C265.595 781.656 267.681 779.708 269.679 781.656C270.941 782.885 271.646 785.51 272.624 787.02C275.036 790.725 278.065 793.92 281.554 796.626C283.812 798.371 286.898 795.123 284.618 793.356C279.703 789.547 276.76 785.077 273.744 779.757C271.803 776.326 268.63 775.302 265.011 776.937C259.66 779.348 254.64 783.423 250.018 786.995C245.397 790.567 240.718 794.63 236.392 798.816C234.32 800.817 237.591 803.881 239.662 801.88L239.658 801.873Z" fill="#8AA99D"/>
<path d="M344.409 752.891C338.105 757.538 331.909 762.977 324.963 766.65C321.668 768.39 316.022 770.946 313.221 767.379C310.57 763.999 308.534 759.929 306.25 756.288C304.72 753.847 300.894 756.181 302.429 758.628C305.057 762.818 307.441 768.534 311.173 771.842C313.883 774.239 317.752 773.845 321.003 773.024C330.629 770.605 338.943 762.467 346.732 756.714C349.035 755.017 346.715 751.184 344.392 752.892L344.409 752.891Z" fill="#8AA99D"/>
<path d="M150.156 424.49C142.627 431.427 134.469 437.61 125.684 442.879C123.724 444.057 121.59 445.952 119.641 443.954C118.41 442.694 117.771 440.053 116.831 438.519C114.511 434.755 111.563 431.486 108.142 428.694C105.929 426.893 102.763 430.064 104.998 431.887C109.816 435.817 112.648 440.359 115.531 445.752C117.386 449.231 120.533 450.332 124.191 448.788C129.6 446.511 134.72 442.563 139.429 439.107C144.138 435.65 148.916 431.705 153.345 427.628C155.466 425.679 152.273 422.534 150.152 424.484L150.156 424.49Z" fill="#8AA99D"/>
<path d="M168.992 401.008C176.521 394.071 184.679 387.888 193.464 382.62C195.423 381.442 197.558 379.546 199.506 381.544C200.737 382.804 201.377 385.445 202.317 386.979C204.636 390.743 207.585 394.012 211.005 396.804C213.219 398.605 216.385 395.435 214.15 393.611C209.331 389.682 206.5 385.139 203.617 379.746C201.762 376.268 198.615 375.166 194.957 376.71C189.548 378.987 184.428 382.936 179.719 386.392C175.01 389.848 170.231 393.793 165.803 397.87C163.682 399.82 166.875 402.964 168.996 401.015L168.992 401.008Z" fill="#8AA99D"/>
<path d="M352.582 423.703C360.11 416.767 368.269 410.584 377.054 405.315C379.013 404.137 381.148 402.241 383.096 404.239C384.327 405.499 384.966 408.14 385.907 409.674C388.226 413.439 391.174 416.707 394.595 419.5C396.809 421.3 399.975 418.13 397.74 416.306C392.921 412.377 390.09 407.835 387.207 402.442C385.352 398.963 382.205 397.861 378.547 399.406C373.137 401.682 368.018 405.631 363.309 409.087C358.6 412.543 353.821 416.488 349.392 420.566C347.272 422.515 350.465 425.659 352.586 423.71L352.582 423.703Z" fill="#8AA99D"/>
<path d="M270.1 414.244C262.204 419.025 255.561 425.467 247.952 430.654C246.189 431.851 244.285 433.339 242.263 434.043C239.829 434.888 238.578 433.032 237.06 431.322C233.811 427.655 231.274 423.515 229.224 419.075C228.02 416.461 224.149 418.719 225.346 421.319C227.562 426.121 230.404 430.561 233.916 434.515C236.845 437.812 239.498 439.993 243.968 438.207C248.748 436.304 253.061 432.558 257.06 429.398C262.041 425.468 266.892 421.419 272.334 418.12C274.801 416.631 272.563 412.749 270.09 414.242L270.1 414.244Z" fill="#8AA99D"/>
<path d="M240.76 742.051C248.114 734.929 256.116 728.545 264.767 723.06C266.696 721.833 268.783 719.885 270.781 721.834C272.043 723.063 272.747 725.688 273.726 727.197C276.138 730.903 279.167 734.097 282.656 736.804C284.913 738.549 288 735.301 285.72 733.533C280.805 729.725 277.862 725.254 274.845 719.935C272.905 716.503 269.731 715.48 266.113 717.115C260.761 719.526 255.742 723.6 251.12 727.173C246.498 730.745 241.82 734.807 237.493 738.994C235.422 740.995 238.692 744.059 240.764 742.058L240.76 742.051Z" fill="#8AA99D"/>
<path d="M361.409 667.441C367.821 662.415 374.566 657.846 381.665 653.839C383.217 652.96 385.008 651.622 386.722 651.109C389.323 650.337 390.505 651.946 392.02 653.967C394.617 657.435 396.737 661.203 398.533 665.143C399.727 667.763 403.532 665.397 402.355 662.803C400.132 657.918 397.383 653.211 393.875 649.132C391.628 646.513 389.154 645.303 385.775 646.63C376.216 650.384 367.079 657.338 359.068 663.62C356.828 665.376 359.136 669.217 361.409 667.441Z" fill="#8AA99D"/>
<path d="M345.511 693.065C339.206 697.712 333.011 703.15 326.065 706.823C322.77 708.564 317.123 711.119 314.323 707.553C311.672 704.173 309.635 700.103 307.352 696.461C305.821 694.021 301.996 696.355 303.53 698.802C306.159 702.991 308.542 708.708 312.275 712.016C314.985 714.413 318.854 714.018 322.105 713.198C331.731 710.779 340.044 702.641 347.834 696.888C350.137 695.191 347.816 691.358 345.494 693.066L345.511 693.065Z" fill="#8AA99D"/>
<path d="M222.518 766.001C215.165 773.123 207.162 779.507 198.511 784.993C196.582 786.219 194.495 788.167 192.497 786.218C191.235 784.989 190.531 782.365 189.553 780.855C187.14 777.149 184.112 773.955 180.622 771.249C178.365 769.503 175.279 772.752 177.558 774.519C182.473 778.327 185.417 782.798 188.433 788.117C190.374 791.549 193.547 792.572 197.166 790.937C202.517 788.527 207.537 784.452 212.158 780.88C216.78 777.308 221.459 773.245 225.785 769.059C227.856 767.057 224.586 763.993 222.514 765.995L222.518 766.001Z" fill="#8AA99D"/>
<path d="M115.883 819.133C123.657 814.158 130.139 807.552 137.616 802.178C139.349 800.938 141.215 799.402 143.219 798.648C145.632 797.743 146.928 799.567 148.488 801.239C151.827 804.824 154.466 808.9 156.626 813.288C157.895 815.87 161.708 813.517 160.447 810.947C158.113 806.202 155.161 801.835 151.552 797.969C148.541 794.746 145.835 792.632 141.411 794.528C136.68 796.55 132.462 800.402 128.542 803.66C123.66 807.713 118.912 811.881 113.553 815.315C111.124 816.865 113.458 820.69 115.893 819.136L115.883 819.133Z" fill="#8AA99D"/>
<path d="M98.095 846.245L98.254 846.344C99.0702 846.845 100.329 846.61 100.949 845.9C101.644 845.109 101.903 844.306 101.585 843.277C101.305 842.367 100.379 841.585 99.3865 841.656C96.803 841.844 95.3003 844.615 93.6351 846.331C90.5753 849.492 87.261 852.397 83.7088 855.002C80.359 857.455 75.3946 862.015 71.8751 857.566C69.3922 854.431 67.9453 850.098 66.1877 846.528C64.9147 843.939 61.1053 846.298 62.3664 848.868C65.4288 855.08 69.3898 867.283 78.639 863.504C82.7929 861.809 86.6603 858.493 90.0877 855.67C91.9402 854.143 93.7319 852.545 95.4445 850.862C96.4251 849.895 97.3898 848.902 98.3256 847.891L99.2534 846.867C100.441 845.8 100.516 845.558 99.4807 846.129L97.282 844.509L97.3588 844.766L97.8752 842.618L97.6785 842.836L100.373 842.392L100.214 842.293C97.7619 840.784 95.649 844.732 98.095 846.245Z" fill="#8AA99D"/>
<path d="M244.022 674.99C251.375 667.869 259.378 661.485 268.028 655.999C269.958 654.773 272.045 652.825 274.043 654.774C275.304 656.003 276.009 658.627 276.987 660.137C279.4 663.843 282.428 667.037 285.918 669.743C288.175 671.489 291.261 668.24 288.982 666.473C284.067 662.664 281.123 658.194 278.107 652.874C276.166 649.443 272.993 648.42 269.374 650.055C264.023 652.465 259.003 656.54 254.382 660.112C249.76 663.684 245.081 667.747 240.755 671.933C238.683 673.935 241.954 676.998 244.026 674.997L244.022 674.99Z" fill="#8AA99D"/>
<path d="M364.666 600.384C371.079 595.358 377.824 590.789 384.923 586.781C386.475 585.902 388.265 584.564 389.979 584.051C392.581 583.28 393.763 584.888 395.278 586.91C397.875 590.377 399.995 594.145 401.791 598.085C402.985 600.705 406.79 598.339 405.612 595.745C403.389 590.86 400.641 586.154 397.133 582.074C394.886 579.456 392.411 578.245 389.033 579.573C379.474 583.327 370.337 590.28 362.326 596.563C360.086 598.319 362.394 602.16 364.666 600.384Z" fill="#8AA99D"/>
<path d="M348.772 626.005C342.468 630.652 336.272 636.09 329.326 639.763C326.032 641.504 320.385 644.059 317.585 640.493C314.933 637.113 312.897 633.043 310.613 629.401C309.083 626.961 305.258 629.294 306.792 631.742C309.42 635.931 311.804 641.647 315.537 644.956C318.247 647.353 322.116 646.958 325.367 646.138C334.993 643.719 343.306 635.581 351.096 629.828C353.399 628.131 351.078 624.298 348.755 626.006L348.772 626.005Z" fill="#8AA99D"/>
<path d="M225.776 698.944C218.422 706.065 210.42 712.449 201.769 717.935C199.84 719.161 197.753 721.109 195.755 719.161C194.493 717.932 193.789 715.307 192.81 713.797C190.398 710.092 187.369 706.897 183.88 704.191C181.623 702.446 178.536 705.694 180.816 707.461C185.731 711.27 188.674 715.74 191.691 721.06C193.631 724.491 196.805 725.515 200.423 723.879C205.775 721.469 210.794 717.394 215.416 713.822C220.038 710.25 224.717 706.187 229.043 702.001C231.114 700 227.844 696.936 225.772 698.937L225.776 698.944Z" fill="#8AA99D"/>
<path d="M119.148 752.07C126.923 747.095 133.404 740.489 140.881 735.115C142.615 733.875 144.48 732.339 146.485 731.585C148.897 730.68 150.193 732.504 151.753 734.176C155.092 737.761 157.732 741.837 159.891 746.225C161.16 748.807 164.974 746.454 163.713 743.884C161.379 739.139 158.427 734.772 154.817 730.906C151.807 727.683 149.1 725.569 144.677 727.465C139.945 729.487 135.727 733.339 131.807 736.597C126.926 740.65 122.178 744.818 116.819 748.252C114.39 749.802 116.724 753.627 119.159 752.073L119.148 752.07Z" fill="#8AA99D"/>
<path d="M101.353 779.182L101.512 779.281C102.328 779.782 103.587 779.547 104.207 778.837C104.901 778.045 105.161 777.243 104.843 776.213C104.563 775.303 103.637 774.521 102.644 774.593C100.061 774.781 98.5581 777.551 96.8929 779.268C93.8332 782.428 90.5189 785.334 86.9666 787.938C83.6169 790.392 78.6525 794.951 75.133 790.503C72.65 787.367 71.2031 783.035 69.4455 779.465C68.1725 776.875 64.3632 779.235 65.6242 781.805C68.6866 788.016 72.6477 800.219 81.8968 796.44C86.0507 794.745 89.9181 791.43 93.3455 788.607C95.198 787.079 96.9897 785.482 98.7023 783.798C99.6829 782.831 100.648 781.839 101.583 780.828L102.511 779.804C103.699 778.737 103.774 778.494 102.738 779.066L100.54 777.445L100.617 777.702L101.133 775.554L100.936 775.773L103.631 775.329L103.472 775.23C101.02 773.72 98.9068 777.668 101.353 779.182Z" fill="#8AA99D"/>
<path d="M4.92812 820.688C11.3403 815.662 18.086 811.093 25.1844 807.085C26.737 806.206 28.5272 804.868 30.2412 804.355C32.8429 803.583 34.0247 805.192 35.5395 807.213C38.1365 810.681 40.2567 814.449 42.0529 818.389C43.2464 821.009 47.0518 818.643 45.8742 816.049C43.6512 811.164 40.903 806.458 37.3947 802.378C35.1478 799.759 32.6731 798.549 29.2948 799.876C19.7357 803.63 10.5989 810.584 2.58795 816.866C0.348029 818.622 2.65571 822.463 4.92812 820.688Z" fill="#8AA99D"/>
<path d="M182.803 647.408C190.157 640.287 198.159 633.903 206.81 628.417C208.739 627.191 210.826 625.243 212.824 627.192C214.086 628.421 214.79 631.045 215.769 632.555C218.181 636.261 221.209 639.455 224.699 642.161C226.956 643.906 230.042 640.658 227.763 638.891C222.848 635.082 219.905 630.612 216.888 625.292C214.948 621.861 211.774 620.837 208.156 622.473C202.804 624.883 197.785 628.958 193.163 632.53C188.541 636.102 183.862 640.165 179.536 644.351C177.465 646.352 180.735 649.416 182.807 647.415L182.803 647.408Z" fill="#8AA99D"/>
<path d="M399.876 531.297L400.035 531.396C400.851 531.897 402.111 531.662 402.73 530.952C403.425 530.16 403.684 529.358 403.366 528.328C403.086 527.419 402.16 526.636 401.168 526.708C398.584 526.896 397.082 529.666 395.416 531.383C392.357 534.544 389.042 537.449 385.49 540.053C382.14 542.507 377.176 547.066 373.656 542.618C371.173 539.483 369.727 535.15 367.969 531.58C366.696 528.99 362.887 531.35 364.148 533.92C367.21 540.132 371.171 552.334 380.42 548.556C384.574 546.861 388.441 543.545 391.869 540.722C393.721 539.195 395.513 537.597 397.226 535.914C398.206 534.947 399.171 533.954 400.107 532.943L401.035 531.919C402.222 530.852 402.297 530.61 401.262 531.181L399.063 529.561L399.14 529.818L399.656 527.669L399.46 527.888L402.155 527.444L401.996 527.345C399.543 525.835 397.43 529.783 399.876 531.297Z" fill="#8AA99D"/>
<path d="M303.448 572.799C309.86 567.773 316.606 563.204 323.704 559.197C325.257 558.318 327.047 556.98 328.761 556.466C331.363 555.695 332.544 557.304 334.059 559.325C336.656 562.792 338.776 566.561 340.572 570.501C341.766 573.121 345.571 570.755 344.394 568.161C342.171 563.276 339.423 558.569 335.914 554.489C333.667 551.871 331.193 550.661 327.814 551.988C318.255 555.742 309.118 562.696 301.107 568.978C298.868 570.734 301.175 574.575 303.448 572.799Z" fill="#8AA99D"/>
<path d="M287.554 598.423C281.249 603.07 275.054 608.508 268.108 612.181C264.813 613.922 259.166 616.477 256.366 612.911C253.715 609.531 251.678 605.461 249.394 601.819C247.864 599.379 244.039 601.712 245.573 604.16C248.202 608.349 250.585 614.065 254.318 617.374C257.028 619.771 260.897 619.376 264.148 618.556C273.774 616.137 282.087 607.999 289.877 602.245C292.18 600.549 289.859 596.716 287.537 598.424L287.554 598.423Z" fill="#8AA99D"/>
<path d="M164.561 671.36C157.207 678.481 149.205 684.865 140.554 690.351C138.625 691.577 136.538 693.525 134.54 691.577C133.278 690.348 132.574 687.723 131.595 686.213C129.183 682.508 126.155 679.313 122.665 676.607C120.408 674.862 117.322 678.11 119.601 679.877C124.516 683.686 127.46 688.156 130.476 693.476C132.417 696.907 135.59 697.931 139.209 696.296C144.56 693.885 149.579 689.81 154.201 686.238C158.823 682.666 163.502 678.603 167.828 674.417C169.899 672.416 166.629 669.352 164.557 671.353L164.561 671.36Z" fill="#8AA99D"/>
<path d="M402.171 17.7725C394.643 24.7092 386.484 30.8922 377.7 36.1607C375.74 37.3388 373.606 39.2344 371.657 37.2364C370.426 35.9765 369.787 33.3353 368.846 31.8016C366.527 28.0371 363.579 24.7685 360.158 21.9761C357.945 20.1752 354.778 23.3459 357.014 25.1693C361.832 29.0987 364.663 33.6412 367.547 39.034C369.401 42.5128 372.548 43.6147 376.206 42.07C381.616 39.7936 386.735 35.8448 391.444 32.3888C396.154 28.9327 400.932 24.9877 405.361 20.9103C407.482 18.9609 404.288 15.8165 402.168 17.7659L402.171 17.7725Z" fill="#8AA99D"/>
<path d="M57.9296 724.498C65.7042 719.523 72.1857 712.917 79.6625 707.543C81.3961 706.303 83.2616 704.767 85.2662 704.013C87.6785 703.108 88.9746 704.932 90.5346 706.604C93.8738 710.189 96.5129 714.265 98.6726 718.652C99.9416 721.235 103.755 718.882 102.494 716.312C100.16 711.567 97.2082 707.2 93.5985 703.334C90.5881 700.11 87.8818 697.997 83.4579 699.893C78.7266 701.914 74.5087 705.766 70.5886 709.025C65.7072 713.078 60.9588 717.246 55.6 720.679C53.1713 722.229 55.5049 726.055 57.9401 724.501L57.9296 724.498Z" fill="#8AA99D"/>
<path d="M182.278 128.446L182.121 128.343C181.318 127.822 180.053 128.025 179.416 128.72C178.702 129.494 178.423 130.289 178.715 131.327C178.972 132.243 179.879 133.048 180.873 133.001C183.46 132.877 185.031 130.146 186.739 128.471C189.876 125.387 193.262 122.565 196.878 120.05C200.287 117.68 205.363 113.246 208.771 117.781C211.175 120.976 212.514 125.344 214.182 128.957C215.391 131.577 219.257 129.313 218.061 126.712C215.154 120.426 211.497 108.129 202.157 111.677C197.962 113.268 194.014 116.486 190.517 119.223C188.627 120.704 186.796 122.256 185.042 123.897C184.038 124.839 183.049 125.807 182.088 126.795L181.135 127.795C179.922 128.832 179.841 129.073 180.89 128.527L183.048 130.202L182.977 129.943L182.407 132.078L182.61 131.864L179.904 132.241L180.061 132.344C182.475 133.914 184.686 130.02 182.278 128.446Z" fill="#8AA99D"/>
<path d="M279.706 89.3549C273.171 94.2199 266.313 98.6197 259.118 102.449C257.544 103.29 255.721 104.583 253.994 105.053C251.374 105.759 250.233 104.122 248.769 102.064C246.259 98.5328 244.233 94.7128 242.536 90.7294C241.408 88.0804 237.544 90.3512 238.657 92.9738C240.758 97.9125 243.388 102.686 246.794 106.852C248.975 109.525 251.419 110.796 254.829 109.554C264.479 106.038 273.786 99.3142 281.95 93.2333C284.233 91.5335 282.022 87.6361 279.706 89.3549Z" fill="#8AA99D"/>
<path d="M296.233 64.1374C302.651 59.6484 308.98 54.3658 316.015 50.8668C319.352 49.2086 325.06 46.7944 327.771 50.4291C330.337 53.8746 332.272 57.9938 334.465 61.6909C335.934 64.1688 339.816 61.931 338.343 59.4465C335.819 55.1926 333.579 49.419 329.93 46.0191C327.28 43.5552 323.402 43.8534 320.132 44.5925C310.449 46.7713 301.936 54.7002 294.005 60.2581C291.661 61.8967 293.885 65.7864 296.25 64.1364L296.233 64.1374Z" fill="#8AA99D"/>
<path d="M186.065 580.348C193.418 573.227 201.421 566.843 210.071 561.357C212.001 560.131 214.088 558.183 216.085 560.132C217.347 561.36 218.052 563.985 219.03 565.495C221.443 569.2 224.471 572.395 227.961 575.101C230.218 576.846 233.304 573.598 231.024 571.831C226.11 568.022 223.166 563.552 220.15 558.232C218.209 554.801 215.036 553.777 211.417 555.413C206.066 557.823 201.046 561.898 196.425 565.47C191.803 569.042 187.124 573.105 182.798 577.291C180.726 579.292 183.997 582.356 186.069 580.355L186.065 580.348Z" fill="#8AA99D"/>
<path d="M403.126 464.235L403.285 464.334C404.101 464.835 405.361 464.6 405.98 463.89C406.675 463.098 406.934 462.296 406.616 461.266C406.336 460.357 405.41 459.574 404.418 459.646C401.834 459.834 400.332 462.604 398.666 464.321C395.607 467.482 392.292 470.387 388.74 472.991C385.39 475.445 380.426 480.004 376.906 475.556C374.423 472.421 372.977 468.088 371.219 464.518C369.946 461.928 366.137 464.288 367.398 466.858C370.46 473.07 374.421 485.272 383.67 481.494C387.824 479.799 391.691 476.483 395.119 473.66C396.971 472.133 398.763 470.535 400.476 468.852C401.456 467.885 402.421 466.892 403.357 465.881L404.285 464.857C405.472 463.79 405.547 463.548 404.512 464.119L402.313 462.499L402.39 462.755L402.906 460.607L402.71 460.826L405.405 460.382L405.246 460.283C402.793 458.773 400.68 462.721 403.126 464.235Z" fill="#8AA99D"/>
<path d="M306.705 505.742C313.118 500.716 319.863 496.147 326.962 492.139C328.514 491.26 330.305 489.922 332.019 489.409C334.62 488.638 335.802 490.246 337.317 492.268C339.914 495.735 342.034 499.503 343.83 503.443C345.024 506.063 348.829 503.697 347.652 501.103C345.429 496.218 342.68 491.512 339.172 487.432C336.925 484.813 334.45 483.603 331.072 484.931C321.513 488.685 312.376 495.638 304.365 501.92C302.125 503.676 304.433 507.518 306.705 505.742Z" fill="#8AA99D"/>
<path d="M290.815 531.363C284.511 536.01 278.315 541.448 271.369 545.121C268.075 546.862 262.428 549.417 259.628 545.851C256.976 542.471 254.94 538.401 252.656 534.759C251.126 532.319 247.301 534.652 248.835 537.099C251.463 541.289 253.847 547.005 257.58 550.313C260.29 552.711 264.159 552.316 267.41 551.496C277.036 549.077 285.349 540.939 293.139 535.185C295.442 533.489 293.121 529.656 290.798 531.364L290.815 531.363Z" fill="#8AA99D"/>
<path d="M167.815 604.302C160.461 611.423 152.459 617.807 143.808 623.293C141.879 624.519 139.792 626.467 137.794 624.518C136.532 623.29 135.828 620.665 134.849 619.155C132.437 615.45 129.409 612.255 125.919 609.549C123.662 607.804 120.576 611.052 122.855 612.819C127.77 616.628 130.713 621.098 133.73 626.418C135.67 629.849 138.844 630.873 142.462 629.237C147.814 626.827 152.833 622.752 157.455 619.18C162.077 615.608 166.756 611.545 171.082 607.359C173.153 605.358 169.883 602.294 167.811 604.295L167.815 604.302Z" fill="#8AA99D"/>
<path d="M397.242 84.7305C389.713 91.6672 381.555 97.8502 372.77 103.119C370.81 104.297 368.676 106.192 366.727 104.194C365.496 102.935 364.857 100.293 363.917 98.7596C361.597 94.9951 358.649 91.7265 355.228 88.9341C353.015 87.1333 349.849 90.3039 352.084 92.1273C356.902 96.0567 359.734 100.599 362.617 105.992C364.471 109.471 367.619 110.573 371.277 109.028C376.686 106.752 381.806 102.803 386.515 99.3468C391.224 95.8907 396.002 91.9457 400.431 87.8683C402.552 85.9189 399.359 82.7746 397.238 84.7239L397.242 84.7305Z" fill="#8AA99D"/>
<path d="M158.889 222.071C150.993 226.852 144.35 233.294 136.742 238.48C134.978 239.677 133.075 241.166 131.052 241.87C128.618 242.715 127.367 240.859 125.849 239.149C122.6 235.482 120.063 231.342 118.014 226.902C116.809 224.288 112.938 226.546 114.135 229.146C116.351 233.948 119.193 238.387 122.705 242.342C125.634 245.639 128.287 247.819 132.757 246.034C137.537 244.13 141.85 240.385 145.85 237.224C150.83 233.294 155.681 229.246 161.123 225.946C163.59 224.457 161.352 220.575 158.879 222.068L158.889 222.071Z" fill="#8AA99D"/>
<path d="M177.352 195.411L177.196 195.308C176.392 194.787 175.128 194.991 174.491 195.685C173.776 196.459 173.497 197.255 173.789 198.292C174.047 199.208 174.953 200.014 175.947 199.967C178.534 199.843 180.105 197.111 181.813 195.436C184.95 192.353 188.336 189.53 191.952 187.015C195.361 184.646 200.438 180.211 203.845 184.746C206.25 187.942 207.588 192.309 209.257 195.922C210.465 198.542 214.332 196.278 213.135 193.678C210.228 187.392 206.572 175.094 197.231 178.642C193.037 180.233 189.088 183.451 185.591 186.188C183.701 187.669 181.871 189.222 180.117 190.862C179.112 191.804 178.123 192.773 177.163 193.76L176.21 194.761C174.996 195.798 174.915 196.038 175.964 195.493L178.122 197.167L178.051 196.909L177.482 199.043L177.684 198.829L174.979 199.206L175.135 199.309C177.549 200.879 179.76 196.985 177.352 195.411Z" fill="#8AA99D"/>
<path d="M274.776 156.316C268.241 161.181 261.384 165.581 254.188 169.41C252.614 170.251 250.791 171.543 249.065 172.014C246.445 172.72 245.303 171.083 243.839 169.025C241.329 165.494 239.304 161.674 237.606 157.69C236.478 155.041 232.615 157.312 233.728 159.935C235.828 164.873 238.459 169.647 241.864 173.813C244.046 176.486 246.489 177.757 249.9 176.515C259.549 172.999 268.856 166.275 277.021 160.194C279.304 158.494 277.092 154.597 274.776 156.316Z" fill="#8AA99D"/>
<path d="M291.307 131.096C297.725 126.607 304.054 121.324 311.089 117.825C314.426 116.167 320.134 113.753 322.845 117.388C325.412 120.833 327.346 124.952 329.539 128.649C331.008 131.127 334.89 128.89 333.417 126.405C330.894 122.151 328.653 116.378 325.004 112.978C322.354 110.514 318.477 110.812 315.206 111.551C305.523 113.73 297.01 121.659 289.08 127.217C286.735 128.855 288.96 132.745 291.324 131.095L291.307 131.096Z" fill="#8AA99D"/>
<path d="M92.644 325.11C85.1154 332.047 76.9568 338.23 68.1723 343.499C66.2126 344.677 64.0782 346.572 62.1296 344.574C60.8986 343.314 60.2594 340.673 59.319 339.139C56.9996 335.375 54.0515 332.106 50.6305 329.314C48.4173 327.513 45.2511 330.684 47.4862 332.507C52.3048 336.437 55.136 340.979 58.0192 346.372C59.8738 349.851 63.0209 350.953 66.679 349.408C72.0884 347.131 77.208 343.183 81.9171 339.727C86.6263 336.271 91.4046 332.326 95.8334 328.248C97.9542 326.299 94.761 323.154 92.6402 325.104L92.644 325.11Z" fill="#8AA99D"/>
<path d="M387.331 337.482C381.026 342.13 374.831 347.568 367.885 351.241C364.59 352.982 358.944 355.537 356.143 351.971C353.492 348.59 351.455 344.52 349.172 340.879C347.641 338.438 343.816 340.772 345.351 343.219C347.979 347.409 350.362 353.125 354.095 356.433C356.805 358.83 360.674 358.436 363.925 357.616C373.551 355.197 381.864 347.058 389.654 341.305C391.957 339.609 389.637 335.775 387.314 337.484L387.331 337.482Z" fill="#8AA99D"/>
<path d="M111.48 301.628C119.009 294.691 127.167 288.508 135.952 283.239C137.912 282.061 140.046 280.166 141.995 282.164C143.226 283.424 143.865 286.065 144.805 287.599C147.125 291.363 150.073 294.632 153.494 297.424C155.707 299.225 158.873 296.054 156.638 294.231C151.82 290.301 148.988 285.759 146.105 280.366C144.25 276.887 141.103 275.785 137.445 277.33C132.036 279.606 126.916 283.555 122.207 287.011C117.498 290.467 112.72 294.412 108.291 298.49C106.17 300.439 109.363 303.584 111.484 301.634L111.48 301.628Z" fill="#8AA99D"/>
<path d="M219.401 251.157C211.505 255.938 204.861 262.38 197.253 267.567C195.489 268.764 193.586 270.252 191.563 270.956C189.129 271.802 187.879 269.945 186.361 268.235C183.112 264.568 180.575 260.428 178.525 255.988C177.321 253.374 173.45 255.632 174.647 258.232C176.862 263.034 179.704 267.474 183.217 271.428C186.146 274.725 188.799 276.906 193.269 275.12C198.049 273.217 202.361 269.471 206.361 266.311C211.342 262.381 216.192 258.332 221.635 255.033C224.102 253.544 221.864 249.662 219.391 251.155L219.401 251.157Z" fill="#8AA99D"/>
<path d="M276.729 350.216C268.833 354.997 262.19 361.439 254.581 366.626C252.817 367.823 250.914 369.312 248.892 370.015C246.458 370.861 245.207 369.004 243.689 367.294C240.44 363.627 237.903 359.487 235.853 355.047C234.649 352.434 230.778 354.691 231.975 357.292C234.19 362.094 237.033 366.533 240.545 370.487C243.474 373.784 246.127 375.965 250.597 374.179C255.377 372.276 259.689 368.53 263.689 365.37C268.67 361.44 273.521 357.391 278.963 354.092C281.43 352.603 279.192 348.721 276.719 350.214L276.729 350.216Z" fill="#8AA99D"/>
<path d="M395.038 274.037C387.142 278.818 380.498 285.26 372.89 290.446C371.126 291.643 369.223 293.132 367.2 293.836C364.766 294.681 363.516 292.825 361.998 291.115C358.749 287.448 356.212 283.307 354.162 278.867C352.958 276.254 349.087 278.511 350.284 281.112C352.499 285.914 355.341 290.353 358.854 294.308C361.783 297.605 364.436 299.785 368.905 298C373.686 296.096 377.998 292.35 381.998 289.19C386.979 285.26 391.829 281.212 397.272 277.912C399.738 276.423 397.5 272.541 395.027 274.034L395.038 274.037Z" fill="#8AA99D"/>
<path d="M237.864 224.5L237.707 224.397C236.904 223.876 235.639 224.079 235.002 224.774C234.288 225.548 234.009 226.344 234.301 227.381C234.558 228.297 235.465 229.102 236.459 229.055C239.046 228.932 240.617 226.2 242.325 224.525C245.462 221.441 248.848 218.619 252.463 216.104C255.873 213.735 260.949 209.3 264.357 213.835C266.761 217.031 268.1 221.398 269.768 225.011C270.977 227.631 274.843 225.367 273.647 222.767C270.74 216.481 267.083 204.183 257.743 207.731C253.548 209.322 249.6 212.54 246.103 215.277C244.213 216.758 242.382 218.311 240.628 219.951C239.624 220.893 238.635 221.862 237.674 222.849L236.721 223.849C235.508 224.886 235.427 225.127 236.476 224.582L238.633 226.256L238.563 225.997L237.993 228.132L238.195 227.918L235.49 228.295L235.647 228.398C238.061 229.968 240.272 226.074 237.864 224.5Z" fill="#8AA99D"/>
<path d="M293.422 320.501L293.266 320.398C292.462 319.877 291.198 320.08 290.561 320.775C289.847 321.549 289.568 322.345 289.86 323.382C290.117 324.298 291.023 325.103 292.017 325.056C294.605 324.933 296.176 322.201 297.883 320.526C301.021 317.442 304.406 314.62 308.022 312.105C311.432 309.736 316.508 305.301 319.916 309.836C322.32 313.032 323.659 317.399 325.327 321.012C326.535 323.632 330.402 321.368 329.205 318.768C326.298 312.482 322.642 300.184 313.302 303.732C309.107 305.323 305.158 308.541 301.662 311.278C299.772 312.759 297.941 314.312 296.187 315.952C295.183 316.894 294.194 317.863 293.233 318.85L292.28 319.85C291.066 320.887 290.985 321.128 292.034 320.582L294.192 322.257L294.122 321.998L293.552 324.133L293.754 323.919L291.049 324.296L291.205 324.399C293.62 325.969 295.83 322.075 293.422 320.501Z" fill="#8AA99D"/>
<path d="M335.296 185.409C328.761 190.274 321.903 194.674 314.707 198.504C313.133 199.344 311.311 200.637 309.584 201.107C306.964 201.814 305.823 200.176 304.359 198.118C301.849 194.587 299.823 190.767 298.125 186.784C296.997 184.135 293.134 186.405 294.247 189.028C296.348 193.967 298.978 198.74 302.384 202.906C304.565 205.579 307.009 206.851 310.419 205.608C320.069 202.093 329.375 195.368 337.54 189.287C339.823 187.588 337.612 183.69 335.296 185.409Z" fill="#8AA99D"/>
<path d="M351.823 160.189C358.241 155.7 364.57 150.418 371.605 146.919C374.942 145.26 380.65 142.846 383.361 146.481C385.927 149.926 387.862 154.046 390.054 157.743C391.524 160.221 395.406 157.983 393.933 155.498C391.409 151.244 389.169 145.471 385.519 142.071C382.87 139.607 378.992 139.905 375.722 140.644C366.038 142.823 357.526 150.752 349.595 156.31C347.251 157.948 349.475 161.838 351.84 160.188L351.823 160.189Z" fill="#8AA99D"/>
<path d="M106.558 368.584C114.087 361.647 122.246 355.464 131.03 350.195C132.99 349.017 135.124 347.122 137.073 349.12C138.304 350.38 138.943 353.021 139.883 354.555C142.203 358.319 145.151 361.588 148.572 364.38C150.785 366.181 153.951 363.01 151.716 361.187C146.898 357.257 144.066 352.715 141.183 347.322C139.329 343.843 136.182 342.741 132.523 344.286C127.114 346.562 121.994 350.511 117.285 353.967C112.576 357.423 107.798 361.368 103.369 365.446C101.248 367.395 104.441 370.54 106.562 368.59L106.558 368.584Z" fill="#8AA99D"/>
<path d="M214.475 318.125C206.579 322.906 199.936 329.348 192.327 334.535C190.564 335.731 188.66 337.22 186.638 337.924C184.204 338.769 182.953 336.913 181.435 335.203C178.186 331.536 175.649 327.396 173.599 322.956C172.395 320.342 168.524 322.6 169.721 325.2C171.937 330.002 174.779 334.442 178.291 338.396C181.22 341.693 183.873 343.873 188.343 342.088C193.123 340.185 197.436 336.439 201.435 333.279C206.416 329.349 211.267 325.3 216.709 322.001C219.176 320.512 216.938 316.63 214.465 318.122L214.475 318.125Z" fill="#8AA99D"/>
<path d="M232.942 291.466L232.786 291.362C231.982 290.841 230.717 291.045 230.08 291.739C229.366 292.513 229.087 293.309 229.379 294.346C229.637 295.263 230.543 296.068 231.537 296.021C234.124 295.897 235.695 293.165 237.403 291.49C240.54 288.407 243.926 285.585 247.542 283.069C250.951 280.7 256.028 276.266 259.435 280.8C261.84 283.996 263.178 288.363 264.847 291.976C266.055 294.596 269.922 292.332 268.725 289.732C265.818 283.446 262.162 271.149 252.821 274.696C248.626 276.287 244.678 279.506 241.181 282.242C239.291 283.723 237.46 285.276 235.707 286.916C234.702 287.858 233.713 288.827 232.752 289.814L231.799 290.815C230.586 291.852 230.505 292.092 231.554 291.547L233.712 293.221L233.641 292.963L233.072 295.097L233.274 294.884L230.568 295.26L230.725 295.364C233.139 296.934 235.35 293.039 232.942 291.466Z" fill="#8AA99D"/>
<path d="M288.38 387.27L288.223 387.167C287.42 386.646 286.155 386.849 285.518 387.544C284.804 388.318 284.525 389.114 284.817 390.151C285.074 391.067 285.98 391.872 286.974 391.825C289.562 391.702 291.133 388.97 292.84 387.295C295.978 384.211 299.363 381.389 302.979 378.874C306.389 376.505 311.465 372.07 314.873 376.605C317.277 379.801 318.616 384.168 320.284 387.781C321.492 390.401 325.359 388.137 324.162 385.537C321.255 379.251 317.599 366.953 308.259 370.501C304.064 372.092 300.115 375.31 296.619 378.047C294.729 379.528 292.898 381.081 291.144 382.721C290.14 383.663 289.151 384.632 288.19 385.619L287.237 386.62C286.023 387.656 285.942 387.897 286.991 387.352L289.149 389.026L289.079 388.767L288.509 390.902L288.711 390.688L286.006 391.065L286.163 391.168C288.577 392.738 290.787 388.844 288.38 387.27Z" fill="#8AA99D"/>
<path d="M294.403 450.6L294.246 450.497C293.443 449.976 292.178 450.18 291.541 450.874C290.827 451.648 290.548 452.444 290.84 453.481C291.097 454.397 292.004 455.203 292.998 455.156C295.585 455.032 297.156 452.3 298.864 450.625C302.001 447.542 305.387 444.719 309.002 442.204C312.412 439.835 317.488 435.4 320.896 439.935C323.3 443.131 324.639 447.498 326.307 451.111C327.516 453.731 331.382 451.467 330.186 448.867C327.279 442.581 323.622 430.283 314.282 433.831C310.087 435.422 306.139 438.64 302.642 441.377C300.752 442.858 298.921 444.411 297.167 446.051C296.163 446.993 295.174 447.962 294.213 448.949L293.26 449.95C292.047 450.987 291.966 451.227 293.015 450.682L295.173 452.356L295.102 452.097L294.532 454.232L294.735 454.018L292.029 454.395L292.186 454.498C294.6 456.068 296.811 452.174 294.403 450.6Z" fill="#8AA99D"/>
<path d="M330.366 252.367C323.831 257.232 316.974 261.632 309.778 265.462C308.204 266.302 306.381 267.595 304.655 268.065C302.035 268.772 300.893 267.134 299.429 265.076C296.919 261.545 294.893 257.725 293.196 253.742C292.068 251.093 288.205 253.363 289.317 255.986C291.418 260.925 294.048 265.698 297.454 269.864C299.635 272.537 302.079 273.809 305.489 272.566C315.139 269.051 324.446 262.326 332.611 256.245C334.893 254.546 332.682 250.648 330.366 252.367Z" fill="#8AA99D"/>
<path d="M346.893 227.151C353.311 222.662 359.64 217.379 366.675 213.88C370.012 212.222 375.72 209.808 378.431 213.442C380.998 216.888 382.932 221.007 385.125 224.704C386.594 227.182 390.476 224.944 389.003 222.46C386.48 218.206 384.239 212.432 380.59 209.032C377.94 206.568 374.062 206.867 370.792 207.606C361.109 209.784 352.596 217.713 344.666 223.271C342.321 224.91 344.546 228.8 346.91 227.15L346.893 227.151Z" fill="#8AA99D"/>
</svg>
