<svg width="568" height="682" viewBox="0 0 568 682" fill="none" xmlns="http://www.w3.org/2000/svg">
<path d="M414.162 251.255C414.796 251.464 415.308 251.183 415.856 250.908C417.484 250.06 418.875 248.879 420.01 247.489C423.169 243.788 422.655 236.229 419.28 232.886C415.997 230.724 411.168 231.243 407.677 232.79C406.72 233.253 406.154 233.551 405.731 234.426C402.155 243.706 405.254 243.832 410.218 250.746C407.003 250.6 404.074 249.347 402.016 246.742C398.81 242.618 399.868 237.042 401.579 232.537C403.666 227.873 410.465 226.543 415.054 226.845C418.371 227.067 422.282 228.437 423.997 231.603C427.091 237.256 427.096 244.876 422.685 249.795C421.06 251.61 418.644 252.847 416.168 252.698C415.342 252.646 414.223 252.346 413.922 251.47C413.871 251.318 414.038 251.187 414.169 251.253L414.162 251.255Z" fill="#A3D0E3"/>
<path d="M484.802 230.133C485.436 230.342 485.949 230.061 486.497 229.785C488.125 228.937 489.516 227.757 490.651 226.366C493.81 222.666 493.296 215.107 489.921 211.763C486.638 209.601 481.809 210.121 478.317 211.667C477.36 212.13 476.795 212.429 476.371 213.303C472.795 222.583 475.895 222.71 480.859 229.623C477.644 229.477 474.715 228.224 472.657 225.62C469.45 221.495 470.509 215.92 472.22 211.415C474.307 206.75 481.105 205.421 485.695 205.722C489.011 205.944 492.923 207.315 494.638 210.481C497.732 216.133 497.736 223.754 493.325 228.673C491.7 230.488 489.284 231.725 486.809 231.576C485.983 231.523 484.864 231.224 484.562 230.347C484.512 230.196 484.678 230.064 484.81 230.13L484.802 230.133Z" fill="#A3D0E3"/>
<path d="M345.433 267.299C348.388 266.766 350.777 265.648 352.904 263.774C356.806 260.229 357.341 253.591 354.662 249.181C351.932 244.417 345.968 243.405 340.905 244.659C338.471 245.313 336.158 245.977 335.349 248.471C333.245 253.815 334.384 259.489 338.32 263.706C334.678 263.972 331.561 260.694 330.671 257.328C329.452 252.472 330.272 245.073 334.826 242.169C339.473 239.495 344.941 238.745 350.201 240.221C361.421 243.452 363.938 259.193 355.21 266.464C352.547 268.677 348.358 269.572 345.373 267.622C345.234 267.534 345.29 267.322 345.441 267.297L345.433 267.299Z" fill="#A3D0E3"/>
<path d="M274.602 283.372C279.559 281.623 284.389 277.102 283.639 271.609C282.156 263.043 272.838 259.682 265.423 263.551C261.255 265.694 256.364 270.26 260.708 274.736C262.581 276.99 264.626 278.648 267.136 280.487C263.752 281.399 260.119 279.877 257.747 277.394C248.193 267.559 263.393 255.942 273.5 257.33C282.51 257.905 290.278 267.739 286.876 276.582C285.171 281.355 279.767 285.848 274.597 283.711C274.448 283.643 274.468 283.426 274.612 283.377L274.602 283.372Z" fill="#A3D0E3"/>
<path d="M397.184 185.435C402.832 180.515 402.763 170.659 397.091 165.885C392.607 161.894 385.533 163.029 383.805 169.022C381.397 175.899 383.78 180.61 390.214 183.706C387.29 185.365 383.41 184.111 381.293 181.585C377.106 176.441 378.006 168.299 381.747 163.141C383.934 160.338 387.439 158.855 390.922 158.844C399.593 158.884 405.69 167.373 405.164 175.524C405.128 179.949 402.542 186.196 397.265 185.753C397.106 185.731 397.063 185.526 397.184 185.435Z" fill="#A3D0E3"/>
<path d="M324.119 198.933C331.431 195.083 333.278 187.382 331.384 179.754C330.287 175.085 326.844 174.711 322.907 176.516C318.792 178.338 315.061 181.236 312.2 184.744C311.058 186.389 308.436 189.026 309.609 191.025C310.99 193.116 314.038 194.775 316.355 196.114C317.705 196.876 319.137 197.559 320.745 198.386C317.341 199.717 313.461 198.943 310.38 197.109C304.876 193.871 303.246 189.523 307.095 184.084C310.447 178.845 315.336 174.701 321.057 172.216C329.21 168.64 335.369 172.703 335.912 181.457C336.254 185.907 335.895 190.474 333.446 194.535C331.6 197.629 327.813 200.132 324.155 199.267C323.999 199.227 323.976 199.007 324.119 198.933Z" fill="#A3D0E3"/>
<path d="M466.104 172.509C473.415 168.658 475.262 160.958 473.369 153.329C472.271 148.66 468.828 148.286 464.892 150.091C460.776 151.913 457.046 154.811 454.185 158.319C453.042 159.965 450.42 162.601 451.594 164.601C452.975 166.691 456.022 168.35 458.34 169.689C459.689 170.451 461.122 171.134 462.729 171.961C459.325 173.293 455.445 172.518 452.364 170.685C446.86 167.446 445.23 163.098 449.079 157.659C452.432 152.421 457.32 148.276 463.042 145.791C471.194 142.215 477.353 146.278 477.896 155.032C478.239 159.482 477.879 164.049 475.43 168.111C473.584 171.204 469.798 173.708 466.14 172.842C465.983 172.802 465.96 172.582 466.104 172.509Z" fill="#A3D0E3"/>
<path d="M251.201 210.113C255.94 207.788 260.435 204.079 260.461 198.461C260.532 196.105 259.827 193.418 258.318 191.674C255.221 188.305 248.732 188.116 244.829 190.473C239.558 193.423 237.463 201.341 242.695 205.378C243.646 206.155 244.785 206.793 246.402 207.17C243.586 209.577 238.886 207.839 237.123 204.832C233.202 198.496 236.355 190.089 242.436 186.49C245.438 184.661 248.973 183.976 252.371 184.289C255.874 184.667 259.371 185.982 261.715 188.837C266.019 194.405 265.261 202.92 260.325 207.804C258.013 210.135 254.403 211.502 251.214 210.454C251.063 210.404 251.057 210.187 251.196 210.124L251.201 210.113Z" fill="#A3D0E3"/>
<path d="M302.999 127.129C306.423 126.287 308.484 123.181 307.845 119.807C307.099 115.888 302.488 111.315 298.816 110.033C293.991 108.698 288.169 113.955 289.676 118.942C290.694 122.593 294.842 122.756 297.713 124.719C298.931 125.516 300.155 126.631 300.648 128.108C296.26 127.226 292.239 127.416 288.468 124.55C280.966 118.207 286.314 106.995 295.056 105.361C299.983 104.253 304.571 107.57 307.526 111.096C310.598 114.541 312.835 119.368 310.986 124.139C309.925 127.188 305.727 129.493 302.914 127.452C302.79 127.359 302.84 127.157 302.992 127.131L302.999 127.129Z" fill="#A3D0E3"/>
<path d="M231.44 138.943C235.487 136.841 238.449 132.928 238.152 128.312C237.905 123.644 234.897 120.969 230.234 120.574C227.031 120.214 223.895 120.858 221.97 123.337C219.959 125.888 221.184 129.251 222.71 131.773C223.932 133.967 225.118 136.257 226.146 138.776C223.086 137.231 220.629 134.869 218.608 132.125C212.738 123.005 221.224 114.407 230.783 115.919C233.784 116.28 236.907 117.333 239.084 119.662C243.402 124.417 243.115 131.722 239.366 136.58C237.669 138.908 234.202 140.732 231.425 139.277C231.291 139.204 231.301 139.007 231.44 138.943Z" fill="#A3D0E3"/>
<path d="M200.306 287.9C200.94 288.109 201.453 287.828 202.001 287.552C203.629 286.705 205.02 285.524 206.155 284.134C209.314 280.433 208.8 272.874 205.425 269.53C202.142 267.368 197.313 267.888 193.821 269.434C192.864 269.897 192.299 270.196 191.875 271.07C188.299 280.351 191.399 280.477 196.363 287.39C193.147 287.244 190.219 285.991 188.161 283.387C184.954 279.262 186.013 273.687 187.724 269.182C189.811 264.518 196.609 263.188 201.199 263.49C204.515 263.711 208.427 265.082 210.142 268.248C213.236 273.9 213.24 281.521 208.829 286.44C207.204 288.255 204.788 289.492 202.313 289.343C201.487 289.29 200.368 288.991 200.066 288.115C200.016 287.963 200.182 287.832 200.314 287.897L200.306 287.9Z" fill="#A3D0E3"/>
<path d="M131.562 303.94C134.517 303.407 136.905 302.289 139.033 300.415C142.935 296.871 143.469 290.232 140.791 285.822C138.061 281.058 132.097 280.046 127.034 281.3C124.599 281.954 122.286 282.618 121.478 285.112C119.374 290.456 120.513 296.13 124.449 300.347C120.807 300.613 117.69 297.335 116.8 293.969C115.581 289.113 116.401 281.714 120.955 278.81C125.602 276.136 131.07 275.387 136.33 276.862C147.55 280.093 150.067 295.834 141.339 303.106C138.676 305.318 134.487 306.213 131.502 304.264C131.363 304.175 131.418 303.963 131.57 303.938L131.562 303.94Z" fill="#A3D0E3"/>
<path d="M60.7426 320.022C65.6992 318.273 70.5295 313.752 69.7796 308.259C68.2969 299.693 58.9788 296.332 51.564 300.2C47.3958 302.344 42.5049 306.909 46.8481 311.386C48.7218 313.64 50.7666 315.298 53.2763 317.137C49.8926 318.049 46.2591 316.527 43.8877 314.044C34.334 304.209 49.5341 292.592 59.641 293.98C68.651 294.555 76.419 304.389 73.017 313.232C71.3113 318.005 65.9075 322.498 60.7378 320.361C60.5888 320.293 60.6088 320.076 60.7527 320.027L60.7426 320.022Z" fill="#A3D0E3"/>
<path d="M183.321 222.084C188.969 217.164 188.9 207.308 183.228 202.534C178.743 198.543 171.669 199.678 169.942 205.671C167.534 212.548 169.917 217.259 176.35 220.355C173.427 222.014 169.546 220.76 167.43 218.234C163.243 213.09 164.142 204.948 167.883 199.79C170.071 196.987 173.575 195.504 177.058 195.493C185.729 195.533 191.827 204.022 191.301 212.173C191.264 216.598 188.678 222.844 183.402 222.402C183.243 222.379 183.199 222.175 183.321 222.084Z" fill="#A3D0E3"/>
<path d="M110.256 235.581C117.567 231.731 119.415 224.03 117.521 216.402C116.423 211.732 112.98 211.359 109.044 213.164C104.929 214.986 101.198 217.884 98.337 221.392C97.1943 223.037 94.5723 225.674 95.7461 227.673C97.127 229.764 100.175 231.423 102.492 232.762C103.841 233.524 105.274 234.207 106.881 235.034C103.478 236.365 99.5974 235.591 96.5168 233.757C91.0127 230.519 89.3823 226.171 93.2318 220.732C96.584 215.493 101.473 211.349 107.194 208.864C115.347 205.288 121.506 209.351 122.049 218.105C122.391 222.555 122.032 227.122 119.583 231.183C117.736 234.277 113.95 236.78 110.292 235.915C110.135 235.875 110.112 235.655 110.256 235.581Z" fill="#A3D0E3"/>
<path d="M37.3303 246.763C42.0691 244.437 46.5643 240.728 46.5896 235.111C46.6608 232.754 45.9562 230.067 44.4468 228.323C41.3497 224.954 34.8608 224.765 30.958 227.123C25.6867 230.073 23.5923 237.99 28.8242 242.027C29.7746 242.804 30.9143 243.442 32.5312 243.82C29.7145 246.227 25.015 244.488 23.2519 241.481C19.3313 235.145 22.4836 226.739 28.565 223.139C31.5666 221.31 35.1021 220.625 38.4996 220.938C42.0032 221.316 45.5 222.632 47.844 225.486C52.1478 231.054 51.39 239.57 46.4539 244.454C44.1423 246.785 40.5317 248.152 37.3432 247.104C37.1916 247.053 37.1863 246.836 37.3252 246.773L37.3303 246.763Z" fill="#A3D0E3"/>
<path d="M157.554 153.454C159.326 151.598 160.592 149.895 161.578 147.704C163.479 143.742 161.32 139.023 157.527 137.301C151.561 134.622 144.451 140.511 142.693 146.033C141.362 150.993 147.586 151.649 150.778 153.816C148.084 155.205 145 155.427 142.243 153.881C132.569 147.818 142.113 134.875 150.282 132.607C160.17 129.335 169.686 139.839 164.764 149.249C163.448 151.862 160.676 154.002 157.678 153.774C157.524 153.767 157.456 153.562 157.572 153.456L157.554 153.454Z" fill="#A3D0E3"/>
<path d="M391.924 401.756C399.235 397.905 401.083 390.205 399.189 382.576C398.091 377.907 394.648 377.534 390.712 379.338C386.597 381.161 382.866 384.058 380.005 387.567C378.862 389.212 376.24 391.849 377.414 393.848C378.795 395.938 381.843 397.598 384.16 398.937C385.509 399.698 386.942 400.382 388.549 401.209C385.146 402.54 381.265 401.766 378.185 399.932C372.681 396.694 371.05 392.346 374.9 386.907C378.252 381.668 383.141 377.524 388.862 375.039C397.015 371.462 403.174 375.526 403.717 384.28C404.059 388.73 403.7 393.297 401.251 397.358C399.404 400.451 395.618 402.955 391.96 402.09C391.803 402.049 391.78 401.83 391.924 401.756Z" fill="#A3D0E3"/>
<path d="M319.006 412.937C323.745 410.611 328.24 406.902 328.265 401.285C328.337 398.928 327.632 396.241 326.123 394.497C323.025 391.128 316.537 390.939 312.634 393.297C307.362 396.246 305.268 404.164 310.5 408.201C311.45 408.978 312.59 409.616 314.207 409.993C311.39 412.4 306.691 410.662 304.928 407.655C301.007 401.319 304.159 392.913 310.241 389.313C313.242 387.484 316.778 386.799 320.175 387.112C323.679 387.49 327.176 388.806 329.52 391.66C333.824 397.228 333.066 405.743 328.13 410.628C325.818 412.958 322.207 414.326 319.019 413.278C318.867 413.227 318.862 413.01 319.001 412.947L319.006 412.937Z" fill="#A3D0E3"/>
<path d="M439.23 319.629C441.001 317.774 442.268 316.07 443.253 313.88C445.154 309.918 442.996 305.199 439.203 303.477C433.237 300.797 426.127 306.686 424.369 312.209C423.037 317.169 429.261 317.825 432.453 319.992C429.76 321.381 426.676 321.603 423.919 320.057C414.245 313.994 423.788 301.051 431.957 298.783C441.845 295.511 451.362 306.015 446.44 315.425C445.124 318.038 442.352 320.177 439.354 319.95C439.2 319.943 439.131 319.738 439.248 319.632L439.23 319.629Z" fill="#A3D0E3"/>
<path d="M370.812 329.954C374.236 329.113 376.297 326.007 375.657 322.633C374.911 318.714 370.3 314.141 366.629 312.859C361.803 311.524 355.981 316.78 357.488 321.767C358.507 325.419 362.654 325.582 365.526 327.544C366.744 328.342 367.967 329.457 368.461 330.934C364.073 330.051 360.052 330.242 356.281 327.376C348.779 321.033 354.126 309.821 362.869 308.187C367.796 307.078 372.383 310.396 375.339 313.922C378.411 317.367 380.648 322.194 378.798 326.964C377.737 330.014 373.539 332.319 370.726 330.278C370.602 330.184 370.653 329.982 370.804 329.957L370.812 329.954Z" fill="#A3D0E3"/>
<path d="M299.241 341.76C303.288 339.657 306.25 335.745 305.953 331.128C305.706 326.46 302.698 323.786 298.035 323.391C294.832 323.03 291.695 323.674 289.77 326.154C287.76 328.704 288.985 332.067 290.51 334.589C291.732 336.783 292.919 339.073 293.947 341.593C290.887 340.047 288.429 337.685 286.409 334.942C280.538 325.821 289.025 317.223 298.584 318.735C301.585 319.096 304.708 320.149 306.884 322.479C311.203 327.234 310.916 334.538 307.167 339.396C305.469 341.724 302.003 343.548 299.226 342.093C299.092 342.02 299.102 341.823 299.241 341.76Z" fill="#A3D0E3"/>
<path d="M251.125 424.909C256.774 419.988 256.704 410.133 251.032 405.359C246.548 401.367 239.474 402.503 237.747 408.495C235.338 415.373 237.722 420.084 244.155 423.18C241.232 424.839 237.351 423.585 235.235 421.058C231.047 415.914 231.947 407.773 235.688 402.614C237.875 399.811 241.38 398.328 244.863 398.318C253.534 398.358 259.631 406.847 259.106 414.998C259.069 419.423 256.483 425.669 251.206 425.227C251.047 425.204 251.004 425 251.125 424.909Z" fill="#A3D0E3"/>
<path d="M178.061 438.406C185.372 434.555 187.219 426.855 185.326 419.226C184.228 414.557 180.785 414.183 176.849 415.988C172.733 417.81 169.003 420.708 166.142 424.216C164.999 425.861 162.377 428.498 163.551 430.498C164.932 432.588 167.979 434.247 170.297 435.586C171.646 436.348 173.079 437.031 174.686 437.858C171.282 439.19 167.402 438.415 164.321 436.582C158.817 433.343 157.187 428.995 161.037 423.556C164.389 418.317 169.277 414.173 174.999 411.688C183.151 408.112 189.31 412.175 189.853 420.929C190.196 425.379 189.836 429.946 187.387 434.008C185.541 437.101 181.755 439.605 178.097 438.739C177.94 438.699 177.917 438.479 178.061 438.406Z" fill="#A3D0E3"/>
<path d="M225.363 356.278C227.134 354.422 228.401 352.719 229.386 350.528C231.287 346.566 229.128 341.847 225.336 340.125C219.37 337.446 212.26 343.335 210.502 348.858C209.17 353.817 215.394 354.473 218.586 356.64C215.893 358.029 212.809 358.252 210.052 356.706C200.378 350.642 209.921 337.699 218.09 335.431C227.978 332.159 237.495 342.663 232.573 352.074C231.256 354.686 228.485 356.826 225.487 356.599C225.333 356.591 225.264 356.387 225.38 356.28L225.363 356.278Z" fill="#A3D0E3"/>
<path d="M156.941 366.596C160.365 365.754 162.426 362.648 161.786 359.274C161.04 355.355 156.429 350.782 152.758 349.5C147.932 348.165 142.11 353.422 143.617 358.409C144.636 362.06 148.783 362.223 151.654 364.186C152.873 364.983 154.096 366.098 154.59 367.575C150.202 366.692 146.181 366.883 142.41 364.017C134.908 357.674 140.255 346.462 148.998 344.828C153.925 343.72 158.512 347.037 161.468 350.563C164.54 354.008 166.777 358.835 164.927 363.605C163.866 366.655 159.668 368.96 156.855 366.919C156.731 366.826 156.781 366.623 156.933 366.598L156.941 366.596Z" fill="#A3D0E3"/>
<path d="M85.3893 378.405C89.4363 376.303 92.3981 372.39 92.101 367.773C91.8544 363.106 88.8463 360.431 84.1834 360.036C80.9803 359.675 77.8439 360.32 75.9189 362.799C73.9081 365.35 75.1335 368.713 76.6588 371.235C77.8807 373.429 79.0674 375.718 80.0951 378.238C77.035 376.693 74.5778 374.331 72.5573 371.587C66.6868 362.467 75.1734 353.869 84.7324 355.381C87.7333 355.742 90.8562 356.795 93.0329 359.124C97.3512 363.879 97.0647 371.184 93.3157 376.042C91.6179 378.37 88.1516 380.194 85.3744 378.739C85.2405 378.666 85.2504 378.469 85.3893 378.405Z" fill="#A3D0E3"/>
<path d="M54.0155 531.168C56.9702 530.635 59.3586 529.516 61.4862 527.643C65.3879 524.098 65.9226 517.46 63.2439 513.05C60.5143 508.286 54.55 507.273 49.4869 508.528C47.0526 509.182 44.7396 509.846 43.931 512.339C41.8267 517.683 42.9658 523.358 46.9022 527.575C43.2602 527.841 40.143 524.562 39.2535 521.196C38.0343 516.34 38.8537 508.942 43.4076 506.038C48.0552 503.364 53.5229 502.614 58.7829 504.09C70.0028 507.32 72.5199 523.061 63.7921 530.333C61.1294 532.546 56.9399 533.441 53.9552 531.491C53.8162 531.403 53.8715 531.191 54.0231 531.165L54.0155 531.168Z" fill="#A3D0E3"/>
<path d="M-16.8082 547.242C-11.8516 545.492 -7.02123 540.971 -7.7712 535.479C-9.25386 526.912 -18.572 523.551 -25.9868 527.42C-30.155 529.563 -35.0459 534.129 -30.7026 538.606C-28.829 540.859 -26.7842 542.517 -24.2745 544.356C-27.6582 545.268 -31.2917 543.746 -33.663 541.263C-43.2167 531.428 -28.0167 519.811 -17.9098 521.199C-8.89976 521.775 -1.1318 531.608 -4.53379 540.451C-6.23952 545.224 -11.6433 549.717 -16.8129 547.58C-16.962 547.512 -16.942 547.295 -16.7981 547.247L-16.8082 547.242Z" fill="#A3D0E3"/>
<path d="M105.766 449.304C111.414 444.383 111.345 434.528 105.673 429.754C101.189 425.762 94.1148 426.898 92.3874 432.89C89.9788 439.768 92.3623 444.479 98.7957 447.575C95.8723 449.234 91.9916 447.98 89.8753 445.453C85.688 440.309 86.5875 432.168 90.3287 427.009C92.5161 424.206 96.0206 422.723 99.5037 422.713C108.175 422.753 114.272 431.242 113.746 439.393C113.71 443.818 111.124 450.064 105.847 449.622C105.688 449.599 105.645 449.395 105.766 449.304Z" fill="#A3D0E3"/>
<path d="M32.7015 462.802C40.0128 458.951 41.8599 451.251 39.9664 443.622C38.8686 438.953 35.4256 438.579 31.4895 440.384C27.374 442.206 23.6435 445.104 20.7824 448.612C19.6396 450.257 17.0177 452.894 18.1914 454.894C19.5723 456.984 22.6199 458.643 24.9373 459.982C26.2867 460.744 27.7194 461.427 29.3266 462.254C25.923 463.586 22.0427 462.811 18.9621 460.978C13.4581 457.739 11.8276 453.391 15.6771 447.952C19.0293 442.713 23.9181 438.569 29.6393 436.084C37.7919 432.508 43.9509 436.571 44.4941 445.325C44.8365 449.775 44.4768 454.342 42.0279 458.404C40.1818 461.497 36.3953 464.001 32.7372 463.135C32.5805 463.095 32.5576 462.875 32.7015 462.802Z" fill="#A3D0E3"/>
<path d="M11.589 391.001C15.0132 390.159 17.074 387.053 16.4345 383.679C15.6885 379.76 11.0774 375.187 7.40625 373.905C2.58081 372.57 -3.24154 377.827 -1.73427 382.814C-0.715667 386.465 3.43183 386.628 6.30287 388.591C7.52101 389.388 8.74448 390.503 9.23832 391.98C4.85023 391.098 0.829336 391.288 -2.94169 388.422C-10.4439 382.079 -5.09658 370.867 3.64626 369.233C8.57311 368.125 13.1604 371.442 16.1161 374.968C19.188 378.413 21.4251 383.24 19.5754 388.011C18.5147 391.06 14.3164 393.365 11.5034 391.324C11.3795 391.231 11.4299 391.029 11.5814 391.003L11.589 391.001Z" fill="#A3D0E3"/>
<path d="M5.19079 178.29C6.96225 176.434 8.22869 174.731 9.21433 172.54C11.1153 168.578 8.95659 163.859 5.16385 162.137C-0.801925 159.458 -7.91187 165.346 -9.66998 170.869C-11.0017 175.829 -4.77759 176.485 -1.5856 178.652C-4.27939 180.041 -7.36318 180.263 -10.1202 178.717C-19.7943 172.654 -10.2507 159.711 -2.08176 157.443C7.80635 154.171 17.3227 164.675 12.4007 174.085C11.0846 176.698 8.31315 178.837 5.31484 178.61C5.16076 178.603 5.09238 178.398 5.20847 178.292L5.19079 178.29Z" fill="#A3D0E3"/>
<path d="M7.83069 605.63C11.8777 603.528 14.8395 599.615 14.5424 594.999C14.2958 590.331 11.2877 587.656 6.62477 587.261C3.42174 586.901 0.285271 587.545 -1.63971 590.024C-3.65051 592.575 -2.42505 595.938 -0.89976 598.46C0.322143 600.654 1.50877 602.944 2.53648 605.463C-0.523629 603.918 -2.98079 601.556 -5.00133 598.812C-10.8718 589.692 -2.38515 581.094 7.17379 582.606C10.1748 582.967 13.2976 584.02 15.4743 586.349C19.7926 591.104 19.5061 598.409 15.7571 603.267C14.0593 605.595 10.593 607.419 7.81583 605.964C7.6819 605.891 7.69183 605.694 7.83069 605.63Z" fill="#A3D0E3"/>
</svg>
