<svg width="121" height="134" viewBox="0 0 121 134" fill="none" xmlns="http://www.w3.org/2000/svg">
<path d="M15.938 9C16.8052 11.7499 17.7028 12.8491 19.425 14.8482C26.0438 22.5313 33.0417 29.4833 39.8921 36.6628C47.2762 44.4016 54.0607 53.2336 61.3902 61.0302C62.2774 61.9739 66.8698 65.1073 66.9997 67.2961C67.0406 67.9844 62.1002 70.4622 61.8147 70.6843C46.7342 82.4156 32.6012 93.9594 19.8192 111.204C15.3449 117.24 11.2019 123.574 6.02278 128.238C3.12971 130.843 3.50113 130.247 6.11374 128.47" stroke="#FFAD9B" stroke-width="8" stroke-linecap="round"/>
<path d="M61.4764 4C62.2512 10.476 71.3336 17.0757 74.0113 19.997C83.3077 30.1397 92.7765 40.0459 102.428 49.4019C106.669 53.5131 123.967 65.4535 113.898 73.5824C101.269 83.7777 87.7303 92.7995 76.2931 105.946C69.6642 113.566 62.6211 120.454 56 128" stroke="#FFAD9B" stroke-width="8" stroke-linecap="round"/>
</svg>
